<?xml version="1.0" encoding="utf-8" standalone="no"?>
<!DOCTYPE svg PUBLIC "-//W3C//DTD SVG 1.1//EN"
  "http://www.w3.org/Graphics/SVG/1.1/DTD/svg11.dtd">
<svg xmlns:xlink="http://www.w3.org/1999/xlink" width="711.822188pt" height="423.989062pt" viewBox="0 0 711.822188 423.989062" xmlns="http://www.w3.org/2000/svg" version="1.1">
 <metadata>
  <rdf:RDF xmlns:dc="http://purl.org/dc/elements/1.1/" xmlns:cc="http://creativecommons.org/ns#" xmlns:rdf="http://www.w3.org/1999/02/22-rdf-syntax-ns#">
   <cc:Work>
    <dc:type rdf:resource="http://purl.org/dc/dcmitype/StillImage"/>
    <dc:date>2025-10-02T11:22:56.193344</dc:date>
    <dc:format>image/svg+xml</dc:format>
    <dc:creator>
     <cc:Agent>
      <dc:title>Matplotlib v3.10.6, https://matplotlib.org/</dc:title>
     </cc:Agent>
    </dc:creator>
   </cc:Work>
  </rdf:RDF>
 </metadata>
 <defs>
  <style type="text/css">*{stroke-linejoin: round; stroke-linecap: butt}</style>
 </defs>
 <g id="figure_1">
  <g id="patch_1">
   <path d="M 0 423.989062 
L 711.822188 423.989062 
L 711.822188 0 
L 0 0 
z
" style="fill: #ffffff"/>
  </g>
  <g id="axes_1">
   <g id="patch_2">
    <path d="M 59.409688 367.7575 
L 704.622187 367.7575 
L 704.622187 39.3575 
L 59.409688 39.3575 
z
" style="fill: #ffffff"/>
   </g>
   <g id="FillBetweenPolyCollection_1"/>
   <g id="matplotlib.axis_1">
    <g id="xtick_1">
     <g id="line2d_1">
      <path d="M 82.263594 367.7575 
L 82.263594 39.3575 
" clip-path="url(#pa4e596e504)" style="fill: none; stroke: #b0b0b0; stroke-opacity: 0.3; stroke-width: 0.5; stroke-linecap: square"/>
     </g>
     <g id="line2d_2">
      <defs>
       <path id="md3c529b7de" d="M 0 0 
L 0 3.5 
" style="stroke: #000000; stroke-width: 0.8"/>
      </defs>
      <g>
       <use xlink:href="#md3c529b7de" x="82.263594" y="367.7575" style="stroke: #000000; stroke-width: 0.8"/>
      </g>
     </g>
     <g id="text_1">
      <!-- 1994 -->
      <g transform="translate(85.022969 400.2075) rotate(-90) scale(0.1 -0.1)">
       <defs>
        <path id="DejaVuSans-31" d="M 794 531 
L 1825 531 
L 1825 4091 
L 703 3866 
L 703 4441 
L 1819 4666 
L 2450 4666 
L 2450 531 
L 3481 531 
L 3481 0 
L 794 0 
L 794 531 
z
" transform="scale(0.015625)"/>
        <path id="DejaVuSans-39" d="M 703 97 
L 703 672 
Q 941 559 1184 500 
Q 1428 441 1663 441 
Q 2288 441 2617 861 
Q 2947 1281 2994 2138 
Q 2813 1869 2534 1725 
Q 2256 1581 1919 1581 
Q 1219 1581 811 2004 
Q 403 2428 403 3163 
Q 403 3881 828 4315 
Q 1253 4750 1959 4750 
Q 2769 4750 3195 4129 
Q 3622 3509 3622 2328 
Q 3622 1225 3098 567 
Q 2575 -91 1691 -91 
Q 1453 -91 1209 -44 
Q 966 3 703 97 
z
M 1959 2075 
Q 2384 2075 2632 2365 
Q 2881 2656 2881 3163 
Q 2881 3666 2632 3958 
Q 2384 4250 1959 4250 
Q 1534 4250 1286 3958 
Q 1038 3666 1038 3163 
Q 1038 2656 1286 2365 
Q 1534 2075 1959 2075 
z
" transform="scale(0.015625)"/>
        <path id="DejaVuSans-34" d="M 2419 4116 
L 825 1625 
L 2419 1625 
L 2419 4116 
z
M 2253 4666 
L 3047 4666 
L 3047 1625 
L 3713 1625 
L 3713 1100 
L 3047 1100 
L 3047 0 
L 2419 0 
L 2419 1100 
L 313 1100 
L 313 1709 
L 2253 4666 
z
" transform="scale(0.015625)"/>
       </defs>
       <use xlink:href="#DejaVuSans-31"/>
       <use xlink:href="#DejaVuSans-39" transform="translate(63.623047 0)"/>
       <use xlink:href="#DejaVuSans-39" transform="translate(127.246094 0)"/>
       <use xlink:href="#DejaVuSans-34" transform="translate(190.869141 0)"/>
      </g>
     </g>
    </g>
    <g id="xtick_2">
     <g id="line2d_3">
      <path d="M 128.413334 367.7575 
L 128.413334 39.3575 
" clip-path="url(#pa4e596e504)" style="fill: none; stroke: #b0b0b0; stroke-opacity: 0.3; stroke-width: 0.5; stroke-linecap: square"/>
     </g>
     <g id="line2d_4">
      <g>
       <use xlink:href="#md3c529b7de" x="128.413334" y="367.7575" style="stroke: #000000; stroke-width: 0.8"/>
      </g>
     </g>
     <g id="text_2">
      <!-- 1996 -->
      <g transform="translate(131.172709 400.2075) rotate(-90) scale(0.1 -0.1)">
       <defs>
        <path id="DejaVuSans-36" d="M 2113 2584 
Q 1688 2584 1439 2293 
Q 1191 2003 1191 1497 
Q 1191 994 1439 701 
Q 1688 409 2113 409 
Q 2538 409 2786 701 
Q 3034 994 3034 1497 
Q 3034 2003 2786 2293 
Q 2538 2584 2113 2584 
z
M 3366 4563 
L 3366 3988 
Q 3128 4100 2886 4159 
Q 2644 4219 2406 4219 
Q 1781 4219 1451 3797 
Q 1122 3375 1075 2522 
Q 1259 2794 1537 2939 
Q 1816 3084 2150 3084 
Q 2853 3084 3261 2657 
Q 3669 2231 3669 1497 
Q 3669 778 3244 343 
Q 2819 -91 2113 -91 
Q 1303 -91 875 529 
Q 447 1150 447 2328 
Q 447 3434 972 4092 
Q 1497 4750 2381 4750 
Q 2619 4750 2861 4703 
Q 3103 4656 3366 4563 
z
" transform="scale(0.015625)"/>
       </defs>
       <use xlink:href="#DejaVuSans-31"/>
       <use xlink:href="#DejaVuSans-39" transform="translate(63.623047 0)"/>
       <use xlink:href="#DejaVuSans-39" transform="translate(127.246094 0)"/>
       <use xlink:href="#DejaVuSans-36" transform="translate(190.869141 0)"/>
      </g>
     </g>
    </g>
    <g id="xtick_3">
     <g id="line2d_5">
      <path d="M 174.499941 367.7575 
L 174.499941 39.3575 
" clip-path="url(#pa4e596e504)" style="fill: none; stroke: #b0b0b0; stroke-opacity: 0.3; stroke-width: 0.5; stroke-linecap: square"/>
     </g>
     <g id="line2d_6">
      <g>
       <use xlink:href="#md3c529b7de" x="174.499941" y="367.7575" style="stroke: #000000; stroke-width: 0.8"/>
      </g>
     </g>
     <g id="text_3">
      <!-- 1998 -->
      <g transform="translate(177.259316 400.2075) rotate(-90) scale(0.1 -0.1)">
       <defs>
        <path id="DejaVuSans-38" d="M 2034 2216 
Q 1584 2216 1326 1975 
Q 1069 1734 1069 1313 
Q 1069 891 1326 650 
Q 1584 409 2034 409 
Q 2484 409 2743 651 
Q 3003 894 3003 1313 
Q 3003 1734 2745 1975 
Q 2488 2216 2034 2216 
z
M 1403 2484 
Q 997 2584 770 2862 
Q 544 3141 544 3541 
Q 544 4100 942 4425 
Q 1341 4750 2034 4750 
Q 2731 4750 3128 4425 
Q 3525 4100 3525 3541 
Q 3525 3141 3298 2862 
Q 3072 2584 2669 2484 
Q 3125 2378 3379 2068 
Q 3634 1759 3634 1313 
Q 3634 634 3220 271 
Q 2806 -91 2034 -91 
Q 1263 -91 848 271 
Q 434 634 434 1313 
Q 434 1759 690 2068 
Q 947 2378 1403 2484 
z
M 1172 3481 
Q 1172 3119 1398 2916 
Q 1625 2713 2034 2713 
Q 2441 2713 2670 2916 
Q 2900 3119 2900 3481 
Q 2900 3844 2670 4047 
Q 2441 4250 2034 4250 
Q 1625 4250 1398 4047 
Q 1172 3844 1172 3481 
z
" transform="scale(0.015625)"/>
       </defs>
       <use xlink:href="#DejaVuSans-31"/>
       <use xlink:href="#DejaVuSans-39" transform="translate(63.623047 0)"/>
       <use xlink:href="#DejaVuSans-39" transform="translate(127.246094 0)"/>
       <use xlink:href="#DejaVuSans-38" transform="translate(190.869141 0)"/>
      </g>
     </g>
    </g>
    <g id="xtick_4">
     <g id="line2d_7">
      <path d="M 220.64968 367.7575 
L 220.64968 39.3575 
" clip-path="url(#pa4e596e504)" style="fill: none; stroke: #b0b0b0; stroke-opacity: 0.3; stroke-width: 0.5; stroke-linecap: square"/>
     </g>
     <g id="line2d_8">
      <g>
       <use xlink:href="#md3c529b7de" x="220.64968" y="367.7575" style="stroke: #000000; stroke-width: 0.8"/>
      </g>
     </g>
     <g id="text_4">
      <!-- 2000 -->
      <g transform="translate(223.409055 400.2075) rotate(-90) scale(0.1 -0.1)">
       <defs>
        <path id="DejaVuSans-32" d="M 1228 531 
L 3431 531 
L 3431 0 
L 469 0 
L 469 531 
Q 828 903 1448 1529 
Q 2069 2156 2228 2338 
Q 2531 2678 2651 2914 
Q 2772 3150 2772 3378 
Q 2772 3750 2511 3984 
Q 2250 4219 1831 4219 
Q 1534 4219 1204 4116 
Q 875 4013 500 3803 
L 500 4441 
Q 881 4594 1212 4672 
Q 1544 4750 1819 4750 
Q 2544 4750 2975 4387 
Q 3406 4025 3406 3419 
Q 3406 3131 3298 2873 
Q 3191 2616 2906 2266 
Q 2828 2175 2409 1742 
Q 1991 1309 1228 531 
z
" transform="scale(0.015625)"/>
        <path id="DejaVuSans-30" d="M 2034 4250 
Q 1547 4250 1301 3770 
Q 1056 3291 1056 2328 
Q 1056 1369 1301 889 
Q 1547 409 2034 409 
Q 2525 409 2770 889 
Q 3016 1369 3016 2328 
Q 3016 3291 2770 3770 
Q 2525 4250 2034 4250 
z
M 2034 4750 
Q 2819 4750 3233 4129 
Q 3647 3509 3647 2328 
Q 3647 1150 3233 529 
Q 2819 -91 2034 -91 
Q 1250 -91 836 529 
Q 422 1150 422 2328 
Q 422 3509 836 4129 
Q 1250 4750 2034 4750 
z
" transform="scale(0.015625)"/>
       </defs>
       <use xlink:href="#DejaVuSans-32"/>
       <use xlink:href="#DejaVuSans-30" transform="translate(63.623047 0)"/>
       <use xlink:href="#DejaVuSans-30" transform="translate(127.246094 0)"/>
       <use xlink:href="#DejaVuSans-30" transform="translate(190.869141 0)"/>
      </g>
     </g>
    </g>
    <g id="xtick_5">
     <g id="line2d_9">
      <path d="M 266.736287 367.7575 
L 266.736287 39.3575 
" clip-path="url(#pa4e596e504)" style="fill: none; stroke: #b0b0b0; stroke-opacity: 0.3; stroke-width: 0.5; stroke-linecap: square"/>
     </g>
     <g id="line2d_10">
      <g>
       <use xlink:href="#md3c529b7de" x="266.736287" y="367.7575" style="stroke: #000000; stroke-width: 0.8"/>
      </g>
     </g>
     <g id="text_5">
      <!-- 2002 -->
      <g transform="translate(269.495662 400.2075) rotate(-90) scale(0.1 -0.1)">
       <use xlink:href="#DejaVuSans-32"/>
       <use xlink:href="#DejaVuSans-30" transform="translate(63.623047 0)"/>
       <use xlink:href="#DejaVuSans-30" transform="translate(127.246094 0)"/>
       <use xlink:href="#DejaVuSans-32" transform="translate(190.869141 0)"/>
      </g>
     </g>
    </g>
    <g id="xtick_6">
     <g id="line2d_11">
      <path d="M 312.886027 367.7575 
L 312.886027 39.3575 
" clip-path="url(#pa4e596e504)" style="fill: none; stroke: #b0b0b0; stroke-opacity: 0.3; stroke-width: 0.5; stroke-linecap: square"/>
     </g>
     <g id="line2d_12">
      <g>
       <use xlink:href="#md3c529b7de" x="312.886027" y="367.7575" style="stroke: #000000; stroke-width: 0.8"/>
      </g>
     </g>
     <g id="text_6">
      <!-- 2004 -->
      <g transform="translate(315.645402 400.2075) rotate(-90) scale(0.1 -0.1)">
       <use xlink:href="#DejaVuSans-32"/>
       <use xlink:href="#DejaVuSans-30" transform="translate(63.623047 0)"/>
       <use xlink:href="#DejaVuSans-30" transform="translate(127.246094 0)"/>
       <use xlink:href="#DejaVuSans-34" transform="translate(190.869141 0)"/>
      </g>
     </g>
    </g>
    <g id="xtick_7">
     <g id="line2d_13">
      <path d="M 358.972634 367.7575 
L 358.972634 39.3575 
" clip-path="url(#pa4e596e504)" style="fill: none; stroke: #b0b0b0; stroke-opacity: 0.3; stroke-width: 0.5; stroke-linecap: square"/>
     </g>
     <g id="line2d_14">
      <g>
       <use xlink:href="#md3c529b7de" x="358.972634" y="367.7575" style="stroke: #000000; stroke-width: 0.8"/>
      </g>
     </g>
     <g id="text_7">
      <!-- 2006 -->
      <g transform="translate(361.732009 400.2075) rotate(-90) scale(0.1 -0.1)">
       <use xlink:href="#DejaVuSans-32"/>
       <use xlink:href="#DejaVuSans-30" transform="translate(63.623047 0)"/>
       <use xlink:href="#DejaVuSans-30" transform="translate(127.246094 0)"/>
       <use xlink:href="#DejaVuSans-36" transform="translate(190.869141 0)"/>
      </g>
     </g>
    </g>
    <g id="xtick_8">
     <g id="line2d_15">
      <path d="M 405.122373 367.7575 
L 405.122373 39.3575 
" clip-path="url(#pa4e596e504)" style="fill: none; stroke: #b0b0b0; stroke-opacity: 0.3; stroke-width: 0.5; stroke-linecap: square"/>
     </g>
     <g id="line2d_16">
      <g>
       <use xlink:href="#md3c529b7de" x="405.122373" y="367.7575" style="stroke: #000000; stroke-width: 0.8"/>
      </g>
     </g>
     <g id="text_8">
      <!-- 2008 -->
      <g transform="translate(407.881748 400.2075) rotate(-90) scale(0.1 -0.1)">
       <use xlink:href="#DejaVuSans-32"/>
       <use xlink:href="#DejaVuSans-30" transform="translate(63.623047 0)"/>
       <use xlink:href="#DejaVuSans-30" transform="translate(127.246094 0)"/>
       <use xlink:href="#DejaVuSans-38" transform="translate(190.869141 0)"/>
      </g>
     </g>
    </g>
    <g id="xtick_9">
     <g id="line2d_17">
      <path d="M 451.208981 367.7575 
L 451.208981 39.3575 
" clip-path="url(#pa4e596e504)" style="fill: none; stroke: #b0b0b0; stroke-opacity: 0.3; stroke-width: 0.5; stroke-linecap: square"/>
     </g>
     <g id="line2d_18">
      <g>
       <use xlink:href="#md3c529b7de" x="451.208981" y="367.7575" style="stroke: #000000; stroke-width: 0.8"/>
      </g>
     </g>
     <g id="text_9">
      <!-- 2010 -->
      <g transform="translate(453.968356 400.2075) rotate(-90) scale(0.1 -0.1)">
       <use xlink:href="#DejaVuSans-32"/>
       <use xlink:href="#DejaVuSans-30" transform="translate(63.623047 0)"/>
       <use xlink:href="#DejaVuSans-31" transform="translate(127.246094 0)"/>
       <use xlink:href="#DejaVuSans-30" transform="translate(190.869141 0)"/>
      </g>
     </g>
    </g>
    <g id="xtick_10">
     <g id="line2d_19">
      <path d="M 497.35872 367.7575 
L 497.35872 39.3575 
" clip-path="url(#pa4e596e504)" style="fill: none; stroke: #b0b0b0; stroke-opacity: 0.3; stroke-width: 0.5; stroke-linecap: square"/>
     </g>
     <g id="line2d_20">
      <g>
       <use xlink:href="#md3c529b7de" x="497.35872" y="367.7575" style="stroke: #000000; stroke-width: 0.8"/>
      </g>
     </g>
     <g id="text_10">
      <!-- 2012 -->
      <g transform="translate(500.118095 400.2075) rotate(-90) scale(0.1 -0.1)">
       <use xlink:href="#DejaVuSans-32"/>
       <use xlink:href="#DejaVuSans-30" transform="translate(63.623047 0)"/>
       <use xlink:href="#DejaVuSans-31" transform="translate(127.246094 0)"/>
       <use xlink:href="#DejaVuSans-32" transform="translate(190.869141 0)"/>
      </g>
     </g>
    </g>
    <g id="xtick_11">
     <g id="line2d_21">
      <path d="M 543.445327 367.7575 
L 543.445327 39.3575 
" clip-path="url(#pa4e596e504)" style="fill: none; stroke: #b0b0b0; stroke-opacity: 0.3; stroke-width: 0.5; stroke-linecap: square"/>
     </g>
     <g id="line2d_22">
      <g>
       <use xlink:href="#md3c529b7de" x="543.445327" y="367.7575" style="stroke: #000000; stroke-width: 0.8"/>
      </g>
     </g>
     <g id="text_11">
      <!-- 2014 -->
      <g transform="translate(546.204702 400.2075) rotate(-90) scale(0.1 -0.1)">
       <use xlink:href="#DejaVuSans-32"/>
       <use xlink:href="#DejaVuSans-30" transform="translate(63.623047 0)"/>
       <use xlink:href="#DejaVuSans-31" transform="translate(127.246094 0)"/>
       <use xlink:href="#DejaVuSans-34" transform="translate(190.869141 0)"/>
      </g>
     </g>
    </g>
    <g id="xtick_12">
     <g id="line2d_23">
      <path d="M 589.595067 367.7575 
L 589.595067 39.3575 
" clip-path="url(#pa4e596e504)" style="fill: none; stroke: #b0b0b0; stroke-opacity: 0.3; stroke-width: 0.5; stroke-linecap: square"/>
     </g>
     <g id="line2d_24">
      <g>
       <use xlink:href="#md3c529b7de" x="589.595067" y="367.7575" style="stroke: #000000; stroke-width: 0.8"/>
      </g>
     </g>
     <g id="text_12">
      <!-- 2016 -->
      <g transform="translate(592.354442 400.2075) rotate(-90) scale(0.1 -0.1)">
       <use xlink:href="#DejaVuSans-32"/>
       <use xlink:href="#DejaVuSans-30" transform="translate(63.623047 0)"/>
       <use xlink:href="#DejaVuSans-31" transform="translate(127.246094 0)"/>
       <use xlink:href="#DejaVuSans-36" transform="translate(190.869141 0)"/>
      </g>
     </g>
    </g>
    <g id="xtick_13">
     <g id="line2d_25">
      <path d="M 635.681674 367.7575 
L 635.681674 39.3575 
" clip-path="url(#pa4e596e504)" style="fill: none; stroke: #b0b0b0; stroke-opacity: 0.3; stroke-width: 0.5; stroke-linecap: square"/>
     </g>
     <g id="line2d_26">
      <g>
       <use xlink:href="#md3c529b7de" x="635.681674" y="367.7575" style="stroke: #000000; stroke-width: 0.8"/>
      </g>
     </g>
     <g id="text_13">
      <!-- 2018 -->
      <g transform="translate(638.441049 400.2075) rotate(-90) scale(0.1 -0.1)">
       <use xlink:href="#DejaVuSans-32"/>
       <use xlink:href="#DejaVuSans-30" transform="translate(63.623047 0)"/>
       <use xlink:href="#DejaVuSans-31" transform="translate(127.246094 0)"/>
       <use xlink:href="#DejaVuSans-38" transform="translate(190.869141 0)"/>
      </g>
     </g>
    </g>
    <g id="xtick_14">
     <g id="line2d_27">
      <path d="M 681.831413 367.7575 
L 681.831413 39.3575 
" clip-path="url(#pa4e596e504)" style="fill: none; stroke: #b0b0b0; stroke-opacity: 0.3; stroke-width: 0.5; stroke-linecap: square"/>
     </g>
     <g id="line2d_28">
      <g>
       <use xlink:href="#md3c529b7de" x="681.831413" y="367.7575" style="stroke: #000000; stroke-width: 0.8"/>
      </g>
     </g>
     <g id="text_14">
      <!-- 2020 -->
      <g transform="translate(684.590788 400.2075) rotate(-90) scale(0.1 -0.1)">
       <use xlink:href="#DejaVuSans-32"/>
       <use xlink:href="#DejaVuSans-30" transform="translate(63.623047 0)"/>
       <use xlink:href="#DejaVuSans-32" transform="translate(127.246094 0)"/>
       <use xlink:href="#DejaVuSans-30" transform="translate(190.869141 0)"/>
      </g>
     </g>
    </g>
    <g id="text_15">
     <!-- Date -->
     <g transform="translate(366.479922 414.085469) scale(0.13 -0.13)">
      <defs>
       <path id="DejaVuSans-44" d="M 1259 4147 
L 1259 519 
L 2022 519 
Q 2988 519 3436 956 
Q 3884 1394 3884 2338 
Q 3884 3275 3436 3711 
Q 2988 4147 2022 4147 
L 1259 4147 
z
M 628 4666 
L 1925 4666 
Q 3281 4666 3915 4102 
Q 4550 3538 4550 2338 
Q 4550 1131 3912 565 
Q 3275 0 1925 0 
L 628 0 
L 628 4666 
z
" transform="scale(0.015625)"/>
       <path id="DejaVuSans-61" d="M 2194 1759 
Q 1497 1759 1228 1600 
Q 959 1441 959 1056 
Q 959 750 1161 570 
Q 1363 391 1709 391 
Q 2188 391 2477 730 
Q 2766 1069 2766 1631 
L 2766 1759 
L 2194 1759 
z
M 3341 1997 
L 3341 0 
L 2766 0 
L 2766 531 
Q 2569 213 2275 61 
Q 1981 -91 1556 -91 
Q 1019 -91 701 211 
Q 384 513 384 1019 
Q 384 1609 779 1909 
Q 1175 2209 1959 2209 
L 2766 2209 
L 2766 2266 
Q 2766 2663 2505 2880 
Q 2244 3097 1772 3097 
Q 1472 3097 1187 3025 
Q 903 2953 641 2809 
L 641 3341 
Q 956 3463 1253 3523 
Q 1550 3584 1831 3584 
Q 2591 3584 2966 3190 
Q 3341 2797 3341 1997 
z
" transform="scale(0.015625)"/>
       <path id="DejaVuSans-74" d="M 1172 4494 
L 1172 3500 
L 2356 3500 
L 2356 3053 
L 1172 3053 
L 1172 1153 
Q 1172 725 1289 603 
Q 1406 481 1766 481 
L 2356 481 
L 2356 0 
L 1766 0 
Q 1100 0 847 248 
Q 594 497 594 1153 
L 594 3053 
L 172 3053 
L 172 3500 
L 594 3500 
L 594 4494 
L 1172 4494 
z
" transform="scale(0.015625)"/>
       <path id="DejaVuSans-65" d="M 3597 1894 
L 3597 1613 
L 953 1613 
Q 991 1019 1311 708 
Q 1631 397 2203 397 
Q 2534 397 2845 478 
Q 3156 559 3463 722 
L 3463 178 
Q 3153 47 2828 -22 
Q 2503 -91 2169 -91 
Q 1331 -91 842 396 
Q 353 884 353 1716 
Q 353 2575 817 3079 
Q 1281 3584 2069 3584 
Q 2775 3584 3186 3129 
Q 3597 2675 3597 1894 
z
M 3022 2063 
Q 3016 2534 2758 2815 
Q 2500 3097 2075 3097 
Q 1594 3097 1305 2825 
Q 1016 2553 972 2059 
L 3022 2063 
z
" transform="scale(0.015625)"/>
      </defs>
      <use xlink:href="#DejaVuSans-44"/>
      <use xlink:href="#DejaVuSans-61" transform="translate(77.001953 0)"/>
      <use xlink:href="#DejaVuSans-74" transform="translate(138.28125 0)"/>
      <use xlink:href="#DejaVuSans-65" transform="translate(177.490234 0)"/>
     </g>
    </g>
   </g>
   <g id="matplotlib.axis_2">
    <g id="ytick_1">
     <g id="line2d_29">
      <path d="M 59.409688 367.7575 
L 704.622187 367.7575 
" clip-path="url(#pa4e596e504)" style="fill: none; stroke: #b0b0b0; stroke-opacity: 0.3; stroke-width: 0.5; stroke-linecap: square"/>
     </g>
     <g id="line2d_30">
      <defs>
       <path id="mf705361763" d="M 0 0 
L -3.5 0 
" style="stroke: #000000; stroke-width: 0.8"/>
      </defs>
      <g>
       <use xlink:href="#mf705361763" x="59.409688" y="367.7575" style="stroke: #000000; stroke-width: 0.8"/>
      </g>
     </g>
     <g id="text_16">
      <!-- $0.00 -->
      <g transform="translate(23.781563 371.556719) scale(0.1 -0.1)">
       <defs>
        <path id="DejaVuSans-24" d="M 2163 -941 
L 1850 -941 
L 1847 0 
Q 1519 6 1191 76 
Q 863 147 531 288 
L 531 850 
Q 850 650 1176 548 
Q 1503 447 1850 444 
L 1850 1869 
Q 1159 1981 845 2250 
Q 531 2519 531 2988 
Q 531 3497 872 3790 
Q 1213 4084 1850 4128 
L 1850 4863 
L 2163 4863 
L 2163 4138 
Q 2453 4125 2725 4076 
Q 2997 4028 3256 3944 
L 3256 3397 
Q 2997 3528 2723 3600 
Q 2450 3672 2163 3684 
L 2163 2350 
Q 2872 2241 3206 1959 
Q 3541 1678 3541 1191 
Q 3541 663 3186 358 
Q 2831 53 2163 6 
L 2163 -941 
z
M 1850 2406 
L 1850 3688 
Q 1488 3647 1297 3481 
Q 1106 3316 1106 3041 
Q 1106 2772 1282 2622 
Q 1459 2472 1850 2406 
z
M 2163 1806 
L 2163 453 
Q 2559 506 2761 678 
Q 2963 850 2963 1131 
Q 2963 1406 2770 1568 
Q 2578 1731 2163 1806 
z
" transform="scale(0.015625)"/>
        <path id="DejaVuSans-2e" d="M 684 794 
L 1344 794 
L 1344 0 
L 684 0 
L 684 794 
z
" transform="scale(0.015625)"/>
       </defs>
       <use xlink:href="#DejaVuSans-24"/>
       <use xlink:href="#DejaVuSans-30" transform="translate(63.623047 0)"/>
       <use xlink:href="#DejaVuSans-2e" transform="translate(127.246094 0)"/>
       <use xlink:href="#DejaVuSans-30" transform="translate(159.033203 0)"/>
       <use xlink:href="#DejaVuSans-30" transform="translate(222.65625 0)"/>
      </g>
     </g>
    </g>
    <g id="ytick_2">
     <g id="line2d_31">
      <path d="M 59.409688 334.9175 
L 704.622187 334.9175 
" clip-path="url(#pa4e596e504)" style="fill: none; stroke: #b0b0b0; stroke-opacity: 0.3; stroke-width: 0.5; stroke-linecap: square"/>
     </g>
     <g id="line2d_32">
      <g>
       <use xlink:href="#mf705361763" x="59.409688" y="334.9175" style="stroke: #000000; stroke-width: 0.8"/>
      </g>
     </g>
     <g id="text_17">
      <!-- $0.50 -->
      <g transform="translate(23.781563 338.716719) scale(0.1 -0.1)">
       <defs>
        <path id="DejaVuSans-35" d="M 691 4666 
L 3169 4666 
L 3169 4134 
L 1269 4134 
L 1269 2991 
Q 1406 3038 1543 3061 
Q 1681 3084 1819 3084 
Q 2600 3084 3056 2656 
Q 3513 2228 3513 1497 
Q 3513 744 3044 326 
Q 2575 -91 1722 -91 
Q 1428 -91 1123 -41 
Q 819 9 494 109 
L 494 744 
Q 775 591 1075 516 
Q 1375 441 1709 441 
Q 2250 441 2565 725 
Q 2881 1009 2881 1497 
Q 2881 1984 2565 2268 
Q 2250 2553 1709 2553 
Q 1456 2553 1204 2497 
Q 953 2441 691 2322 
L 691 4666 
z
" transform="scale(0.015625)"/>
       </defs>
       <use xlink:href="#DejaVuSans-24"/>
       <use xlink:href="#DejaVuSans-30" transform="translate(63.623047 0)"/>
       <use xlink:href="#DejaVuSans-2e" transform="translate(127.246094 0)"/>
       <use xlink:href="#DejaVuSans-35" transform="translate(159.033203 0)"/>
       <use xlink:href="#DejaVuSans-30" transform="translate(222.65625 0)"/>
      </g>
     </g>
    </g>
    <g id="ytick_3">
     <g id="line2d_33">
      <path d="M 59.409688 302.0775 
L 704.622187 302.0775 
" clip-path="url(#pa4e596e504)" style="fill: none; stroke: #b0b0b0; stroke-opacity: 0.3; stroke-width: 0.5; stroke-linecap: square"/>
     </g>
     <g id="line2d_34">
      <g>
       <use xlink:href="#mf705361763" x="59.409688" y="302.0775" style="stroke: #000000; stroke-width: 0.8"/>
      </g>
     </g>
     <g id="text_18">
      <!-- $1.00 -->
      <g transform="translate(23.781563 305.876719) scale(0.1 -0.1)">
       <use xlink:href="#DejaVuSans-24"/>
       <use xlink:href="#DejaVuSans-31" transform="translate(63.623047 0)"/>
       <use xlink:href="#DejaVuSans-2e" transform="translate(127.246094 0)"/>
       <use xlink:href="#DejaVuSans-30" transform="translate(159.033203 0)"/>
       <use xlink:href="#DejaVuSans-30" transform="translate(222.65625 0)"/>
      </g>
     </g>
    </g>
    <g id="ytick_4">
     <g id="line2d_35">
      <path d="M 59.409688 269.2375 
L 704.622187 269.2375 
" clip-path="url(#pa4e596e504)" style="fill: none; stroke: #b0b0b0; stroke-opacity: 0.3; stroke-width: 0.5; stroke-linecap: square"/>
     </g>
     <g id="line2d_36">
      <g>
       <use xlink:href="#mf705361763" x="59.409688" y="269.2375" style="stroke: #000000; stroke-width: 0.8"/>
      </g>
     </g>
     <g id="text_19">
      <!-- $1.50 -->
      <g transform="translate(23.781563 273.036719) scale(0.1 -0.1)">
       <use xlink:href="#DejaVuSans-24"/>
       <use xlink:href="#DejaVuSans-31" transform="translate(63.623047 0)"/>
       <use xlink:href="#DejaVuSans-2e" transform="translate(127.246094 0)"/>
       <use xlink:href="#DejaVuSans-35" transform="translate(159.033203 0)"/>
       <use xlink:href="#DejaVuSans-30" transform="translate(222.65625 0)"/>
      </g>
     </g>
    </g>
    <g id="ytick_5">
     <g id="line2d_37">
      <path d="M 59.409688 236.3975 
L 704.622187 236.3975 
" clip-path="url(#pa4e596e504)" style="fill: none; stroke: #b0b0b0; stroke-opacity: 0.3; stroke-width: 0.5; stroke-linecap: square"/>
     </g>
     <g id="line2d_38">
      <g>
       <use xlink:href="#mf705361763" x="59.409688" y="236.3975" style="stroke: #000000; stroke-width: 0.8"/>
      </g>
     </g>
     <g id="text_20">
      <!-- $2.00 -->
      <g transform="translate(23.781563 240.196719) scale(0.1 -0.1)">
       <use xlink:href="#DejaVuSans-24"/>
       <use xlink:href="#DejaVuSans-32" transform="translate(63.623047 0)"/>
       <use xlink:href="#DejaVuSans-2e" transform="translate(127.246094 0)"/>
       <use xlink:href="#DejaVuSans-30" transform="translate(159.033203 0)"/>
       <use xlink:href="#DejaVuSans-30" transform="translate(222.65625 0)"/>
      </g>
     </g>
    </g>
    <g id="ytick_6">
     <g id="line2d_39">
      <path d="M 59.409688 203.5575 
L 704.622187 203.5575 
" clip-path="url(#pa4e596e504)" style="fill: none; stroke: #b0b0b0; stroke-opacity: 0.3; stroke-width: 0.5; stroke-linecap: square"/>
     </g>
     <g id="line2d_40">
      <g>
       <use xlink:href="#mf705361763" x="59.409688" y="203.5575" style="stroke: #000000; stroke-width: 0.8"/>
      </g>
     </g>
     <g id="text_21">
      <!-- $2.50 -->
      <g transform="translate(23.781563 207.356719) scale(0.1 -0.1)">
       <use xlink:href="#DejaVuSans-24"/>
       <use xlink:href="#DejaVuSans-32" transform="translate(63.623047 0)"/>
       <use xlink:href="#DejaVuSans-2e" transform="translate(127.246094 0)"/>
       <use xlink:href="#DejaVuSans-35" transform="translate(159.033203 0)"/>
       <use xlink:href="#DejaVuSans-30" transform="translate(222.65625 0)"/>
      </g>
     </g>
    </g>
    <g id="ytick_7">
     <g id="line2d_41">
      <path d="M 59.409688 170.7175 
L 704.622187 170.7175 
" clip-path="url(#pa4e596e504)" style="fill: none; stroke: #b0b0b0; stroke-opacity: 0.3; stroke-width: 0.5; stroke-linecap: square"/>
     </g>
     <g id="line2d_42">
      <g>
       <use xlink:href="#mf705361763" x="59.409688" y="170.7175" style="stroke: #000000; stroke-width: 0.8"/>
      </g>
     </g>
     <g id="text_22">
      <!-- $3.00 -->
      <g transform="translate(23.781563 174.516719) scale(0.1 -0.1)">
       <defs>
        <path id="DejaVuSans-33" d="M 2597 2516 
Q 3050 2419 3304 2112 
Q 3559 1806 3559 1356 
Q 3559 666 3084 287 
Q 2609 -91 1734 -91 
Q 1441 -91 1130 -33 
Q 819 25 488 141 
L 488 750 
Q 750 597 1062 519 
Q 1375 441 1716 441 
Q 2309 441 2620 675 
Q 2931 909 2931 1356 
Q 2931 1769 2642 2001 
Q 2353 2234 1838 2234 
L 1294 2234 
L 1294 2753 
L 1863 2753 
Q 2328 2753 2575 2939 
Q 2822 3125 2822 3475 
Q 2822 3834 2567 4026 
Q 2313 4219 1838 4219 
Q 1578 4219 1281 4162 
Q 984 4106 628 3988 
L 628 4550 
Q 988 4650 1302 4700 
Q 1616 4750 1894 4750 
Q 2613 4750 3031 4423 
Q 3450 4097 3450 3541 
Q 3450 3153 3228 2886 
Q 3006 2619 2597 2516 
z
" transform="scale(0.015625)"/>
       </defs>
       <use xlink:href="#DejaVuSans-24"/>
       <use xlink:href="#DejaVuSans-33" transform="translate(63.623047 0)"/>
       <use xlink:href="#DejaVuSans-2e" transform="translate(127.246094 0)"/>
       <use xlink:href="#DejaVuSans-30" transform="translate(159.033203 0)"/>
       <use xlink:href="#DejaVuSans-30" transform="translate(222.65625 0)"/>
      </g>
     </g>
    </g>
    <g id="ytick_8">
     <g id="line2d_43">
      <path d="M 59.409688 137.8775 
L 704.622187 137.8775 
" clip-path="url(#pa4e596e504)" style="fill: none; stroke: #b0b0b0; stroke-opacity: 0.3; stroke-width: 0.5; stroke-linecap: square"/>
     </g>
     <g id="line2d_44">
      <g>
       <use xlink:href="#mf705361763" x="59.409688" y="137.8775" style="stroke: #000000; stroke-width: 0.8"/>
      </g>
     </g>
     <g id="text_23">
      <!-- $3.50 -->
      <g transform="translate(23.781563 141.676719) scale(0.1 -0.1)">
       <use xlink:href="#DejaVuSans-24"/>
       <use xlink:href="#DejaVuSans-33" transform="translate(63.623047 0)"/>
       <use xlink:href="#DejaVuSans-2e" transform="translate(127.246094 0)"/>
       <use xlink:href="#DejaVuSans-35" transform="translate(159.033203 0)"/>
       <use xlink:href="#DejaVuSans-30" transform="translate(222.65625 0)"/>
      </g>
     </g>
    </g>
    <g id="ytick_9">
     <g id="line2d_45">
      <path d="M 59.409688 105.0375 
L 704.622187 105.0375 
" clip-path="url(#pa4e596e504)" style="fill: none; stroke: #b0b0b0; stroke-opacity: 0.3; stroke-width: 0.5; stroke-linecap: square"/>
     </g>
     <g id="line2d_46">
      <g>
       <use xlink:href="#mf705361763" x="59.409688" y="105.0375" style="stroke: #000000; stroke-width: 0.8"/>
      </g>
     </g>
     <g id="text_24">
      <!-- $4.00 -->
      <g transform="translate(23.781563 108.836719) scale(0.1 -0.1)">
       <use xlink:href="#DejaVuSans-24"/>
       <use xlink:href="#DejaVuSans-34" transform="translate(63.623047 0)"/>
       <use xlink:href="#DejaVuSans-2e" transform="translate(127.246094 0)"/>
       <use xlink:href="#DejaVuSans-30" transform="translate(159.033203 0)"/>
       <use xlink:href="#DejaVuSans-30" transform="translate(222.65625 0)"/>
      </g>
     </g>
    </g>
    <g id="ytick_10">
     <g id="line2d_47">
      <path d="M 59.409688 72.1975 
L 704.622187 72.1975 
" clip-path="url(#pa4e596e504)" style="fill: none; stroke: #b0b0b0; stroke-opacity: 0.3; stroke-width: 0.5; stroke-linecap: square"/>
     </g>
     <g id="line2d_48">
      <g>
       <use xlink:href="#mf705361763" x="59.409688" y="72.1975" style="stroke: #000000; stroke-width: 0.8"/>
      </g>
     </g>
     <g id="text_25">
      <!-- $4.50 -->
      <g transform="translate(23.781563 75.996719) scale(0.1 -0.1)">
       <use xlink:href="#DejaVuSans-24"/>
       <use xlink:href="#DejaVuSans-34" transform="translate(63.623047 0)"/>
       <use xlink:href="#DejaVuSans-2e" transform="translate(127.246094 0)"/>
       <use xlink:href="#DejaVuSans-35" transform="translate(159.033203 0)"/>
       <use xlink:href="#DejaVuSans-30" transform="translate(222.65625 0)"/>
      </g>
     </g>
    </g>
    <g id="ytick_11">
     <g id="line2d_49">
      <path d="M 59.409688 39.3575 
L 704.622187 39.3575 
" clip-path="url(#pa4e596e504)" style="fill: none; stroke: #b0b0b0; stroke-opacity: 0.3; stroke-width: 0.5; stroke-linecap: square"/>
     </g>
     <g id="line2d_50">
      <g>
       <use xlink:href="#mf705361763" x="59.409688" y="39.3575" style="stroke: #000000; stroke-width: 0.8"/>
      </g>
     </g>
     <g id="text_26">
      <!-- $5.00 -->
      <g transform="translate(23.781563 43.156719) scale(0.1 -0.1)">
       <use xlink:href="#DejaVuSans-24"/>
       <use xlink:href="#DejaVuSans-35" transform="translate(63.623047 0)"/>
       <use xlink:href="#DejaVuSans-2e" transform="translate(127.246094 0)"/>
       <use xlink:href="#DejaVuSans-30" transform="translate(159.033203 0)"/>
       <use xlink:href="#DejaVuSans-30" transform="translate(222.65625 0)"/>
      </g>
     </g>
    </g>
    <g id="text_27">
     <!-- USD -->
     <g transform="translate(17.077969 217.446172) rotate(-90) scale(0.13 -0.13)">
      <defs>
       <path id="DejaVuSans-55" d="M 556 4666 
L 1191 4666 
L 1191 1831 
Q 1191 1081 1462 751 
Q 1734 422 2344 422 
Q 2950 422 3222 751 
Q 3494 1081 3494 1831 
L 3494 4666 
L 4128 4666 
L 4128 1753 
Q 4128 841 3676 375 
Q 3225 -91 2344 -91 
Q 1459 -91 1007 375 
Q 556 841 556 1753 
L 556 4666 
z
" transform="scale(0.015625)"/>
       <path id="DejaVuSans-53" d="M 3425 4513 
L 3425 3897 
Q 3066 4069 2747 4153 
Q 2428 4238 2131 4238 
Q 1616 4238 1336 4038 
Q 1056 3838 1056 3469 
Q 1056 3159 1242 3001 
Q 1428 2844 1947 2747 
L 2328 2669 
Q 3034 2534 3370 2195 
Q 3706 1856 3706 1288 
Q 3706 609 3251 259 
Q 2797 -91 1919 -91 
Q 1588 -91 1214 -16 
Q 841 59 441 206 
L 441 856 
Q 825 641 1194 531 
Q 1563 422 1919 422 
Q 2459 422 2753 634 
Q 3047 847 3047 1241 
Q 3047 1584 2836 1778 
Q 2625 1972 2144 2069 
L 1759 2144 
Q 1053 2284 737 2584 
Q 422 2884 422 3419 
Q 422 4038 858 4394 
Q 1294 4750 2059 4750 
Q 2388 4750 2728 4690 
Q 3069 4631 3425 4513 
z
" transform="scale(0.015625)"/>
      </defs>
      <use xlink:href="#DejaVuSans-55"/>
      <use xlink:href="#DejaVuSans-53" transform="translate(73.193359 0)"/>
      <use xlink:href="#DejaVuSans-44" transform="translate(136.669922 0)"/>
     </g>
    </g>
   </g>
   <g id="line2d_51">
    <path d="M 59.409688 296.4947 
L 59.851614 297.8083 
L 60.29354 296.03494 
L 60.735467 297.1515 
L 61.177393 297.93966 
L 61.619319 298.39942 
L 62.061246 295.70654 
L 62.503172 297.28286 
L 62.945098 298.00534 
L 63.387025 299.31894 
L 63.828951 296.23198 
L 64.712804 299.71302 
L 65.15473 300.30414 
L 65.596657 296.75742 
L 66.480509 299.51598 
L 66.922436 299.51598 
L 67.364362 295.24678 
L 67.806289 296.10062 
L 68.248215 297.54558 
L 68.690141 297.08582 
L 69.132068 293.2107 
L 69.573994 293.80182 
L 70.01592 293.67046 
L 70.457847 291.83142 
L 70.899773 292.75094 
L 71.341699 289.33558 
L 72.225552 291.37166 
L 72.667479 287.9563 
L 73.109405 286.6427 
L 73.551331 286.70838 
L 73.993258 286.9711 
L 74.435184 282.83326 
L 74.87711 283.55574 
L 76.20289 286.9711 
L 77.528669 291.5687 
L 77.970595 288.08766 
L 78.412521 289.66398 
L 78.854448 290.64918 
L 79.296374 288.35038 
L 80.180227 291.37166 
L 80.622153 289.99238 
L 81.06408 289.53262 
L 81.506006 290.5835 
L 81.947932 292.02846 
L 82.389859 290.51782 
L 82.831785 291.63438 
L 83.273711 293.14502 
L 83.715638 291.10894 
L 84.599491 293.80182 
L 85.041417 292.09414 
L 85.92527 294.39294 
L 86.367196 291.83142 
L 87.251049 294.1959 
L 87.692975 291.17462 
L 88.134902 292.09414 
L 88.576828 289.86102 
L 89.018754 290.32078 
L 89.460681 291.50302 
L 89.902607 288.74446 
L 90.344533 290.05806 
L 90.78646 287.16814 
L 91.228386 288.02198 
L 91.670313 287.75926 
L 92.112239 288.41606 
L 92.554165 287.23382 
L 92.996092 288.08766 
L 93.438018 288.48174 
L 93.879944 287.69358 
L 94.321871 289.07286 
L 94.763797 289.86102 
L 95.205723 288.48174 
L 96.089576 290.84622 
L 96.531503 288.9415 
L 96.973429 289.53262 
L 97.415355 290.64918 
L 97.857282 291.04326 
L 98.299208 288.6131 
L 98.741134 288.87582 
L 99.183061 289.46694 
L 99.624987 287.75926 
L 100.066914 289.13854 
L 100.50884 290.97758 
L 100.950766 291.8971 
L 101.392693 289.40126 
L 102.276545 291.83142 
L 102.718472 288.9415 
L 103.160398 289.86102 
L 103.602324 291.2403 
L 104.044251 289.99238 
L 104.486177 291.2403 
L 104.928104 291.30598 
L 105.37003 292.2255 
L 105.811956 290.97758 
L 106.253883 291.63438 
L 106.695809 293.40774 
L 107.137735 290.97758 
L 107.579662 292.02846 
L 108.021588 293.99886 
L 108.463515 290.18942 
L 108.905441 291.63438 
L 109.347367 288.74446 
L 109.789294 289.9267 
L 110.23122 291.43734 
L 110.673146 287.6279 
L 111.115073 288.02198 
L 111.556999 284.47526 
L 112.440852 283.75278 
L 112.882778 278.82678 
L 113.324705 278.49838 
L 113.766631 279.68062 
L 114.208557 277.38182 
L 114.650484 278.30134 
L 115.534336 281.78238 
L 115.976263 279.28654 
L 116.418189 281.12558 
L 116.860116 280.86286 
L 117.302042 281.78238 
L 117.743968 283.6871 
L 118.185895 281.3883 
L 118.627821 282.7019 
L 119.069747 283.42438 
L 119.511674 280.86286 
L 119.9536 282.50486 
L 120.395527 280.79718 
L 121.279379 282.83326 
L 121.721306 280.53446 
L 122.605158 282.83326 
L 123.047085 280.99422 
L 123.489011 282.11078 
L 123.930938 282.83326 
L 124.372864 280.99422 
L 124.81479 281.7167 
L 125.256717 282.0451 
L 125.698643 279.87766 
L 127.024422 283.22734 
L 127.466348 280.79718 
L 128.350201 283.29302 
L 128.792128 283.88414 
L 129.234054 282.11078 
L 129.67598 282.89894 
L 130.117907 282.11078 
L 130.559833 283.42438 
L 131.001759 282.11078 
L 131.443686 282.96462 
L 131.885612 283.49006 
L 132.327539 282.11078 
L 132.769465 283.29302 
L 133.211391 282.24214 
L 133.653318 283.94982 
L 134.095244 285.13206 
L 134.53717 281.78238 
L 134.979097 282.43918 
L 135.421023 281.19126 
L 136.304876 284.60662 
L 136.746802 281.25694 
L 137.630655 283.94982 
L 138.072581 280.79718 
L 139.39836 285.59182 
L 139.840287 281.91374 
L 140.282213 282.7019 
L 140.72414 281.12558 
L 141.607992 284.14686 
L 142.049919 282.57054 
L 142.491845 282.3735 
L 142.933771 280.60014 
L 143.375698 280.66582 
L 143.817624 281.7167 
L 144.259551 279.0895 
L 145.143403 282.11078 
L 145.58533 283.0303 
L 146.027256 283.22734 
L 146.469182 280.0747 
L 147.353035 282.17646 
L 147.794961 283.29302 
L 148.236888 280.33742 
L 148.678814 281.32262 
L 149.120741 283.3587 
L 149.562667 284.6723 
L 150.004593 281.78238 
L 150.44652 281.58534 
L 152.214225 287.43086 
L 152.656152 285.78886 
L 153.540004 289.53262 
L 154.423857 295.77222 
L 154.865783 292.8823 
L 155.30771 295.77222 
L 156.633489 299.84438 
L 157.075415 296.36334 
L 157.517342 297.02014 
L 157.959268 295.64086 
L 158.401194 295.1811 
L 158.843121 295.44382 
L 159.285047 294.78702 
L 159.726973 292.42254 
L 160.1689 290.78054 
L 161.052753 291.5687 
L 161.494679 288.08766 
L 161.936605 288.9415 
L 162.378532 289.33558 
L 162.820458 290.78054 
L 163.262384 291.37166 
L 164.146237 291.17462 
L 164.588164 291.37166 
L 165.03009 292.09414 
L 165.472016 292.48822 
L 165.913943 291.17462 
L 166.355869 291.50302 
L 166.797795 292.15982 
L 167.239722 293.14502 
L 167.681648 292.09414 
L 168.123574 292.29118 
L 168.565501 293.2107 
L 169.007427 293.5391 
L 169.449354 292.35686 
L 169.89128 293.01366 
L 170.333206 293.14502 
L 171.217059 294.1959 
L 171.658985 292.81662 
L 172.542838 295.04974 
L 172.984765 296.88878 
L 173.868617 301.28934 
L 174.310544 302.14318 
L 174.75247 302.47158 
L 175.194396 302.53726 
L 175.636323 301.81478 
L 176.078249 302.20886 
L 176.520176 301.94614 
L 176.962102 302.4059 
L 177.404028 302.14318 
L 177.845955 302.01182 
L 178.287881 302.01182 
L 178.729807 301.68342 
L 179.171734 298.85918 
L 179.61366 297.02014 
L 180.055586 291.63438 
L 180.497513 288.54742 
L 180.939439 286.9711 
L 181.381366 286.51134 
L 181.823292 286.51134 
L 182.265218 286.18294 
L 182.707145 284.73798 
L 183.590997 285.13206 
L 184.032924 285.92022 
L 184.47485 286.37998 
L 184.916777 286.6427 
L 185.358703 286.44566 
L 185.800629 285.92022 
L 186.242556 285.78886 
L 186.684482 285.92022 
L 187.126408 284.08118 
L 187.568335 281.51966 
L 188.010261 280.79718 
L 188.894114 277.31614 
L 189.33604 275.87118 
L 191.103746 275.34574 
L 192.429525 276.33094 
L 192.871451 276.39662 
L 194.19723 278.4327 
L 194.639157 278.49838 
L 195.081083 279.02382 
L 195.523009 279.15518 
L 195.964936 278.36702 
L 196.406862 278.23566 
L 197.290715 279.28654 
L 197.732641 279.54926 
L 198.616494 280.79718 
L 199.05842 280.79718 
L 199.500347 278.56406 
L 199.942273 278.56406 
L 200.384199 277.51318 
L 201.268052 274.1635 
L 202.151905 266.01918 
L 202.593831 263.72038 
L 203.035758 263.39198 
L 203.477684 263.58902 
L 203.91961 264.24582 
L 205.687316 268.84342 
L 206.571169 266.2819 
L 207.013095 266.08486 
L 207.455021 265.23102 
L 207.896948 263.72038 
L 208.338874 261.0275 
L 208.780801 259.77958 
L 209.222727 259.91094 
L 209.664653 258.66302 
L 210.10658 259.3855 
L 210.990432 261.55294 
L 211.874285 263.52334 
L 212.316211 263.85174 
L 212.758138 263.26062 
L 213.200064 263.19494 
L 214.083917 258.86006 
L 214.525843 258.7287 
L 215.409696 260.10798 
L 215.851622 260.0423 
L 216.293549 259.18846 
L 216.735475 258.00622 
L 217.177402 258.79438 
L 218.945107 263.12926 
L 219.82896 268.12094 
L 220.712813 271.01086 
L 221.154739 271.2079 
L 221.596665 271.60198 
L 222.038592 271.73334 
L 222.480518 271.73334 
L 222.922444 270.5511 
L 223.364371 270.5511 
L 224.69015 271.79902 
L 225.132076 270.81382 
L 225.574003 271.33926 
L 226.015929 270.94518 
L 227.341708 266.21622 
L 228.667487 257.15238 
L 229.109414 256.29854 
L 229.55134 256.03582 
L 229.993266 255.18198 
L 230.435193 255.05062 
L 230.877119 255.64174 
L 231.319045 256.62694 
L 232.644824 263.72038 
L 233.970604 271.2079 
L 234.41253 273.1783 
L 234.854456 273.37534 
L 235.296383 271.07654 
L 236.180235 262.20974 
L 236.622162 261.6843 
L 237.064088 261.6843 
L 237.506015 262.80086 
L 238.831794 268.71206 
L 241.041426 283.88414 
L 242.367205 291.04326 
L 242.809131 292.8823 
L 243.251057 293.60478 
L 243.692984 293.60478 
L 244.13491 293.2107 
L 244.576836 291.43734 
L 245.018763 291.04326 
L 245.902616 292.2255 
L 246.786468 292.75094 
L 247.228395 291.76574 
L 247.670321 291.63438 
L 248.112247 288.21902 
L 248.9961 278.69542 
L 249.438027 275.34574 
L 249.879953 274.29486 
L 250.321879 273.70374 
L 250.763806 273.90078 
L 251.205732 273.30966 
L 251.647658 273.70374 
L 252.089585 274.29486 
L 252.531511 274.4919 
L 252.973438 273.76942 
L 253.415364 274.09782 
L 254.299217 275.21438 
L 254.741143 273.76942 
L 255.183069 272.91558 
L 255.624996 272.78422 
L 256.066922 273.04694 
L 256.508848 269.30318 
L 256.950775 268.77774 
L 257.392701 268.84342 
L 258.276554 269.76294 
L 258.71848 269.63158 
L 259.160407 270.02566 
L 259.602333 270.15702 
L 260.486186 270.74814 
L 260.928112 270.41974 
L 261.370039 269.17182 
L 261.811965 268.71206 
L 262.695818 268.77774 
L 263.137744 269.04046 
L 263.57967 269.50022 
L 264.021597 270.35406 
L 264.463523 271.60198 
L 264.905449 272.45582 
L 265.789302 274.95166 
L 266.673155 273.90078 
L 267.115081 272.45582 
L 267.998934 272.25878 
L 268.44086 270.41974 
L 268.882787 267.52982 
L 269.76664 258.66302 
L 270.208566 258.20326 
L 271.092419 255.51038 
L 271.534345 254.72222 
L 271.976271 255.24766 
L 274.62783 264.37718 
L 275.069756 265.75646 
L 275.511682 266.01918 
L 276.395535 267.66118 
L 276.837461 267.9239 
L 277.279388 265.55942 
L 277.721314 265.23102 
L 278.163241 265.2967 
L 279.047093 265.03398 
L 279.48902 263.6547 
L 279.930946 261.6843 
L 280.372872 261.0275 
L 280.814799 258.33462 
L 281.256725 256.56126 
L 281.698652 252.55478 
L 282.140578 250.05894 
L 282.582504 250.58438 
L 283.024431 251.89798 
L 284.35021 259.7139 
L 284.792136 261.48726 
L 285.234063 261.6843 
L 285.675989 260.63342 
L 286.117915 261.48726 
L 286.559842 262.73518 
L 287.001768 263.58902 
L 287.443694 264.18014 
L 288.327547 266.6103 
L 288.769473 267.52982 
L 289.2114 265.9535 
L 290.095253 266.87302 
L 290.537179 264.83694 
L 290.979105 263.72038 
L 291.421032 261.88134 
L 291.862958 262.0127 
L 292.304884 261.61862 
L 293.188737 259.58254 
L 293.630664 257.15238 
L 294.07259 252.68614 
L 294.956443 250.1903 
L 295.398369 248.2199 
L 295.840295 247.43174 
L 296.282222 246.38086 
L 296.724148 242.89982 
L 297.608001 240.6667 
L 298.049927 235.80638 
L 298.491854 234.4271 
L 298.93378 232.52238 
L 299.375706 232.65374 
L 299.817633 233.24486 
L 300.259559 234.88686 
L 300.701485 237.18566 
L 301.585338 240.07558 
L 302.027265 239.87854 
L 302.469191 238.56494 
L 302.911117 239.0247 
L 303.353044 239.81286 
L 303.79497 240.27262 
L 304.236896 240.9951 
L 304.678823 240.3383 
L 305.120749 240.53534 
L 306.004602 241.84894 
L 306.446528 241.84894 
L 306.888455 240.73238 
L 307.772307 237.0543 
L 308.214234 234.16438 
L 308.65616 233.24486 
L 309.098086 233.37622 
L 309.540013 234.0987 
L 310.423866 237.0543 
L 310.865792 237.7111 
L 311.307718 239.0247 
L 311.749645 241.6519 
L 313.075424 246.70926 
L 313.51735 248.28558 
L 313.959277 248.28558 
L 314.401203 247.36606 
L 314.843129 245.13294 
L 315.285056 243.55662 
L 315.726982 243.35958 
L 316.168908 241.25782 
L 316.610835 239.74718 
L 317.494688 231.01174 
L 317.936614 228.90998 
L 318.37854 225.03486 
L 318.820467 223.06446 
L 319.262393 216.6935 
L 319.704319 216.6935 
L 320.146246 216.95622 
L 320.588172 216.16806 
L 321.472025 218.72958 
L 321.913951 220.50294 
L 322.355878 222.73606 
L 322.797804 223.39286 
L 323.23973 223.19582 
L 323.681657 223.2615 
L 324.565509 219.58342 
L 325.007436 215.57694 
L 325.449362 214.19766 
L 325.891289 214.85446 
L 326.333215 215.24854 
L 326.775141 212.81838 
L 327.658994 197.9747 
L 328.10092 195.54454 
L 328.542847 169.66662 
L 328.984773 171.50566 
L 329.426699 176.3003 
L 329.868626 177.48254 
L 330.310552 175.3151 
L 330.752479 178.20502 
L 331.194405 182.14582 
L 331.636331 187.40022 
L 333.404037 217.28462 
L 334.28789 226.34846 
L 334.729816 226.93958 
L 335.171742 226.02006 
L 335.613669 226.34846 
L 336.055595 225.69166 
L 336.497521 220.6343 
L 336.939448 220.6343 
L 337.823301 218.07278 
L 338.265227 217.54734 
L 338.707153 218.13846 
L 339.14908 219.25502 
L 339.591006 218.13846 
L 340.032932 215.57694 
L 340.474859 213.80358 
L 340.916785 207.8267 
L 341.358711 207.8267 
L 341.800638 206.1847 
L 342.242564 202.11254 
L 342.684491 196.85814 
L 343.126417 187.20318 
L 343.568343 181.62038 
L 344.01027 179.45294 
L 344.452196 178.40206 
L 345.777975 179.2559 
L 346.219902 177.67958 
L 346.661828 178.07366 
L 347.103754 178.9275 
L 347.545681 175.9719 
L 347.987607 175.38078 
L 348.429533 175.05238 
L 348.87146 174.13286 
L 349.313386 172.0311 
L 349.755313 168.22166 
L 350.197239 166.57966 
L 350.639165 167.23646 
L 351.081092 168.68142 
L 351.523018 171.57134 
L 351.964944 175.44646 
L 352.848797 187.7943 
L 353.73265 201.06166 
L 354.616503 210.25686 
L 355.500355 215.51126 
L 355.942282 216.82486 
L 356.384208 217.74438 
L 356.826134 218.13846 
L 357.268061 217.3503 
L 357.709987 217.3503 
L 358.151914 217.6787 
L 358.59384 217.28462 
L 359.035766 217.41598 
L 359.477693 218.20414 
L 360.361545 223.06446 
L 360.803472 225.49462 
L 361.245398 225.42894 
L 361.687324 224.31238 
L 362.129251 221.35678 
L 362.571177 217.41598 
L 363.013104 210.38822 
L 364.338883 198.3031 
L 364.780809 193.0487 
L 365.664662 180.8979 
L 366.106588 178.00798 
L 367.432367 155.01998 
L 367.874294 150.22534 
L 368.31622 149.43718 
L 368.758146 150.48806 
L 369.200073 152.78686 
L 370.525852 161.25958 
L 370.967778 163.42702 
L 371.409705 161.71934 
L 372.293557 168.87846 
L 372.735484 171.43998 
L 373.17741 175.70918 
L 374.061263 180.5695 
L 374.945116 178.5991 
L 375.828968 179.9127 
L 376.270895 180.30678 
L 376.712821 180.8979 
L 377.154747 181.2263 
L 377.596674 177.87662 
L 378.0386 175.9719 
L 378.922453 163.62406 
L 379.364379 163.29566 
L 379.806306 163.62406 
L 380.248232 164.1495 
L 381.574011 172.29382 
L 382.015938 172.6879 
L 382.457864 170.78318 
L 382.89979 170.91454 
L 383.341717 172.29382 
L 383.783643 173.08198 
L 384.225569 171.43998 
L 384.667496 171.83406 
L 385.109422 170.3891 
L 385.551348 164.41222 
L 385.993275 161.98206 
L 386.435201 160.60278 
L 386.877128 155.9395 
L 387.319054 154.6259 
L 388.202907 150.22534 
L 388.644833 146.48158 
L 389.086759 140.43902 
L 389.528686 136.36686 
L 389.970612 135.2503 
L 390.412539 127.6971 
L 390.854465 122.57406 
L 391.296391 111.67118 
L 392.180244 105.82566 
L 392.62217 102.21326 
L 393.064097 101.68782 
L 394.389876 95.38254 
L 394.831802 94.8571 
L 395.715655 101.16238 
L 397.041434 112.65638 
L 397.48336 114.16702 
L 397.925287 117.1883 
L 398.367213 118.04214 
L 398.80914 124.80718 
L 399.251066 128.22254 
L 399.692992 134.9219 
L 400.576845 164.74062 
L 401.902624 216.3651 
L 402.786477 243.42526 
L 403.67033 258.20326 
L 404.112256 262.47246 
L 404.554182 264.77126 
L 404.996109 265.9535 
L 405.438035 266.6103 
L 405.879961 262.0127 
L 406.763814 256.82398 
L 407.647667 248.08854 
L 408.089593 245.46134 
L 408.53152 246.70926 
L 408.973446 247.30038 
L 409.415372 245.85542 
L 409.857299 245.52702 
L 410.299225 242.44006 
L 410.741152 237.77678 
L 411.183078 235.87206 
L 412.066931 230.22358 
L 412.950783 227.2023 
L 413.39271 221.55382 
L 413.834636 217.6787 
L 414.276563 209.60006 
L 414.718489 205.79062 
L 415.160415 199.55102 
L 415.602342 195.74158 
L 416.044268 193.7055 
L 416.486194 193.77118 
L 416.928121 194.42798 
L 417.370047 196.13566 
L 417.811973 198.82854 
L 418.2539 200.33918 
L 418.695826 200.01078 
L 419.137753 195.54454 
L 419.579679 193.0487 
L 420.021605 192.7203 
L 420.463532 192.85166 
L 420.905458 194.0339 
L 421.347384 194.62502 
L 421.789311 195.6759 
L 422.231237 197.12086 
L 422.673164 200.07646 
L 423.11509 201.45574 
L 423.557016 199.2883 
L 423.998943 195.28182 
L 424.440869 193.50846 
L 425.324722 193.77118 
L 426.208574 195.74158 
L 426.650501 196.59542 
L 427.092427 197.90902 
L 427.534354 200.07646 
L 427.97628 200.47054 
L 428.418206 199.87942 
L 428.860133 195.47886 
L 429.302059 192.78598 
L 429.743985 192.32622 
L 430.185912 192.65462 
L 430.627838 192.32622 
L 431.069765 193.44278 
L 431.953617 191.66942 
L 432.83747 185.03574 
L 433.279396 182.60558 
L 433.721323 181.09494 
L 434.605176 176.3003 
L 435.047102 174.92102 
L 435.930955 174.13286 
L 436.372881 173.21334 
L 436.814807 174.0015 
L 437.69866 179.19022 
L 438.140586 181.16062 
L 438.582513 182.60558 
L 439.024439 182.5399 
L 439.466366 182.93398 
L 440.350218 184.44462 
L 440.792145 184.05054 
L 441.234071 184.05054 
L 441.675997 183.72214 
L 442.117924 181.42334 
L 442.55985 180.5695 
L 443.001777 180.30678 
L 443.443703 179.38726 
L 443.885629 179.2559 
L 444.327556 178.9275 
L 444.769482 179.12454 
L 445.211408 180.37246 
L 445.653335 181.16062 
L 446.537188 180.63518 
L 447.42104 181.81742 
L 447.862967 181.81742 
L 448.304893 181.09494 
L 448.746819 181.8831 
L 449.188746 183.06534 
L 449.630672 182.73694 
L 450.072598 181.09494 
L 450.514525 180.83222 
L 451.398378 177.87662 
L 451.840304 177.08846 
L 452.724157 173.3447 
L 453.166083 172.42518 
L 453.608009 168.48438 
L 454.049936 166.64534 
L 454.491862 162.8359 
L 455.375715 147.99222 
L 455.817641 143.98574 
L 456.259568 142.1467 
L 457.14342 134.79054 
L 457.585347 130.25862 
L 458.027273 127.6971 
L 458.469199 125.85806 
L 458.911126 121.85158 
L 459.794979 118.04214 
L 461.562684 124.47878 
L 462.00461 126.84326 
L 462.888463 133.73966 
L 463.33039 134.39646 
L 464.214242 133.01718 
L 464.656169 131.6379 
L 465.098095 130.91542 
L 465.540021 132.75446 
L 465.981948 133.2799 
L 466.423874 132.6231 
L 466.865801 130.06158 
L 467.307727 128.61662 
L 467.749653 128.15686 
L 469.075432 133.47694 
L 469.517359 132.68878 
L 469.959285 133.47694 
L 470.843138 137.02366 
L 471.285064 138.59998 
L 471.726991 141.4899 
L 473.05277 152.19574 
L 473.494696 158.50102 
L 473.936622 162.90158 
L 474.378549 165.4631 
L 474.820475 167.03942 
L 475.262402 167.63054 
L 475.704328 166.90806 
L 476.146254 165.66014 
L 476.588181 163.09862 
L 477.030107 162.90158 
L 477.472033 161.1939 
L 477.91396 154.82294 
L 479.239739 126.64622 
L 480.123592 118.63326 
L 480.565518 116.00606 
L 481.007444 115.2179 
L 481.449371 115.41494 
L 481.891297 116.13742 
L 482.333223 117.58238 
L 482.77515 117.64806 
L 483.217076 118.10782 
L 484.100929 119.74982 
L 484.984782 122.31134 
L 485.868634 129.3391 
L 486.752487 134.19942 
L 487.194414 135.44734 
L 487.63634 137.08934 
L 488.078266 137.28638 
L 489.404045 129.73318 
L 490.729824 116.79422 
L 491.171751 116.79422 
L 491.613677 117.1883 
L 492.49753 119.42142 
L 492.939456 121.1291 
L 493.381383 124.61014 
L 493.823309 127.17166 
L 494.707162 133.80534 
L 495.149088 136.30118 
L 496.032941 145.82478 
L 496.916794 161.06254 
L 498.242573 176.36598 
L 498.684499 175.51214 
L 499.126426 168.81278 
L 500.010278 149.50286 
L 500.452205 140.57038 
L 500.894131 136.49822 
L 501.336057 136.16982 
L 501.777984 136.69526 
L 502.661836 136.69526 
L 503.545689 132.88582 
L 504.429542 135.18462 
L 504.871468 135.5787 
L 505.313395 135.05326 
L 505.755321 130.71838 
L 506.197247 123.4279 
L 506.639174 119.94686 
L 507.0811 119.55278 
L 507.523027 120.07822 
L 507.964953 122.1143 
L 508.406879 123.03382 
L 509.290732 126.97462 
L 509.732658 127.0403 
L 510.174585 126.77758 
L 510.616511 125.0699 
L 511.058437 125.26694 
L 511.500364 124.80718 
L 511.94229 125.20126 
L 512.384217 126.3835 
L 512.826143 126.18646 
L 513.268069 125.79238 
L 514.151922 128.74798 
L 515.035775 133.9367 
L 515.477701 137.08934 
L 515.919628 139.1911 
L 516.80348 147.00702 
L 517.245407 152.19574 
L 518.129259 157.45014 
L 519.455039 163.42702 
L 519.896965 163.36134 
L 520.338891 160.5371 
L 520.780818 159.2235 
L 521.222744 157.38446 
L 521.66467 157.5815 
L 522.548523 158.96078 
L 522.990449 158.10694 
L 523.874302 145.89046 
L 524.316229 141.4899 
L 524.758155 138.46862 
L 525.200081 137.2207 
L 525.642008 137.08934 
L 526.967787 138.5343 
L 527.409713 137.94318 
L 527.85164 135.38166 
L 528.293566 134.00238 
L 528.735492 133.2799 
L 529.619345 133.73966 
L 530.061271 133.73966 
L 530.503198 133.41126 
L 530.945124 131.9663 
L 531.387051 127.0403 
L 531.828977 125.46398 
L 532.270903 124.61014 
L 532.71283 124.47878 
L 533.154756 124.80718 
L 533.596682 124.47878 
L 534.038609 124.67582 
L 534.480535 124.01902 
L 534.922461 123.69062 
L 535.364388 124.21606 
L 536.248241 125.92374 
L 536.690167 128.0255 
L 538.015946 138.46862 
L 538.899799 150.09398 
L 539.783652 157.2531 
L 541.551357 175.84054 
L 541.993283 183.59078 
L 542.43521 193.57414 
L 543.319062 216.95622 
L 544.644842 238.23654 
L 545.086768 240.73238 
L 545.528694 241.06078 
L 545.970621 235.87206 
L 546.854473 229.76382 
L 547.2964 224.31238 
L 547.738326 216.95622 
L 548.180253 213.0811 
L 548.622179 211.96454 
L 549.064105 211.24206 
L 549.506032 210.84798 
L 549.947958 208.74622 
L 550.389884 203.68886 
L 550.831811 200.2735 
L 551.715664 189.7647 
L 552.599516 183.5251 
L 553.041443 182.93398 
L 553.483369 181.75174 
L 553.925295 179.9127 
L 554.809148 179.45294 
L 555.251074 178.46774 
L 555.693001 178.00798 
L 556.134927 176.56302 
L 556.576854 175.6435 
L 557.460706 179.45294 
L 557.902633 176.9571 
L 558.344559 177.81094 
L 558.786485 181.02926 
L 559.228412 183.26238 
L 559.670338 186.34934 
L 560.554191 195.61022 
L 563.205749 219.05798 
L 564.531528 227.72774 
L 564.973455 230.28926 
L 565.415381 231.53718 
L 565.857307 231.4715 
L 566.299234 232.98214 
L 566.74116 233.4419 
L 567.183086 234.55846 
L 568.066939 240.14126 
L 569.392718 251.30686 
L 569.834645 252.55478 
L 570.276571 250.8471 
L 571.160424 239.94422 
L 571.60235 237.57974 
L 572.044277 234.49278 
L 572.486203 233.17918 
L 572.928129 230.74902 
L 573.370056 225.5603 
L 573.811982 222.99878 
L 574.695835 216.56214 
L 575.137761 214.7231 
L 575.579688 210.7823 
L 576.021614 209.92846 
L 576.46354 210.05982 
L 577.347393 209.1403 
L 578.231246 210.84798 
L 578.673172 211.96454 
L 579.998951 214.0663 
L 580.440878 215.77398 
L 580.882804 216.62782 
L 581.32473 215.77398 
L 581.766657 213.60654 
L 582.208583 213.27814 
L 582.650509 212.68702 
L 583.092436 213.21246 
L 583.534362 214.52606 
L 583.976289 214.85446 
L 584.418215 214.85446 
L 584.860141 213.01542 
L 585.302068 211.83318 
L 585.743994 211.24206 
L 586.18592 212.88406 
L 586.627847 215.11718 
L 587.511699 220.83134 
L 587.953626 222.53902 
L 588.395552 222.6047 
L 588.837479 221.75086 
L 589.279405 219.3207 
L 589.721331 215.3799 
L 590.163258 213.7379 
L 590.605184 213.34382 
L 591.04711 213.80358 
L 591.489037 213.7379 
L 591.930963 215.18286 
L 592.37289 215.3799 
L 593.256742 212.4243 
L 593.698669 211.57046 
L 594.140595 210.19118 
L 594.582521 210.19118 
L 595.024448 210.32254 
L 595.466374 210.84798 
L 596.350227 205.92198 
L 596.792153 203.36046 
L 598.117932 205.26518 
L 598.559859 205.46222 
L 599.001785 202.76934 
L 599.443711 202.04686 
L 599.885638 202.70366 
L 600.327564 203.03206 
L 600.769491 204.73974 
L 601.211417 207.36694 
L 601.653343 207.69534 
L 602.09527 208.4835 
L 602.537196 207.76102 
L 602.979122 207.69534 
L 603.862975 202.37526 
L 604.304902 200.53622 
L 604.746828 199.55102 
L 605.188754 190.81558 
L 605.630681 190.15878 
L 606.072607 191.01262 
L 607.840312 195.80726 
L 608.282239 195.6759 
L 608.724165 196.6611 
L 609.166092 195.21614 
L 609.608018 194.95342 
L 610.049944 194.88774 
L 610.933797 195.21614 
L 611.375723 196.46406 
L 611.81765 199.15694 
L 612.259576 200.79894 
L 612.701503 201.65278 
L 613.143429 201.32438 
L 614.469208 198.50014 
L 614.911134 197.71198 
L 615.353061 196.6611 
L 615.794987 198.17174 
L 616.236914 200.33918 
L 617.120766 202.50662 
L 617.562693 201.19302 
L 618.446545 190.55286 
L 618.888472 187.72862 
L 619.330398 181.5547 
L 620.214251 176.69438 
L 620.656177 175.57782 
L 621.098104 170.58614 
L 621.54003 167.30214 
L 621.981956 165.59446 
L 622.423883 165.20038 
L 622.865809 165.52878 
L 623.307735 166.38262 
L 623.749662 167.49918 
L 624.633515 166.84238 
L 625.075441 167.49918 
L 625.959294 170.3891 
L 626.40122 169.7323 
L 626.843146 168.68142 
L 627.285073 167.30214 
L 627.726999 165.20038 
L 628.168926 164.28086 
L 628.610852 164.34654 
L 629.052778 164.08382 
L 629.494705 164.08382 
L 629.936631 164.87198 
L 630.378557 164.87198 
L 631.26241 167.23646 
L 631.704336 167.56486 
L 632.146263 169.20686 
L 632.588189 172.0311 
L 633.030116 176.10326 
L 633.472042 178.20502 
L 635.239747 198.6315 
L 636.1236 205.79062 
L 636.565527 210.25686 
L 637.449379 215.18286 
L 637.891306 218.79526 
L 638.333232 219.45206 
L 638.775158 218.40118 
L 639.217085 217.74438 
L 639.659011 216.56214 
L 640.100938 213.86926 
L 641.868643 195.15046 
L 643.636348 170.25774 
L 644.078275 167.30214 
L 644.520201 166.1199 
L 644.962128 166.25126 
L 645.404054 166.1199 
L 646.287907 170.78318 
L 647.171759 176.43166 
L 648.055612 179.9127 
L 648.497539 182.34286 
L 648.939465 184.11622 
L 649.823318 185.42982 
L 650.70717 187.92566 
L 651.149097 189.30494 
L 651.591023 189.04222 
L 652.032949 187.59726 
L 652.474876 184.64166 
L 652.916802 183.8535 
L 653.358729 183.65646 
L 653.800655 183.98486 
L 654.242581 182.60558 
L 654.684508 182.01446 
L 655.126434 178.40206 
L 655.56836 176.49734 
L 656.010287 175.57782 
L 656.89414 176.76006 
L 657.336066 178.2707 
L 657.777992 182.14582 
L 658.219919 184.70734 
L 660.871477 195.41318 
L 661.313403 196.6611 
L 662.197256 201.06166 
L 662.639182 202.50662 
L 663.081109 205.06814 
L 663.523035 208.94326 
L 663.964961 214.46038 
L 664.406888 222.99878 
L 665.290741 235.01822 
L 666.174593 242.3087 
L 666.61652 244.73886 
L 667.058446 245.52702 
L 667.500372 241.78326 
L 667.942299 230.4863 
L 668.826152 218.46686 
L 669.268078 214.7231 
L 670.151931 209.53438 
L 670.593857 208.61486 
L 671.035783 208.35214 
L 671.47771 208.87758 
L 671.919636 208.41782 
L 672.361562 205.39654 
L 672.803489 205.46222 
L 673.245415 207.10422 
L 673.687342 206.90718 
L 674.129268 207.03854 
L 674.571194 207.03854 
L 676.3389 211.70182 
L 677.222753 212.81838 
L 678.548532 216.43078 
L 678.990458 216.6935 
L 679.432384 218.0071 
L 679.874311 217.87574 
L 680.316237 218.3355 
L 680.758164 218.59822 
L 681.20009 217.21894 
L 681.642016 217.0219 
L 682.083943 217.21894 
L 682.525869 215.7083 
L 682.967795 213.7379 
L 683.851648 210.97934 
L 684.293574 207.89238 
L 684.735501 203.75454 
L 685.177427 200.66758 
L 686.945133 167.69622 
L 687.387059 167.03942 
L 688.270912 166.84238 
L 689.596691 162.57318 
L 690.038617 159.81462 
L 690.480544 155.34838 
L 690.92247 154.2975 
L 691.364396 153.57502 
L 691.806323 151.21054 
L 692.248249 149.63422 
L 692.690176 146.0875 
L 693.574028 135.2503 
L 694.015955 131.70358 
L 694.457881 126.97462 
L 695.78366 119.22438 
L 696.225586 119.09302 
L 696.667513 119.74982 
L 697.109439 120.66934 
L 697.551366 120.93206 
L 697.993292 122.24566 
L 698.435218 124.0847 
L 698.877145 125.3983 
L 699.760997 126.44918 
L 700.202924 126.31782 
L 700.64485 126.7119 
L 701.086777 126.77758 
L 701.970629 127.82846 
L 702.412556 128.94502 
L 702.854482 130.52134 
L 704.180261 136.5639 
L 704.622188 137.94318 
L 704.622188 137.94318 
" clip-path="url(#pa4e596e504)" style="fill: none; stroke: #0070c0; stroke-width: 2.5; stroke-linecap: square"/>
   </g>
   <g id="line2d_52">
    <path d="M 59.409688 291.053169 
L 704.622188 145.61927 
L 704.622188 145.61927 
" clip-path="url(#pa4e596e504)" style="fill: none; stroke-dasharray: 7.4,3.2; stroke-dashoffset: 0; stroke: #ff0000; stroke-opacity: 0.8; stroke-width: 2"/>
   </g>
   <g id="patch_3">
    <path d="M 59.409688 367.7575 
L 59.409688 39.3575 
" style="fill: none; stroke: #000000; stroke-width: 0.8; stroke-linejoin: miter; stroke-linecap: square"/>
   </g>
   <g id="patch_4">
    <path d="M 704.622187 367.7575 
L 704.622187 39.3575 
" style="fill: none; stroke: #000000; stroke-width: 0.8; stroke-linejoin: miter; stroke-linecap: square"/>
   </g>
   <g id="patch_5">
    <path d="M 59.409688 367.7575 
L 704.622188 367.7575 
" style="fill: none; stroke: #000000; stroke-width: 0.8; stroke-linejoin: miter; stroke-linecap: square"/>
   </g>
   <g id="patch_6">
    <path d="M 59.409688 39.3575 
L 704.622188 39.3575 
" style="fill: none; stroke: #000000; stroke-width: 0.8; stroke-linejoin: miter; stroke-linecap: square"/>
   </g>
   <g id="text_28">
    <!-- Retail Gasoline Prices ($ per gallon) - Rocky Mountain (1994 - 2022) -->
    <g transform="translate(75.075938 19.3575) scale(0.16 -0.16)">
     <defs>
      <path id="DejaVuSans-Bold-52" d="M 2297 2597 
Q 2675 2597 2839 2737 
Q 3003 2878 3003 3200 
Q 3003 3519 2839 3656 
Q 2675 3794 2297 3794 
L 1791 3794 
L 1791 2597 
L 2297 2597 
z
M 1791 1766 
L 1791 0 
L 588 0 
L 588 4666 
L 2425 4666 
Q 3347 4666 3776 4356 
Q 4206 4047 4206 3378 
Q 4206 2916 3982 2619 
Q 3759 2322 3309 2181 
Q 3556 2125 3751 1926 
Q 3947 1728 4147 1325 
L 4800 0 
L 3519 0 
L 2950 1159 
Q 2778 1509 2601 1637 
Q 2425 1766 2131 1766 
L 1791 1766 
z
" transform="scale(0.015625)"/>
      <path id="DejaVuSans-Bold-65" d="M 4031 1759 
L 4031 1441 
L 1416 1441 
Q 1456 1047 1700 850 
Q 1944 653 2381 653 
Q 2734 653 3104 758 
Q 3475 863 3866 1075 
L 3866 213 
Q 3469 63 3072 -14 
Q 2675 -91 2278 -91 
Q 1328 -91 801 392 
Q 275 875 275 1747 
Q 275 2603 792 3093 
Q 1309 3584 2216 3584 
Q 3041 3584 3536 3087 
Q 4031 2591 4031 1759 
z
M 2881 2131 
Q 2881 2450 2695 2645 
Q 2509 2841 2209 2841 
Q 1884 2841 1681 2658 
Q 1478 2475 1428 2131 
L 2881 2131 
z
" transform="scale(0.015625)"/>
      <path id="DejaVuSans-Bold-74" d="M 1759 4494 
L 1759 3500 
L 2913 3500 
L 2913 2700 
L 1759 2700 
L 1759 1216 
Q 1759 972 1856 886 
Q 1953 800 2241 800 
L 2816 800 
L 2816 0 
L 1856 0 
Q 1194 0 917 276 
Q 641 553 641 1216 
L 641 2700 
L 84 2700 
L 84 3500 
L 641 3500 
L 641 4494 
L 1759 4494 
z
" transform="scale(0.015625)"/>
      <path id="DejaVuSans-Bold-61" d="M 2106 1575 
Q 1756 1575 1579 1456 
Q 1403 1338 1403 1106 
Q 1403 894 1545 773 
Q 1688 653 1941 653 
Q 2256 653 2472 879 
Q 2688 1106 2688 1447 
L 2688 1575 
L 2106 1575 
z
M 3816 1997 
L 3816 0 
L 2688 0 
L 2688 519 
Q 2463 200 2181 54 
Q 1900 -91 1497 -91 
Q 953 -91 614 226 
Q 275 544 275 1050 
Q 275 1666 698 1953 
Q 1122 2241 2028 2241 
L 2688 2241 
L 2688 2328 
Q 2688 2594 2478 2717 
Q 2269 2841 1825 2841 
Q 1466 2841 1156 2769 
Q 847 2697 581 2553 
L 581 3406 
Q 941 3494 1303 3539 
Q 1666 3584 2028 3584 
Q 2975 3584 3395 3211 
Q 3816 2838 3816 1997 
z
" transform="scale(0.015625)"/>
      <path id="DejaVuSans-Bold-69" d="M 538 3500 
L 1656 3500 
L 1656 0 
L 538 0 
L 538 3500 
z
M 538 4863 
L 1656 4863 
L 1656 3950 
L 538 3950 
L 538 4863 
z
" transform="scale(0.015625)"/>
      <path id="DejaVuSans-Bold-6c" d="M 538 4863 
L 1656 4863 
L 1656 0 
L 538 0 
L 538 4863 
z
" transform="scale(0.015625)"/>
      <path id="DejaVuSans-Bold-20" transform="scale(0.015625)"/>
      <path id="DejaVuSans-Bold-47" d="M 4781 347 
Q 4331 128 3847 18 
Q 3363 -91 2847 -91 
Q 1681 -91 1000 561 
Q 319 1213 319 2328 
Q 319 3456 1012 4103 
Q 1706 4750 2913 4750 
Q 3378 4750 3804 4662 
Q 4231 4575 4609 4403 
L 4609 3438 
Q 4219 3659 3833 3768 
Q 3447 3878 3059 3878 
Q 2341 3878 1952 3476 
Q 1563 3075 1563 2328 
Q 1563 1588 1938 1184 
Q 2313 781 3003 781 
Q 3191 781 3352 804 
Q 3513 828 3641 878 
L 3641 1784 
L 2906 1784 
L 2906 2591 
L 4781 2591 
L 4781 347 
z
" transform="scale(0.015625)"/>
      <path id="DejaVuSans-Bold-73" d="M 3272 3391 
L 3272 2541 
Q 2913 2691 2578 2766 
Q 2244 2841 1947 2841 
Q 1628 2841 1473 2761 
Q 1319 2681 1319 2516 
Q 1319 2381 1436 2309 
Q 1553 2238 1856 2203 
L 2053 2175 
Q 2913 2066 3209 1816 
Q 3506 1566 3506 1031 
Q 3506 472 3093 190 
Q 2681 -91 1863 -91 
Q 1516 -91 1145 -36 
Q 775 19 384 128 
L 384 978 
Q 719 816 1070 734 
Q 1422 653 1784 653 
Q 2113 653 2278 743 
Q 2444 834 2444 1013 
Q 2444 1163 2330 1236 
Q 2216 1309 1875 1350 
L 1678 1375 
Q 931 1469 631 1722 
Q 331 1975 331 2491 
Q 331 3047 712 3315 
Q 1094 3584 1881 3584 
Q 2191 3584 2531 3537 
Q 2872 3491 3272 3391 
z
" transform="scale(0.015625)"/>
      <path id="DejaVuSans-Bold-6f" d="M 2203 2784 
Q 1831 2784 1636 2517 
Q 1441 2250 1441 1747 
Q 1441 1244 1636 976 
Q 1831 709 2203 709 
Q 2569 709 2762 976 
Q 2956 1244 2956 1747 
Q 2956 2250 2762 2517 
Q 2569 2784 2203 2784 
z
M 2203 3584 
Q 3106 3584 3614 3096 
Q 4122 2609 4122 1747 
Q 4122 884 3614 396 
Q 3106 -91 2203 -91 
Q 1297 -91 786 396 
Q 275 884 275 1747 
Q 275 2609 786 3096 
Q 1297 3584 2203 3584 
z
" transform="scale(0.015625)"/>
      <path id="DejaVuSans-Bold-6e" d="M 4056 2131 
L 4056 0 
L 2931 0 
L 2931 347 
L 2931 1631 
Q 2931 2084 2911 2256 
Q 2891 2428 2841 2509 
Q 2775 2619 2662 2680 
Q 2550 2741 2406 2741 
Q 2056 2741 1856 2470 
Q 1656 2200 1656 1722 
L 1656 0 
L 538 0 
L 538 3500 
L 1656 3500 
L 1656 2988 
Q 1909 3294 2193 3439 
Q 2478 3584 2822 3584 
Q 3428 3584 3742 3212 
Q 4056 2841 4056 2131 
z
" transform="scale(0.015625)"/>
      <path id="DejaVuSans-Bold-50" d="M 588 4666 
L 2584 4666 
Q 3475 4666 3951 4270 
Q 4428 3875 4428 3144 
Q 4428 2409 3951 2014 
Q 3475 1619 2584 1619 
L 1791 1619 
L 1791 0 
L 588 0 
L 588 4666 
z
M 1791 3794 
L 1791 2491 
L 2456 2491 
Q 2806 2491 2997 2661 
Q 3188 2831 3188 3144 
Q 3188 3456 2997 3625 
Q 2806 3794 2456 3794 
L 1791 3794 
z
" transform="scale(0.015625)"/>
      <path id="DejaVuSans-Bold-72" d="M 3138 2547 
Q 2991 2616 2845 2648 
Q 2700 2681 2553 2681 
Q 2122 2681 1889 2404 
Q 1656 2128 1656 1613 
L 1656 0 
L 538 0 
L 538 3500 
L 1656 3500 
L 1656 2925 
Q 1872 3269 2151 3426 
Q 2431 3584 2822 3584 
Q 2878 3584 2943 3579 
Q 3009 3575 3134 3559 
L 3138 2547 
z
" transform="scale(0.015625)"/>
      <path id="DejaVuSans-Bold-63" d="M 3366 3391 
L 3366 2478 
Q 3138 2634 2908 2709 
Q 2678 2784 2431 2784 
Q 1963 2784 1702 2511 
Q 1441 2238 1441 1747 
Q 1441 1256 1702 982 
Q 1963 709 2431 709 
Q 2694 709 2930 787 
Q 3166 866 3366 1019 
L 3366 103 
Q 3103 6 2833 -42 
Q 2563 -91 2291 -91 
Q 1344 -91 809 395 
Q 275 881 275 1747 
Q 275 2613 809 3098 
Q 1344 3584 2291 3584 
Q 2566 3584 2833 3536 
Q 3100 3488 3366 3391 
z
" transform="scale(0.015625)"/>
      <path id="DejaVuSans-Bold-28" d="M 2413 -844 
L 1484 -844 
Q 1006 -72 778 623 
Q 550 1319 550 2003 
Q 550 2688 779 3389 
Q 1009 4091 1484 4856 
L 2413 4856 
Q 2013 4116 1813 3408 
Q 1613 2700 1613 2009 
Q 1613 1319 1811 609 
Q 2009 -100 2413 -844 
z
" transform="scale(0.015625)"/>
      <path id="DejaVuSans-Bold-24" d="M 2484 -941 
L 1978 -941 
L 1975 0 
Q 1584 16 1218 87 
Q 853 159 506 288 
L 506 1106 
Q 866 922 1233 823 
Q 1600 725 1978 713 
L 1978 1684 
L 1875 1703 
Q 1128 1834 814 2115 
Q 500 2397 500 2925 
Q 500 3484 883 3798 
Q 1266 4113 1975 4141 
L 1978 4863 
L 2484 4863 
L 2484 4153 
Q 2797 4128 3109 4075 
Q 3422 4022 3738 3938 
L 3738 3144 
Q 3425 3275 3112 3348 
Q 2800 3422 2484 3438 
L 2484 2541 
L 2584 2522 
Q 3378 2397 3698 2105 
Q 4019 1813 4019 1241 
Q 4019 666 3637 358 
Q 3256 50 2484 6 
L 2484 -941 
z
M 1978 2613 
L 1978 3428 
Q 1756 3416 1623 3308 
Q 1491 3200 1491 3034 
Q 1491 2850 1612 2745 
Q 1734 2641 1978 2613 
z
M 2484 1594 
L 2484 725 
Q 2756 728 2892 831 
Q 3028 934 3028 1141 
Q 3028 1353 2903 1458 
Q 2778 1563 2484 1594 
z
" transform="scale(0.015625)"/>
      <path id="DejaVuSans-Bold-70" d="M 1656 506 
L 1656 -1331 
L 538 -1331 
L 538 3500 
L 1656 3500 
L 1656 2988 
Q 1888 3294 2169 3439 
Q 2450 3584 2816 3584 
Q 3463 3584 3878 3070 
Q 4294 2556 4294 1747 
Q 4294 938 3878 423 
Q 3463 -91 2816 -91 
Q 2450 -91 2169 54 
Q 1888 200 1656 506 
z
M 2400 2772 
Q 2041 2772 1848 2508 
Q 1656 2244 1656 1747 
Q 1656 1250 1848 986 
Q 2041 722 2400 722 
Q 2759 722 2948 984 
Q 3138 1247 3138 1747 
Q 3138 2247 2948 2509 
Q 2759 2772 2400 2772 
z
" transform="scale(0.015625)"/>
      <path id="DejaVuSans-Bold-67" d="M 2919 594 
Q 2688 288 2409 144 
Q 2131 0 1766 0 
Q 1125 0 706 504 
Q 288 1009 288 1791 
Q 288 2575 706 3076 
Q 1125 3578 1766 3578 
Q 2131 3578 2409 3434 
Q 2688 3291 2919 2981 
L 2919 3500 
L 4044 3500 
L 4044 353 
Q 4044 -491 3511 -936 
Q 2978 -1381 1966 -1381 
Q 1638 -1381 1331 -1331 
Q 1025 -1281 716 -1178 
L 716 -306 
Q 1009 -475 1290 -558 
Q 1572 -641 1856 -641 
Q 2406 -641 2662 -400 
Q 2919 -159 2919 353 
L 2919 594 
z
M 2181 2772 
Q 1834 2772 1640 2515 
Q 1447 2259 1447 1791 
Q 1447 1309 1634 1061 
Q 1822 813 2181 813 
Q 2531 813 2725 1069 
Q 2919 1325 2919 1791 
Q 2919 2259 2725 2515 
Q 2531 2772 2181 2772 
z
" transform="scale(0.015625)"/>
      <path id="DejaVuSans-Bold-29" d="M 513 -844 
Q 913 -100 1113 609 
Q 1313 1319 1313 2009 
Q 1313 2700 1113 3408 
Q 913 4116 513 4856 
L 1441 4856 
Q 1916 4091 2145 3389 
Q 2375 2688 2375 2003 
Q 2375 1319 2147 623 
Q 1919 -72 1441 -844 
L 513 -844 
z
" transform="scale(0.015625)"/>
      <path id="DejaVuSans-Bold-2d" d="M 347 2297 
L 2309 2297 
L 2309 1388 
L 347 1388 
L 347 2297 
z
" transform="scale(0.015625)"/>
      <path id="DejaVuSans-Bold-6b" d="M 538 4863 
L 1656 4863 
L 1656 2216 
L 2944 3500 
L 4244 3500 
L 2534 1894 
L 4378 0 
L 3022 0 
L 1656 1459 
L 1656 0 
L 538 0 
L 538 4863 
z
" transform="scale(0.015625)"/>
      <path id="DejaVuSans-Bold-79" d="M 78 3500 
L 1197 3500 
L 2138 1125 
L 2938 3500 
L 4056 3500 
L 2584 -331 
Q 2363 -916 2067 -1148 
Q 1772 -1381 1288 -1381 
L 641 -1381 
L 641 -647 
L 991 -647 
Q 1275 -647 1404 -556 
Q 1534 -466 1606 -231 
L 1638 -134 
L 78 3500 
z
" transform="scale(0.015625)"/>
      <path id="DejaVuSans-Bold-4d" d="M 588 4666 
L 2119 4666 
L 3181 2169 
L 4250 4666 
L 5778 4666 
L 5778 0 
L 4641 0 
L 4641 3413 
L 3566 897 
L 2803 897 
L 1728 3413 
L 1728 0 
L 588 0 
L 588 4666 
z
" transform="scale(0.015625)"/>
      <path id="DejaVuSans-Bold-75" d="M 500 1363 
L 500 3500 
L 1625 3500 
L 1625 3150 
Q 1625 2866 1622 2436 
Q 1619 2006 1619 1863 
Q 1619 1441 1641 1255 
Q 1663 1069 1716 984 
Q 1784 875 1895 815 
Q 2006 756 2150 756 
Q 2500 756 2700 1025 
Q 2900 1294 2900 1772 
L 2900 3500 
L 4019 3500 
L 4019 0 
L 2900 0 
L 2900 506 
Q 2647 200 2364 54 
Q 2081 -91 1741 -91 
Q 1134 -91 817 281 
Q 500 653 500 1363 
z
" transform="scale(0.015625)"/>
      <path id="DejaVuSans-Bold-31" d="M 750 831 
L 1813 831 
L 1813 3847 
L 722 3622 
L 722 4441 
L 1806 4666 
L 2950 4666 
L 2950 831 
L 4013 831 
L 4013 0 
L 750 0 
L 750 831 
z
" transform="scale(0.015625)"/>
      <path id="DejaVuSans-Bold-39" d="M 641 103 
L 641 966 
Q 928 831 1190 764 
Q 1453 697 1709 697 
Q 2247 697 2547 995 
Q 2847 1294 2900 1881 
Q 2688 1725 2447 1647 
Q 2206 1569 1925 1569 
Q 1209 1569 770 1986 
Q 331 2403 331 3084 
Q 331 3838 820 4291 
Q 1309 4744 2131 4744 
Q 3044 4744 3544 4128 
Q 4044 3513 4044 2388 
Q 4044 1231 3459 570 
Q 2875 -91 1856 -91 
Q 1528 -91 1228 -42 
Q 928 6 641 103 
z
M 2125 2350 
Q 2441 2350 2600 2554 
Q 2759 2759 2759 3169 
Q 2759 3575 2600 3781 
Q 2441 3988 2125 3988 
Q 1809 3988 1650 3781 
Q 1491 3575 1491 3169 
Q 1491 2759 1650 2554 
Q 1809 2350 2125 2350 
z
" transform="scale(0.015625)"/>
      <path id="DejaVuSans-Bold-34" d="M 2356 3675 
L 1038 1722 
L 2356 1722 
L 2356 3675 
z
M 2156 4666 
L 3494 4666 
L 3494 1722 
L 4159 1722 
L 4159 850 
L 3494 850 
L 3494 0 
L 2356 0 
L 2356 850 
L 288 850 
L 288 1881 
L 2156 4666 
z
" transform="scale(0.015625)"/>
      <path id="DejaVuSans-Bold-32" d="M 1844 884 
L 3897 884 
L 3897 0 
L 506 0 
L 506 884 
L 2209 2388 
Q 2438 2594 2547 2791 
Q 2656 2988 2656 3200 
Q 2656 3528 2436 3728 
Q 2216 3928 1850 3928 
Q 1569 3928 1234 3808 
Q 900 3688 519 3450 
L 519 4475 
Q 925 4609 1322 4679 
Q 1719 4750 2100 4750 
Q 2938 4750 3402 4381 
Q 3866 4013 3866 3353 
Q 3866 2972 3669 2642 
Q 3472 2313 2841 1759 
L 1844 884 
z
" transform="scale(0.015625)"/>
      <path id="DejaVuSans-Bold-30" d="M 2944 2338 
Q 2944 3213 2780 3570 
Q 2616 3928 2228 3928 
Q 1841 3928 1675 3570 
Q 1509 3213 1509 2338 
Q 1509 1453 1675 1090 
Q 1841 728 2228 728 
Q 2613 728 2778 1090 
Q 2944 1453 2944 2338 
z
M 4147 2328 
Q 4147 1169 3647 539 
Q 3147 -91 2228 -91 
Q 1306 -91 806 539 
Q 306 1169 306 2328 
Q 306 3491 806 4120 
Q 1306 4750 2228 4750 
Q 3147 4750 3647 4120 
Q 4147 3491 4147 2328 
z
" transform="scale(0.015625)"/>
     </defs>
     <use xlink:href="#DejaVuSans-Bold-52"/>
     <use xlink:href="#DejaVuSans-Bold-65" transform="translate(77.001953 0)"/>
     <use xlink:href="#DejaVuSans-Bold-74" transform="translate(144.824219 0)"/>
     <use xlink:href="#DejaVuSans-Bold-61" transform="translate(192.626953 0)"/>
     <use xlink:href="#DejaVuSans-Bold-69" transform="translate(260.107422 0)"/>
     <use xlink:href="#DejaVuSans-Bold-6c" transform="translate(294.384766 0)"/>
     <use xlink:href="#DejaVuSans-Bold-20" transform="translate(328.662109 0)"/>
     <use xlink:href="#DejaVuSans-Bold-47" transform="translate(363.476562 0)"/>
     <use xlink:href="#DejaVuSans-Bold-61" transform="translate(445.556641 0)"/>
     <use xlink:href="#DejaVuSans-Bold-73" transform="translate(513.037109 0)"/>
     <use xlink:href="#DejaVuSans-Bold-6f" transform="translate(572.558594 0)"/>
     <use xlink:href="#DejaVuSans-Bold-6c" transform="translate(641.259766 0)"/>
     <use xlink:href="#DejaVuSans-Bold-69" transform="translate(675.537109 0)"/>
     <use xlink:href="#DejaVuSans-Bold-6e" transform="translate(709.814453 0)"/>
     <use xlink:href="#DejaVuSans-Bold-65" transform="translate(781.005859 0)"/>
     <use xlink:href="#DejaVuSans-Bold-20" transform="translate(848.828125 0)"/>
     <use xlink:href="#DejaVuSans-Bold-50" transform="translate(883.642578 0)"/>
     <use xlink:href="#DejaVuSans-Bold-72" transform="translate(956.933594 0)"/>
     <use xlink:href="#DejaVuSans-Bold-69" transform="translate(1006.25 0)"/>
     <use xlink:href="#DejaVuSans-Bold-63" transform="translate(1040.527344 0)"/>
     <use xlink:href="#DejaVuSans-Bold-65" transform="translate(1099.804688 0)"/>
     <use xlink:href="#DejaVuSans-Bold-73" transform="translate(1167.626953 0)"/>
     <use xlink:href="#DejaVuSans-Bold-20" transform="translate(1227.148438 0)"/>
     <use xlink:href="#DejaVuSans-Bold-28" transform="translate(1261.962891 0)"/>
     <use xlink:href="#DejaVuSans-Bold-24" transform="translate(1307.666016 0)"/>
     <use xlink:href="#DejaVuSans-Bold-20" transform="translate(1377.246094 0)"/>
     <use xlink:href="#DejaVuSans-Bold-70" transform="translate(1412.060547 0)"/>
     <use xlink:href="#DejaVuSans-Bold-65" transform="translate(1483.642578 0)"/>
     <use xlink:href="#DejaVuSans-Bold-72" transform="translate(1551.464844 0)"/>
     <use xlink:href="#DejaVuSans-Bold-20" transform="translate(1600.78125 0)"/>
     <use xlink:href="#DejaVuSans-Bold-67" transform="translate(1635.595703 0)"/>
     <use xlink:href="#DejaVuSans-Bold-61" transform="translate(1707.177734 0)"/>
     <use xlink:href="#DejaVuSans-Bold-6c" transform="translate(1774.658203 0)"/>
     <use xlink:href="#DejaVuSans-Bold-6c" transform="translate(1808.935547 0)"/>
     <use xlink:href="#DejaVuSans-Bold-6f" transform="translate(1843.212891 0)"/>
     <use xlink:href="#DejaVuSans-Bold-6e" transform="translate(1911.914062 0)"/>
     <use xlink:href="#DejaVuSans-Bold-29" transform="translate(1983.105469 0)"/>
     <use xlink:href="#DejaVuSans-Bold-20" transform="translate(2028.808594 0)"/>
     <use xlink:href="#DejaVuSans-Bold-2d" transform="translate(2063.623047 0)"/>
     <use xlink:href="#DejaVuSans-Bold-20" transform="translate(2105.126953 0)"/>
     <use xlink:href="#DejaVuSans-Bold-52" transform="translate(2139.941406 0)"/>
     <use xlink:href="#DejaVuSans-Bold-6f" transform="translate(2216.943359 0)"/>
     <use xlink:href="#DejaVuSans-Bold-63" transform="translate(2285.644531 0)"/>
     <use xlink:href="#DejaVuSans-Bold-6b" transform="translate(2344.921875 0)"/>
     <use xlink:href="#DejaVuSans-Bold-79" transform="translate(2411.425781 0)"/>
     <use xlink:href="#DejaVuSans-Bold-20" transform="translate(2476.611328 0)"/>
     <use xlink:href="#DejaVuSans-Bold-4d" transform="translate(2511.425781 0)"/>
     <use xlink:href="#DejaVuSans-Bold-6f" transform="translate(2610.9375 0)"/>
     <use xlink:href="#DejaVuSans-Bold-75" transform="translate(2679.638672 0)"/>
     <use xlink:href="#DejaVuSans-Bold-6e" transform="translate(2750.830078 0)"/>
     <use xlink:href="#DejaVuSans-Bold-74" transform="translate(2822.021484 0)"/>
     <use xlink:href="#DejaVuSans-Bold-61" transform="translate(2869.824219 0)"/>
     <use xlink:href="#DejaVuSans-Bold-69" transform="translate(2937.304688 0)"/>
     <use xlink:href="#DejaVuSans-Bold-6e" transform="translate(2971.582031 0)"/>
     <use xlink:href="#DejaVuSans-Bold-20" transform="translate(3042.773438 0)"/>
     <use xlink:href="#DejaVuSans-Bold-28" transform="translate(3077.587891 0)"/>
     <use xlink:href="#DejaVuSans-Bold-31" transform="translate(3123.291016 0)"/>
     <use xlink:href="#DejaVuSans-Bold-39" transform="translate(3192.871094 0)"/>
     <use xlink:href="#DejaVuSans-Bold-39" transform="translate(3262.451172 0)"/>
     <use xlink:href="#DejaVuSans-Bold-34" transform="translate(3332.03125 0)"/>
     <use xlink:href="#DejaVuSans-Bold-20" transform="translate(3401.611328 0)"/>
     <use xlink:href="#DejaVuSans-Bold-2d" transform="translate(3436.425781 0)"/>
     <use xlink:href="#DejaVuSans-Bold-20" transform="translate(3477.929688 0)"/>
     <use xlink:href="#DejaVuSans-Bold-32" transform="translate(3512.744141 0)"/>
     <use xlink:href="#DejaVuSans-Bold-30" transform="translate(3582.324219 0)"/>
     <use xlink:href="#DejaVuSans-Bold-32" transform="translate(3651.904297 0)"/>
     <use xlink:href="#DejaVuSans-Bold-32" transform="translate(3721.484375 0)"/>
     <use xlink:href="#DejaVuSans-Bold-29" transform="translate(3791.064453 0)"/>
    </g>
   </g>
  </g>
 </g>
 <defs>
  <clipPath id="pa4e596e504">
   <rect x="59.409688" y="39.3575" width="645.2125" height="328.4"/>
  </clipPath>
 </defs>
</svg>
