<?xml version="1.0" encoding="utf-8" standalone="no"?>
<!DOCTYPE svg PUBLIC "-//W3C//DTD SVG 1.1//EN"
  "http://www.w3.org/Graphics/SVG/1.1/DTD/svg11.dtd">
<svg xmlns:xlink="http://www.w3.org/1999/xlink" width="711.822187pt" height="423.989062pt" viewBox="0 0 711.822187 423.989062" xmlns="http://www.w3.org/2000/svg" version="1.1">
 <metadata>
  <rdf:RDF xmlns:dc="http://purl.org/dc/elements/1.1/" xmlns:cc="http://creativecommons.org/ns#" xmlns:rdf="http://www.w3.org/1999/02/22-rdf-syntax-ns#">
   <cc:Work>
    <dc:type rdf:resource="http://purl.org/dc/dcmitype/StillImage"/>
    <dc:date>2025-10-02T11:22:56.553626</dc:date>
    <dc:format>image/svg+xml</dc:format>
    <dc:creator>
     <cc:Agent>
      <dc:title>Matplotlib v3.10.6, https://matplotlib.org/</dc:title>
     </cc:Agent>
    </dc:creator>
   </cc:Work>
  </rdf:RDF>
 </metadata>
 <defs>
  <style type="text/css">*{stroke-linejoin: round; stroke-linecap: butt}</style>
 </defs>
 <g id="figure_1">
  <g id="patch_1">
   <path d="M 0 423.989062 
L 711.822187 423.989062 
L 711.822187 0 
L 0 0 
z
" style="fill: #ffffff"/>
  </g>
  <g id="axes_1">
   <g id="patch_2">
    <path d="M 59.409688 367.7575 
L 704.622187 367.7575 
L 704.622187 39.3575 
L 59.409688 39.3575 
z
" style="fill: #ffffff"/>
   </g>
   <g id="FillBetweenPolyCollection_1"/>
   <g id="matplotlib.axis_1">
    <g id="xtick_1">
     <g id="line2d_1">
      <path d="M 97.265482 367.7575 
L 97.265482 39.3575 
" clip-path="url(#p64a1fcb858)" style="fill: none; stroke: #b0b0b0; stroke-opacity: 0.3; stroke-width: 0.5; stroke-linecap: square"/>
     </g>
     <g id="line2d_2">
      <defs>
       <path id="m6637267835" d="M 0 0 
L 0 3.5 
" style="stroke: #000000; stroke-width: 0.8"/>
      </defs>
      <g>
       <use xlink:href="#m6637267835" x="97.265482" y="367.7575" style="stroke: #000000; stroke-width: 0.8"/>
      </g>
     </g>
     <g id="text_1">
      <!-- 2005 -->
      <g transform="translate(100.024857 400.2075) rotate(-90) scale(0.1 -0.1)">
       <defs>
        <path id="DejaVuSans-32" d="M 1228 531 
L 3431 531 
L 3431 0 
L 469 0 
L 469 531 
Q 828 903 1448 1529 
Q 2069 2156 2228 2338 
Q 2531 2678 2651 2914 
Q 2772 3150 2772 3378 
Q 2772 3750 2511 3984 
Q 2250 4219 1831 4219 
Q 1534 4219 1204 4116 
Q 875 4013 500 3803 
L 500 4441 
Q 881 4594 1212 4672 
Q 1544 4750 1819 4750 
Q 2544 4750 2975 4387 
Q 3406 4025 3406 3419 
Q 3406 3131 3298 2873 
Q 3191 2616 2906 2266 
Q 2828 2175 2409 1742 
Q 1991 1309 1228 531 
z
" transform="scale(0.015625)"/>
        <path id="DejaVuSans-30" d="M 2034 4250 
Q 1547 4250 1301 3770 
Q 1056 3291 1056 2328 
Q 1056 1369 1301 889 
Q 1547 409 2034 409 
Q 2525 409 2770 889 
Q 3016 1369 3016 2328 
Q 3016 3291 2770 3770 
Q 2525 4250 2034 4250 
z
M 2034 4750 
Q 2819 4750 3233 4129 
Q 3647 3509 3647 2328 
Q 3647 1150 3233 529 
Q 2819 -91 2034 -91 
Q 1250 -91 836 529 
Q 422 1150 422 2328 
Q 422 3509 836 4129 
Q 1250 4750 2034 4750 
z
" transform="scale(0.015625)"/>
        <path id="DejaVuSans-35" d="M 691 4666 
L 3169 4666 
L 3169 4134 
L 1269 4134 
L 1269 2991 
Q 1406 3038 1543 3061 
Q 1681 3084 1819 3084 
Q 2600 3084 3056 2656 
Q 3513 2228 3513 1497 
Q 3513 744 3044 326 
Q 2575 -91 1722 -91 
Q 1428 -91 1123 -41 
Q 819 9 494 109 
L 494 744 
Q 775 591 1075 516 
Q 1375 441 1709 441 
Q 2250 441 2565 725 
Q 2881 1009 2881 1497 
Q 2881 1984 2565 2268 
Q 2250 2553 1709 2553 
Q 1456 2553 1204 2497 
Q 953 2441 691 2322 
L 691 4666 
z
" transform="scale(0.015625)"/>
       </defs>
       <use xlink:href="#DejaVuSans-32"/>
       <use xlink:href="#DejaVuSans-30" transform="translate(63.623047 0)"/>
       <use xlink:href="#DejaVuSans-30" transform="translate(127.246094 0)"/>
       <use xlink:href="#DejaVuSans-35" transform="translate(190.869141 0)"/>
      </g>
     </g>
    </g>
    <g id="xtick_2">
     <g id="line2d_3">
      <path d="M 135.225276 367.7575 
L 135.225276 39.3575 
" clip-path="url(#p64a1fcb858)" style="fill: none; stroke: #b0b0b0; stroke-opacity: 0.3; stroke-width: 0.5; stroke-linecap: square"/>
     </g>
     <g id="line2d_4">
      <g>
       <use xlink:href="#m6637267835" x="135.225276" y="367.7575" style="stroke: #000000; stroke-width: 0.8"/>
      </g>
     </g>
     <g id="text_2">
      <!-- 2006 -->
      <g transform="translate(137.984651 400.2075) rotate(-90) scale(0.1 -0.1)">
       <defs>
        <path id="DejaVuSans-36" d="M 2113 2584 
Q 1688 2584 1439 2293 
Q 1191 2003 1191 1497 
Q 1191 994 1439 701 
Q 1688 409 2113 409 
Q 2538 409 2786 701 
Q 3034 994 3034 1497 
Q 3034 2003 2786 2293 
Q 2538 2584 2113 2584 
z
M 3366 4563 
L 3366 3988 
Q 3128 4100 2886 4159 
Q 2644 4219 2406 4219 
Q 1781 4219 1451 3797 
Q 1122 3375 1075 2522 
Q 1259 2794 1537 2939 
Q 1816 3084 2150 3084 
Q 2853 3084 3261 2657 
Q 3669 2231 3669 1497 
Q 3669 778 3244 343 
Q 2819 -91 2113 -91 
Q 1303 -91 875 529 
Q 447 1150 447 2328 
Q 447 3434 972 4092 
Q 1497 4750 2381 4750 
Q 2619 4750 2861 4703 
Q 3103 4656 3366 4563 
z
" transform="scale(0.015625)"/>
       </defs>
       <use xlink:href="#DejaVuSans-32"/>
       <use xlink:href="#DejaVuSans-30" transform="translate(63.623047 0)"/>
       <use xlink:href="#DejaVuSans-30" transform="translate(127.246094 0)"/>
       <use xlink:href="#DejaVuSans-36" transform="translate(190.869141 0)"/>
      </g>
     </g>
    </g>
    <g id="xtick_3">
     <g id="line2d_5">
      <path d="M 173.18507 367.7575 
L 173.18507 39.3575 
" clip-path="url(#p64a1fcb858)" style="fill: none; stroke: #b0b0b0; stroke-opacity: 0.3; stroke-width: 0.5; stroke-linecap: square"/>
     </g>
     <g id="line2d_6">
      <g>
       <use xlink:href="#m6637267835" x="173.18507" y="367.7575" style="stroke: #000000; stroke-width: 0.8"/>
      </g>
     </g>
     <g id="text_3">
      <!-- 2007 -->
      <g transform="translate(175.944445 400.2075) rotate(-90) scale(0.1 -0.1)">
       <defs>
        <path id="DejaVuSans-37" d="M 525 4666 
L 3525 4666 
L 3525 4397 
L 1831 0 
L 1172 0 
L 2766 4134 
L 525 4134 
L 525 4666 
z
" transform="scale(0.015625)"/>
       </defs>
       <use xlink:href="#DejaVuSans-32"/>
       <use xlink:href="#DejaVuSans-30" transform="translate(63.623047 0)"/>
       <use xlink:href="#DejaVuSans-30" transform="translate(127.246094 0)"/>
       <use xlink:href="#DejaVuSans-37" transform="translate(190.869141 0)"/>
      </g>
     </g>
    </g>
    <g id="xtick_4">
     <g id="line2d_7">
      <path d="M 211.248864 367.7575 
L 211.248864 39.3575 
" clip-path="url(#p64a1fcb858)" style="fill: none; stroke: #b0b0b0; stroke-opacity: 0.3; stroke-width: 0.5; stroke-linecap: square"/>
     </g>
     <g id="line2d_8">
      <g>
       <use xlink:href="#m6637267835" x="211.248864" y="367.7575" style="stroke: #000000; stroke-width: 0.8"/>
      </g>
     </g>
     <g id="text_4">
      <!-- 2008 -->
      <g transform="translate(214.008239 400.2075) rotate(-90) scale(0.1 -0.1)">
       <defs>
        <path id="DejaVuSans-38" d="M 2034 2216 
Q 1584 2216 1326 1975 
Q 1069 1734 1069 1313 
Q 1069 891 1326 650 
Q 1584 409 2034 409 
Q 2484 409 2743 651 
Q 3003 894 3003 1313 
Q 3003 1734 2745 1975 
Q 2488 2216 2034 2216 
z
M 1403 2484 
Q 997 2584 770 2862 
Q 544 3141 544 3541 
Q 544 4100 942 4425 
Q 1341 4750 2034 4750 
Q 2731 4750 3128 4425 
Q 3525 4100 3525 3541 
Q 3525 3141 3298 2862 
Q 3072 2584 2669 2484 
Q 3125 2378 3379 2068 
Q 3634 1759 3634 1313 
Q 3634 634 3220 271 
Q 2806 -91 2034 -91 
Q 1263 -91 848 271 
Q 434 634 434 1313 
Q 434 1759 690 2068 
Q 947 2378 1403 2484 
z
M 1172 3481 
Q 1172 3119 1398 2916 
Q 1625 2713 2034 2713 
Q 2441 2713 2670 2916 
Q 2900 3119 2900 3481 
Q 2900 3844 2670 4047 
Q 2441 4250 2034 4250 
Q 1625 4250 1398 4047 
Q 1172 3844 1172 3481 
z
" transform="scale(0.015625)"/>
       </defs>
       <use xlink:href="#DejaVuSans-32"/>
       <use xlink:href="#DejaVuSans-30" transform="translate(63.623047 0)"/>
       <use xlink:href="#DejaVuSans-30" transform="translate(127.246094 0)"/>
       <use xlink:href="#DejaVuSans-38" transform="translate(190.869141 0)"/>
      </g>
     </g>
    </g>
    <g id="xtick_5">
     <g id="line2d_9">
      <path d="M 249.208658 367.7575 
L 249.208658 39.3575 
" clip-path="url(#p64a1fcb858)" style="fill: none; stroke: #b0b0b0; stroke-opacity: 0.3; stroke-width: 0.5; stroke-linecap: square"/>
     </g>
     <g id="line2d_10">
      <g>
       <use xlink:href="#m6637267835" x="249.208658" y="367.7575" style="stroke: #000000; stroke-width: 0.8"/>
      </g>
     </g>
     <g id="text_5">
      <!-- 2009 -->
      <g transform="translate(251.968033 400.2075) rotate(-90) scale(0.1 -0.1)">
       <defs>
        <path id="DejaVuSans-39" d="M 703 97 
L 703 672 
Q 941 559 1184 500 
Q 1428 441 1663 441 
Q 2288 441 2617 861 
Q 2947 1281 2994 2138 
Q 2813 1869 2534 1725 
Q 2256 1581 1919 1581 
Q 1219 1581 811 2004 
Q 403 2428 403 3163 
Q 403 3881 828 4315 
Q 1253 4750 1959 4750 
Q 2769 4750 3195 4129 
Q 3622 3509 3622 2328 
Q 3622 1225 3098 567 
Q 2575 -91 1691 -91 
Q 1453 -91 1209 -44 
Q 966 3 703 97 
z
M 1959 2075 
Q 2384 2075 2632 2365 
Q 2881 2656 2881 3163 
Q 2881 3666 2632 3958 
Q 2384 4250 1959 4250 
Q 1534 4250 1286 3958 
Q 1038 3666 1038 3163 
Q 1038 2656 1286 2365 
Q 1534 2075 1959 2075 
z
" transform="scale(0.015625)"/>
       </defs>
       <use xlink:href="#DejaVuSans-32"/>
       <use xlink:href="#DejaVuSans-30" transform="translate(63.623047 0)"/>
       <use xlink:href="#DejaVuSans-30" transform="translate(127.246094 0)"/>
       <use xlink:href="#DejaVuSans-39" transform="translate(190.869141 0)"/>
      </g>
     </g>
    </g>
    <g id="xtick_6">
     <g id="line2d_11">
      <path d="M 287.168452 367.7575 
L 287.168452 39.3575 
" clip-path="url(#p64a1fcb858)" style="fill: none; stroke: #b0b0b0; stroke-opacity: 0.3; stroke-width: 0.5; stroke-linecap: square"/>
     </g>
     <g id="line2d_12">
      <g>
       <use xlink:href="#m6637267835" x="287.168452" y="367.7575" style="stroke: #000000; stroke-width: 0.8"/>
      </g>
     </g>
     <g id="text_6">
      <!-- 2010 -->
      <g transform="translate(289.927827 400.2075) rotate(-90) scale(0.1 -0.1)">
       <defs>
        <path id="DejaVuSans-31" d="M 794 531 
L 1825 531 
L 1825 4091 
L 703 3866 
L 703 4441 
L 1819 4666 
L 2450 4666 
L 2450 531 
L 3481 531 
L 3481 0 
L 794 0 
L 794 531 
z
" transform="scale(0.015625)"/>
       </defs>
       <use xlink:href="#DejaVuSans-32"/>
       <use xlink:href="#DejaVuSans-30" transform="translate(63.623047 0)"/>
       <use xlink:href="#DejaVuSans-31" transform="translate(127.246094 0)"/>
       <use xlink:href="#DejaVuSans-30" transform="translate(190.869141 0)"/>
      </g>
     </g>
    </g>
    <g id="xtick_7">
     <g id="line2d_13">
      <path d="M 325.128246 367.7575 
L 325.128246 39.3575 
" clip-path="url(#p64a1fcb858)" style="fill: none; stroke: #b0b0b0; stroke-opacity: 0.3; stroke-width: 0.5; stroke-linecap: square"/>
     </g>
     <g id="line2d_14">
      <g>
       <use xlink:href="#m6637267835" x="325.128246" y="367.7575" style="stroke: #000000; stroke-width: 0.8"/>
      </g>
     </g>
     <g id="text_7">
      <!-- 2011 -->
      <g transform="translate(327.887621 400.2075) rotate(-90) scale(0.1 -0.1)">
       <use xlink:href="#DejaVuSans-32"/>
       <use xlink:href="#DejaVuSans-30" transform="translate(63.623047 0)"/>
       <use xlink:href="#DejaVuSans-31" transform="translate(127.246094 0)"/>
       <use xlink:href="#DejaVuSans-31" transform="translate(190.869141 0)"/>
      </g>
     </g>
    </g>
    <g id="xtick_8">
     <g id="line2d_15">
      <path d="M 363.19204 367.7575 
L 363.19204 39.3575 
" clip-path="url(#p64a1fcb858)" style="fill: none; stroke: #b0b0b0; stroke-opacity: 0.3; stroke-width: 0.5; stroke-linecap: square"/>
     </g>
     <g id="line2d_16">
      <g>
       <use xlink:href="#m6637267835" x="363.19204" y="367.7575" style="stroke: #000000; stroke-width: 0.8"/>
      </g>
     </g>
     <g id="text_8">
      <!-- 2012 -->
      <g transform="translate(365.951415 400.2075) rotate(-90) scale(0.1 -0.1)">
       <use xlink:href="#DejaVuSans-32"/>
       <use xlink:href="#DejaVuSans-30" transform="translate(63.623047 0)"/>
       <use xlink:href="#DejaVuSans-31" transform="translate(127.246094 0)"/>
       <use xlink:href="#DejaVuSans-32" transform="translate(190.869141 0)"/>
      </g>
     </g>
    </g>
    <g id="xtick_9">
     <g id="line2d_17">
      <path d="M 401.151834 367.7575 
L 401.151834 39.3575 
" clip-path="url(#p64a1fcb858)" style="fill: none; stroke: #b0b0b0; stroke-opacity: 0.3; stroke-width: 0.5; stroke-linecap: square"/>
     </g>
     <g id="line2d_18">
      <g>
       <use xlink:href="#m6637267835" x="401.151834" y="367.7575" style="stroke: #000000; stroke-width: 0.8"/>
      </g>
     </g>
     <g id="text_9">
      <!-- 2013 -->
      <g transform="translate(403.911209 400.2075) rotate(-90) scale(0.1 -0.1)">
       <defs>
        <path id="DejaVuSans-33" d="M 2597 2516 
Q 3050 2419 3304 2112 
Q 3559 1806 3559 1356 
Q 3559 666 3084 287 
Q 2609 -91 1734 -91 
Q 1441 -91 1130 -33 
Q 819 25 488 141 
L 488 750 
Q 750 597 1062 519 
Q 1375 441 1716 441 
Q 2309 441 2620 675 
Q 2931 909 2931 1356 
Q 2931 1769 2642 2001 
Q 2353 2234 1838 2234 
L 1294 2234 
L 1294 2753 
L 1863 2753 
Q 2328 2753 2575 2939 
Q 2822 3125 2822 3475 
Q 2822 3834 2567 4026 
Q 2313 4219 1838 4219 
Q 1578 4219 1281 4162 
Q 984 4106 628 3988 
L 628 4550 
Q 988 4650 1302 4700 
Q 1616 4750 1894 4750 
Q 2613 4750 3031 4423 
Q 3450 4097 3450 3541 
Q 3450 3153 3228 2886 
Q 3006 2619 2597 2516 
z
" transform="scale(0.015625)"/>
       </defs>
       <use xlink:href="#DejaVuSans-32"/>
       <use xlink:href="#DejaVuSans-30" transform="translate(63.623047 0)"/>
       <use xlink:href="#DejaVuSans-31" transform="translate(127.246094 0)"/>
       <use xlink:href="#DejaVuSans-33" transform="translate(190.869141 0)"/>
      </g>
     </g>
    </g>
    <g id="xtick_10">
     <g id="line2d_19">
      <path d="M 439.111628 367.7575 
L 439.111628 39.3575 
" clip-path="url(#p64a1fcb858)" style="fill: none; stroke: #b0b0b0; stroke-opacity: 0.3; stroke-width: 0.5; stroke-linecap: square"/>
     </g>
     <g id="line2d_20">
      <g>
       <use xlink:href="#m6637267835" x="439.111628" y="367.7575" style="stroke: #000000; stroke-width: 0.8"/>
      </g>
     </g>
     <g id="text_10">
      <!-- 2014 -->
      <g transform="translate(441.871003 400.2075) rotate(-90) scale(0.1 -0.1)">
       <defs>
        <path id="DejaVuSans-34" d="M 2419 4116 
L 825 1625 
L 2419 1625 
L 2419 4116 
z
M 2253 4666 
L 3047 4666 
L 3047 1625 
L 3713 1625 
L 3713 1100 
L 3047 1100 
L 3047 0 
L 2419 0 
L 2419 1100 
L 313 1100 
L 313 1709 
L 2253 4666 
z
" transform="scale(0.015625)"/>
       </defs>
       <use xlink:href="#DejaVuSans-32"/>
       <use xlink:href="#DejaVuSans-30" transform="translate(63.623047 0)"/>
       <use xlink:href="#DejaVuSans-31" transform="translate(127.246094 0)"/>
       <use xlink:href="#DejaVuSans-34" transform="translate(190.869141 0)"/>
      </g>
     </g>
    </g>
    <g id="xtick_11">
     <g id="line2d_21">
      <path d="M 477.071422 367.7575 
L 477.071422 39.3575 
" clip-path="url(#p64a1fcb858)" style="fill: none; stroke: #b0b0b0; stroke-opacity: 0.3; stroke-width: 0.5; stroke-linecap: square"/>
     </g>
     <g id="line2d_22">
      <g>
       <use xlink:href="#m6637267835" x="477.071422" y="367.7575" style="stroke: #000000; stroke-width: 0.8"/>
      </g>
     </g>
     <g id="text_11">
      <!-- 2015 -->
      <g transform="translate(479.830797 400.2075) rotate(-90) scale(0.1 -0.1)">
       <use xlink:href="#DejaVuSans-32"/>
       <use xlink:href="#DejaVuSans-30" transform="translate(63.623047 0)"/>
       <use xlink:href="#DejaVuSans-31" transform="translate(127.246094 0)"/>
       <use xlink:href="#DejaVuSans-35" transform="translate(190.869141 0)"/>
      </g>
     </g>
    </g>
    <g id="xtick_12">
     <g id="line2d_23">
      <path d="M 515.135215 367.7575 
L 515.135215 39.3575 
" clip-path="url(#p64a1fcb858)" style="fill: none; stroke: #b0b0b0; stroke-opacity: 0.3; stroke-width: 0.5; stroke-linecap: square"/>
     </g>
     <g id="line2d_24">
      <g>
       <use xlink:href="#m6637267835" x="515.135215" y="367.7575" style="stroke: #000000; stroke-width: 0.8"/>
      </g>
     </g>
     <g id="text_12">
      <!-- 2016 -->
      <g transform="translate(517.89459 400.2075) rotate(-90) scale(0.1 -0.1)">
       <use xlink:href="#DejaVuSans-32"/>
       <use xlink:href="#DejaVuSans-30" transform="translate(63.623047 0)"/>
       <use xlink:href="#DejaVuSans-31" transform="translate(127.246094 0)"/>
       <use xlink:href="#DejaVuSans-36" transform="translate(190.869141 0)"/>
      </g>
     </g>
    </g>
    <g id="xtick_13">
     <g id="line2d_25">
      <path d="M 553.095009 367.7575 
L 553.095009 39.3575 
" clip-path="url(#p64a1fcb858)" style="fill: none; stroke: #b0b0b0; stroke-opacity: 0.3; stroke-width: 0.5; stroke-linecap: square"/>
     </g>
     <g id="line2d_26">
      <g>
       <use xlink:href="#m6637267835" x="553.095009" y="367.7575" style="stroke: #000000; stroke-width: 0.8"/>
      </g>
     </g>
     <g id="text_13">
      <!-- 2017 -->
      <g transform="translate(555.854384 400.2075) rotate(-90) scale(0.1 -0.1)">
       <use xlink:href="#DejaVuSans-32"/>
       <use xlink:href="#DejaVuSans-30" transform="translate(63.623047 0)"/>
       <use xlink:href="#DejaVuSans-31" transform="translate(127.246094 0)"/>
       <use xlink:href="#DejaVuSans-37" transform="translate(190.869141 0)"/>
      </g>
     </g>
    </g>
    <g id="xtick_14">
     <g id="line2d_27">
      <path d="M 591.054804 367.7575 
L 591.054804 39.3575 
" clip-path="url(#p64a1fcb858)" style="fill: none; stroke: #b0b0b0; stroke-opacity: 0.3; stroke-width: 0.5; stroke-linecap: square"/>
     </g>
     <g id="line2d_28">
      <g>
       <use xlink:href="#m6637267835" x="591.054804" y="367.7575" style="stroke: #000000; stroke-width: 0.8"/>
      </g>
     </g>
     <g id="text_14">
      <!-- 2018 -->
      <g transform="translate(593.814179 400.2075) rotate(-90) scale(0.1 -0.1)">
       <use xlink:href="#DejaVuSans-32"/>
       <use xlink:href="#DejaVuSans-30" transform="translate(63.623047 0)"/>
       <use xlink:href="#DejaVuSans-31" transform="translate(127.246094 0)"/>
       <use xlink:href="#DejaVuSans-38" transform="translate(190.869141 0)"/>
      </g>
     </g>
    </g>
    <g id="xtick_15">
     <g id="line2d_29">
      <path d="M 629.014598 367.7575 
L 629.014598 39.3575 
" clip-path="url(#p64a1fcb858)" style="fill: none; stroke: #b0b0b0; stroke-opacity: 0.3; stroke-width: 0.5; stroke-linecap: square"/>
     </g>
     <g id="line2d_30">
      <g>
       <use xlink:href="#m6637267835" x="629.014598" y="367.7575" style="stroke: #000000; stroke-width: 0.8"/>
      </g>
     </g>
     <g id="text_15">
      <!-- 2019 -->
      <g transform="translate(631.773973 400.2075) rotate(-90) scale(0.1 -0.1)">
       <use xlink:href="#DejaVuSans-32"/>
       <use xlink:href="#DejaVuSans-30" transform="translate(63.623047 0)"/>
       <use xlink:href="#DejaVuSans-31" transform="translate(127.246094 0)"/>
       <use xlink:href="#DejaVuSans-39" transform="translate(190.869141 0)"/>
      </g>
     </g>
    </g>
    <g id="xtick_16">
     <g id="line2d_31">
      <path d="M 667.078391 367.7575 
L 667.078391 39.3575 
" clip-path="url(#p64a1fcb858)" style="fill: none; stroke: #b0b0b0; stroke-opacity: 0.3; stroke-width: 0.5; stroke-linecap: square"/>
     </g>
     <g id="line2d_32">
      <g>
       <use xlink:href="#m6637267835" x="667.078391" y="367.7575" style="stroke: #000000; stroke-width: 0.8"/>
      </g>
     </g>
     <g id="text_16">
      <!-- 2020 -->
      <g transform="translate(669.837766 400.2075) rotate(-90) scale(0.1 -0.1)">
       <use xlink:href="#DejaVuSans-32"/>
       <use xlink:href="#DejaVuSans-30" transform="translate(63.623047 0)"/>
       <use xlink:href="#DejaVuSans-32" transform="translate(127.246094 0)"/>
       <use xlink:href="#DejaVuSans-30" transform="translate(190.869141 0)"/>
      </g>
     </g>
    </g>
    <g id="text_17">
     <!-- Date -->
     <g transform="translate(366.479922 414.085469) scale(0.13 -0.13)">
      <defs>
       <path id="DejaVuSans-44" d="M 1259 4147 
L 1259 519 
L 2022 519 
Q 2988 519 3436 956 
Q 3884 1394 3884 2338 
Q 3884 3275 3436 3711 
Q 2988 4147 2022 4147 
L 1259 4147 
z
M 628 4666 
L 1925 4666 
Q 3281 4666 3915 4102 
Q 4550 3538 4550 2338 
Q 4550 1131 3912 565 
Q 3275 0 1925 0 
L 628 0 
L 628 4666 
z
" transform="scale(0.015625)"/>
       <path id="DejaVuSans-61" d="M 2194 1759 
Q 1497 1759 1228 1600 
Q 959 1441 959 1056 
Q 959 750 1161 570 
Q 1363 391 1709 391 
Q 2188 391 2477 730 
Q 2766 1069 2766 1631 
L 2766 1759 
L 2194 1759 
z
M 3341 1997 
L 3341 0 
L 2766 0 
L 2766 531 
Q 2569 213 2275 61 
Q 1981 -91 1556 -91 
Q 1019 -91 701 211 
Q 384 513 384 1019 
Q 384 1609 779 1909 
Q 1175 2209 1959 2209 
L 2766 2209 
L 2766 2266 
Q 2766 2663 2505 2880 
Q 2244 3097 1772 3097 
Q 1472 3097 1187 3025 
Q 903 2953 641 2809 
L 641 3341 
Q 956 3463 1253 3523 
Q 1550 3584 1831 3584 
Q 2591 3584 2966 3190 
Q 3341 2797 3341 1997 
z
" transform="scale(0.015625)"/>
       <path id="DejaVuSans-74" d="M 1172 4494 
L 1172 3500 
L 2356 3500 
L 2356 3053 
L 1172 3053 
L 1172 1153 
Q 1172 725 1289 603 
Q 1406 481 1766 481 
L 2356 481 
L 2356 0 
L 1766 0 
Q 1100 0 847 248 
Q 594 497 594 1153 
L 594 3053 
L 172 3053 
L 172 3500 
L 594 3500 
L 594 4494 
L 1172 4494 
z
" transform="scale(0.015625)"/>
       <path id="DejaVuSans-65" d="M 3597 1894 
L 3597 1613 
L 953 1613 
Q 991 1019 1311 708 
Q 1631 397 2203 397 
Q 2534 397 2845 478 
Q 3156 559 3463 722 
L 3463 178 
Q 3153 47 2828 -22 
Q 2503 -91 2169 -91 
Q 1331 -91 842 396 
Q 353 884 353 1716 
Q 353 2575 817 3079 
Q 1281 3584 2069 3584 
Q 2775 3584 3186 3129 
Q 3597 2675 3597 1894 
z
M 3022 2063 
Q 3016 2534 2758 2815 
Q 2500 3097 2075 3097 
Q 1594 3097 1305 2825 
Q 1016 2553 972 2059 
L 3022 2063 
z
" transform="scale(0.015625)"/>
      </defs>
      <use xlink:href="#DejaVuSans-44"/>
      <use xlink:href="#DejaVuSans-61" transform="translate(77.001953 0)"/>
      <use xlink:href="#DejaVuSans-74" transform="translate(138.28125 0)"/>
      <use xlink:href="#DejaVuSans-65" transform="translate(177.490234 0)"/>
     </g>
    </g>
   </g>
   <g id="matplotlib.axis_2">
    <g id="ytick_1">
     <g id="line2d_33">
      <path d="M 59.409688 367.7575 
L 704.622187 367.7575 
" clip-path="url(#p64a1fcb858)" style="fill: none; stroke: #b0b0b0; stroke-opacity: 0.3; stroke-width: 0.5; stroke-linecap: square"/>
     </g>
     <g id="line2d_34">
      <defs>
       <path id="m173e666628" d="M 0 0 
L -3.5 0 
" style="stroke: #000000; stroke-width: 0.8"/>
      </defs>
      <g>
       <use xlink:href="#m173e666628" x="59.409688" y="367.7575" style="stroke: #000000; stroke-width: 0.8"/>
      </g>
     </g>
     <g id="text_18">
      <!-- $0.00 -->
      <g transform="translate(23.781563 371.556719) scale(0.1 -0.1)">
       <defs>
        <path id="DejaVuSans-24" d="M 2163 -941 
L 1850 -941 
L 1847 0 
Q 1519 6 1191 76 
Q 863 147 531 288 
L 531 850 
Q 850 650 1176 548 
Q 1503 447 1850 444 
L 1850 1869 
Q 1159 1981 845 2250 
Q 531 2519 531 2988 
Q 531 3497 872 3790 
Q 1213 4084 1850 4128 
L 1850 4863 
L 2163 4863 
L 2163 4138 
Q 2453 4125 2725 4076 
Q 2997 4028 3256 3944 
L 3256 3397 
Q 2997 3528 2723 3600 
Q 2450 3672 2163 3684 
L 2163 2350 
Q 2872 2241 3206 1959 
Q 3541 1678 3541 1191 
Q 3541 663 3186 358 
Q 2831 53 2163 6 
L 2163 -941 
z
M 1850 2406 
L 1850 3688 
Q 1488 3647 1297 3481 
Q 1106 3316 1106 3041 
Q 1106 2772 1282 2622 
Q 1459 2472 1850 2406 
z
M 2163 1806 
L 2163 453 
Q 2559 506 2761 678 
Q 2963 850 2963 1131 
Q 2963 1406 2770 1568 
Q 2578 1731 2163 1806 
z
" transform="scale(0.015625)"/>
        <path id="DejaVuSans-2e" d="M 684 794 
L 1344 794 
L 1344 0 
L 684 0 
L 684 794 
z
" transform="scale(0.015625)"/>
       </defs>
       <use xlink:href="#DejaVuSans-24"/>
       <use xlink:href="#DejaVuSans-30" transform="translate(63.623047 0)"/>
       <use xlink:href="#DejaVuSans-2e" transform="translate(127.246094 0)"/>
       <use xlink:href="#DejaVuSans-30" transform="translate(159.033203 0)"/>
       <use xlink:href="#DejaVuSans-30" transform="translate(222.65625 0)"/>
      </g>
     </g>
    </g>
    <g id="ytick_2">
     <g id="line2d_35">
      <path d="M 59.409688 334.9175 
L 704.622187 334.9175 
" clip-path="url(#p64a1fcb858)" style="fill: none; stroke: #b0b0b0; stroke-opacity: 0.3; stroke-width: 0.5; stroke-linecap: square"/>
     </g>
     <g id="line2d_36">
      <g>
       <use xlink:href="#m173e666628" x="59.409688" y="334.9175" style="stroke: #000000; stroke-width: 0.8"/>
      </g>
     </g>
     <g id="text_19">
      <!-- $0.50 -->
      <g transform="translate(23.781563 338.716719) scale(0.1 -0.1)">
       <use xlink:href="#DejaVuSans-24"/>
       <use xlink:href="#DejaVuSans-30" transform="translate(63.623047 0)"/>
       <use xlink:href="#DejaVuSans-2e" transform="translate(127.246094 0)"/>
       <use xlink:href="#DejaVuSans-35" transform="translate(159.033203 0)"/>
       <use xlink:href="#DejaVuSans-30" transform="translate(222.65625 0)"/>
      </g>
     </g>
    </g>
    <g id="ytick_3">
     <g id="line2d_37">
      <path d="M 59.409688 302.0775 
L 704.622187 302.0775 
" clip-path="url(#p64a1fcb858)" style="fill: none; stroke: #b0b0b0; stroke-opacity: 0.3; stroke-width: 0.5; stroke-linecap: square"/>
     </g>
     <g id="line2d_38">
      <g>
       <use xlink:href="#m173e666628" x="59.409688" y="302.0775" style="stroke: #000000; stroke-width: 0.8"/>
      </g>
     </g>
     <g id="text_20">
      <!-- $1.00 -->
      <g transform="translate(23.781563 305.876719) scale(0.1 -0.1)">
       <use xlink:href="#DejaVuSans-24"/>
       <use xlink:href="#DejaVuSans-31" transform="translate(63.623047 0)"/>
       <use xlink:href="#DejaVuSans-2e" transform="translate(127.246094 0)"/>
       <use xlink:href="#DejaVuSans-30" transform="translate(159.033203 0)"/>
       <use xlink:href="#DejaVuSans-30" transform="translate(222.65625 0)"/>
      </g>
     </g>
    </g>
    <g id="ytick_4">
     <g id="line2d_39">
      <path d="M 59.409688 269.2375 
L 704.622187 269.2375 
" clip-path="url(#p64a1fcb858)" style="fill: none; stroke: #b0b0b0; stroke-opacity: 0.3; stroke-width: 0.5; stroke-linecap: square"/>
     </g>
     <g id="line2d_40">
      <g>
       <use xlink:href="#m173e666628" x="59.409688" y="269.2375" style="stroke: #000000; stroke-width: 0.8"/>
      </g>
     </g>
     <g id="text_21">
      <!-- $1.50 -->
      <g transform="translate(23.781563 273.036719) scale(0.1 -0.1)">
       <use xlink:href="#DejaVuSans-24"/>
       <use xlink:href="#DejaVuSans-31" transform="translate(63.623047 0)"/>
       <use xlink:href="#DejaVuSans-2e" transform="translate(127.246094 0)"/>
       <use xlink:href="#DejaVuSans-35" transform="translate(159.033203 0)"/>
       <use xlink:href="#DejaVuSans-30" transform="translate(222.65625 0)"/>
      </g>
     </g>
    </g>
    <g id="ytick_5">
     <g id="line2d_41">
      <path d="M 59.409688 236.3975 
L 704.622187 236.3975 
" clip-path="url(#p64a1fcb858)" style="fill: none; stroke: #b0b0b0; stroke-opacity: 0.3; stroke-width: 0.5; stroke-linecap: square"/>
     </g>
     <g id="line2d_42">
      <g>
       <use xlink:href="#m173e666628" x="59.409688" y="236.3975" style="stroke: #000000; stroke-width: 0.8"/>
      </g>
     </g>
     <g id="text_22">
      <!-- $2.00 -->
      <g transform="translate(23.781563 240.196719) scale(0.1 -0.1)">
       <use xlink:href="#DejaVuSans-24"/>
       <use xlink:href="#DejaVuSans-32" transform="translate(63.623047 0)"/>
       <use xlink:href="#DejaVuSans-2e" transform="translate(127.246094 0)"/>
       <use xlink:href="#DejaVuSans-30" transform="translate(159.033203 0)"/>
       <use xlink:href="#DejaVuSans-30" transform="translate(222.65625 0)"/>
      </g>
     </g>
    </g>
    <g id="ytick_6">
     <g id="line2d_43">
      <path d="M 59.409688 203.5575 
L 704.622187 203.5575 
" clip-path="url(#p64a1fcb858)" style="fill: none; stroke: #b0b0b0; stroke-opacity: 0.3; stroke-width: 0.5; stroke-linecap: square"/>
     </g>
     <g id="line2d_44">
      <g>
       <use xlink:href="#m173e666628" x="59.409688" y="203.5575" style="stroke: #000000; stroke-width: 0.8"/>
      </g>
     </g>
     <g id="text_23">
      <!-- $2.50 -->
      <g transform="translate(23.781563 207.356719) scale(0.1 -0.1)">
       <use xlink:href="#DejaVuSans-24"/>
       <use xlink:href="#DejaVuSans-32" transform="translate(63.623047 0)"/>
       <use xlink:href="#DejaVuSans-2e" transform="translate(127.246094 0)"/>
       <use xlink:href="#DejaVuSans-35" transform="translate(159.033203 0)"/>
       <use xlink:href="#DejaVuSans-30" transform="translate(222.65625 0)"/>
      </g>
     </g>
    </g>
    <g id="ytick_7">
     <g id="line2d_45">
      <path d="M 59.409688 170.7175 
L 704.622187 170.7175 
" clip-path="url(#p64a1fcb858)" style="fill: none; stroke: #b0b0b0; stroke-opacity: 0.3; stroke-width: 0.5; stroke-linecap: square"/>
     </g>
     <g id="line2d_46">
      <g>
       <use xlink:href="#m173e666628" x="59.409688" y="170.7175" style="stroke: #000000; stroke-width: 0.8"/>
      </g>
     </g>
     <g id="text_24">
      <!-- $3.00 -->
      <g transform="translate(23.781563 174.516719) scale(0.1 -0.1)">
       <use xlink:href="#DejaVuSans-24"/>
       <use xlink:href="#DejaVuSans-33" transform="translate(63.623047 0)"/>
       <use xlink:href="#DejaVuSans-2e" transform="translate(127.246094 0)"/>
       <use xlink:href="#DejaVuSans-30" transform="translate(159.033203 0)"/>
       <use xlink:href="#DejaVuSans-30" transform="translate(222.65625 0)"/>
      </g>
     </g>
    </g>
    <g id="ytick_8">
     <g id="line2d_47">
      <path d="M 59.409688 137.8775 
L 704.622187 137.8775 
" clip-path="url(#p64a1fcb858)" style="fill: none; stroke: #b0b0b0; stroke-opacity: 0.3; stroke-width: 0.5; stroke-linecap: square"/>
     </g>
     <g id="line2d_48">
      <g>
       <use xlink:href="#m173e666628" x="59.409688" y="137.8775" style="stroke: #000000; stroke-width: 0.8"/>
      </g>
     </g>
     <g id="text_25">
      <!-- $3.50 -->
      <g transform="translate(23.781563 141.676719) scale(0.1 -0.1)">
       <use xlink:href="#DejaVuSans-24"/>
       <use xlink:href="#DejaVuSans-33" transform="translate(63.623047 0)"/>
       <use xlink:href="#DejaVuSans-2e" transform="translate(127.246094 0)"/>
       <use xlink:href="#DejaVuSans-35" transform="translate(159.033203 0)"/>
       <use xlink:href="#DejaVuSans-30" transform="translate(222.65625 0)"/>
      </g>
     </g>
    </g>
    <g id="ytick_9">
     <g id="line2d_49">
      <path d="M 59.409688 105.0375 
L 704.622187 105.0375 
" clip-path="url(#p64a1fcb858)" style="fill: none; stroke: #b0b0b0; stroke-opacity: 0.3; stroke-width: 0.5; stroke-linecap: square"/>
     </g>
     <g id="line2d_50">
      <g>
       <use xlink:href="#m173e666628" x="59.409688" y="105.0375" style="stroke: #000000; stroke-width: 0.8"/>
      </g>
     </g>
     <g id="text_26">
      <!-- $4.00 -->
      <g transform="translate(23.781563 108.836719) scale(0.1 -0.1)">
       <use xlink:href="#DejaVuSans-24"/>
       <use xlink:href="#DejaVuSans-34" transform="translate(63.623047 0)"/>
       <use xlink:href="#DejaVuSans-2e" transform="translate(127.246094 0)"/>
       <use xlink:href="#DejaVuSans-30" transform="translate(159.033203 0)"/>
       <use xlink:href="#DejaVuSans-30" transform="translate(222.65625 0)"/>
      </g>
     </g>
    </g>
    <g id="ytick_10">
     <g id="line2d_51">
      <path d="M 59.409688 72.1975 
L 704.622187 72.1975 
" clip-path="url(#p64a1fcb858)" style="fill: none; stroke: #b0b0b0; stroke-opacity: 0.3; stroke-width: 0.5; stroke-linecap: square"/>
     </g>
     <g id="line2d_52">
      <g>
       <use xlink:href="#m173e666628" x="59.409688" y="72.1975" style="stroke: #000000; stroke-width: 0.8"/>
      </g>
     </g>
     <g id="text_27">
      <!-- $4.50 -->
      <g transform="translate(23.781563 75.996719) scale(0.1 -0.1)">
       <use xlink:href="#DejaVuSans-24"/>
       <use xlink:href="#DejaVuSans-34" transform="translate(63.623047 0)"/>
       <use xlink:href="#DejaVuSans-2e" transform="translate(127.246094 0)"/>
       <use xlink:href="#DejaVuSans-35" transform="translate(159.033203 0)"/>
       <use xlink:href="#DejaVuSans-30" transform="translate(222.65625 0)"/>
      </g>
     </g>
    </g>
    <g id="ytick_11">
     <g id="line2d_53">
      <path d="M 59.409688 39.3575 
L 704.622187 39.3575 
" clip-path="url(#p64a1fcb858)" style="fill: none; stroke: #b0b0b0; stroke-opacity: 0.3; stroke-width: 0.5; stroke-linecap: square"/>
     </g>
     <g id="line2d_54">
      <g>
       <use xlink:href="#m173e666628" x="59.409688" y="39.3575" style="stroke: #000000; stroke-width: 0.8"/>
      </g>
     </g>
     <g id="text_28">
      <!-- $5.00 -->
      <g transform="translate(23.781563 43.156719) scale(0.1 -0.1)">
       <use xlink:href="#DejaVuSans-24"/>
       <use xlink:href="#DejaVuSans-35" transform="translate(63.623047 0)"/>
       <use xlink:href="#DejaVuSans-2e" transform="translate(127.246094 0)"/>
       <use xlink:href="#DejaVuSans-30" transform="translate(159.033203 0)"/>
       <use xlink:href="#DejaVuSans-30" transform="translate(222.65625 0)"/>
      </g>
     </g>
    </g>
    <g id="text_29">
     <!-- USD -->
     <g transform="translate(17.077969 217.446172) rotate(-90) scale(0.13 -0.13)">
      <defs>
       <path id="DejaVuSans-55" d="M 556 4666 
L 1191 4666 
L 1191 1831 
Q 1191 1081 1462 751 
Q 1734 422 2344 422 
Q 2950 422 3222 751 
Q 3494 1081 3494 1831 
L 3494 4666 
L 4128 4666 
L 4128 1753 
Q 4128 841 3676 375 
Q 3225 -91 2344 -91 
Q 1459 -91 1007 375 
Q 556 841 556 1753 
L 556 4666 
z
" transform="scale(0.015625)"/>
       <path id="DejaVuSans-53" d="M 3425 4513 
L 3425 3897 
Q 3066 4069 2747 4153 
Q 2428 4238 2131 4238 
Q 1616 4238 1336 4038 
Q 1056 3838 1056 3469 
Q 1056 3159 1242 3001 
Q 1428 2844 1947 2747 
L 2328 2669 
Q 3034 2534 3370 2195 
Q 3706 1856 3706 1288 
Q 3706 609 3251 259 
Q 2797 -91 1919 -91 
Q 1588 -91 1214 -16 
Q 841 59 441 206 
L 441 856 
Q 825 641 1194 531 
Q 1563 422 1919 422 
Q 2459 422 2753 634 
Q 3047 847 3047 1241 
Q 3047 1584 2836 1778 
Q 2625 1972 2144 2069 
L 1759 2144 
Q 1053 2284 737 2584 
Q 422 2884 422 3419 
Q 422 4038 858 4394 
Q 1294 4750 2059 4750 
Q 2388 4750 2728 4690 
Q 3069 4631 3425 4513 
z
" transform="scale(0.015625)"/>
      </defs>
      <use xlink:href="#DejaVuSans-55"/>
      <use xlink:href="#DejaVuSans-53" transform="translate(73.193359 0)"/>
      <use xlink:href="#DejaVuSans-44" transform="translate(136.669922 0)"/>
     </g>
    </g>
   </g>
   <g id="line2d_55">
    <path d="M 58.88969 238.95902 
L 59.617686 240.73238 
L 60.345682 244.47614 
L 61.073678 244.47614 
L 61.801675 244.01638 
L 62.529671 239.94422 
L 63.257667 238.56494 
L 63.985663 235.67502 
L 66.169651 221.35678 
L 66.897647 219.3207 
L 67.625643 215.83966 
L 68.353639 214.98582 
L 69.809631 210.19118 
L 70.537627 211.50478 
L 71.265623 212.03022 
L 71.993619 213.0811 
L 72.721615 215.51126 
L 73.449611 218.86094 
L 74.177607 222.80174 
L 74.905603 224.64078 
L 75.633599 223.85262 
L 76.361596 222.6047 
L 77.089592 220.89702 
L 77.817588 217.48166 
L 78.545584 214.85446 
L 79.27358 209.60006 
L 80.001576 208.1551 
L 80.729572 209.7971 
L 81.457568 208.74622 
L 82.185564 204.47702 
L 82.91356 196.0043 
L 83.641556 191.80078 
L 84.369552 188.71382 
L 85.097548 172.29382 
L 85.825544 173.54174 
L 86.55354 177.15414 
L 87.281536 174.78966 
L 88.009532 165.52878 
L 88.737528 161.32526 
L 89.465524 159.02646 
L 90.193521 155.47974 
L 92.377509 186.08662 
L 93.105505 193.44278 
L 93.833501 197.58062 
L 94.561497 205.46222 
L 95.289493 210.05982 
L 96.017489 209.4687 
L 96.745485 209.4687 
L 97.473481 210.65094 
L 98.201477 208.74622 
L 98.929473 209.40302 
L 99.657469 207.8267 
L 100.385465 205.26518 
L 101.113461 203.36046 
L 102.569453 203.75454 
L 103.297449 202.96638 
L 104.025445 200.6019 
L 104.753442 199.22262 
L 105.481438 196.46406 
L 106.209434 196.92382 
L 106.93743 195.08478 
L 107.665426 191.7351 
L 108.393422 186.74342 
L 109.121418 177.08846 
L 109.849414 169.92934 
L 110.57741 167.17078 
L 111.305406 165.85718 
L 112.033402 169.14118 
L 112.761398 167.82758 
L 114.21739 168.02462 
L 114.945386 169.53526 
L 115.673382 173.3447 
L 116.401378 173.47606 
L 117.129374 172.95062 
L 117.85737 173.3447 
L 118.585366 171.57134 
L 119.313363 167.30214 
L 120.041359 157.05606 
L 120.769355 150.29102 
L 121.497351 147.79518 
L 122.225347 147.99222 
L 122.953343 149.83126 
L 123.681339 155.21702 
L 124.409335 167.30214 
L 125.137331 182.08014 
L 125.865327 191.80078 
L 126.593323 198.04038 
L 127.321319 200.99598 
L 128.049315 199.41966 
L 128.777311 198.50014 
L 129.505307 198.50014 
L 130.233303 195.47886 
L 130.961299 193.90254 
L 131.689295 191.7351 
L 132.417291 189.96174 
L 133.145288 188.84518 
L 133.873284 189.37062 
L 134.60128 189.56766 
L 136.057272 191.60374 
L 136.785268 195.3475 
L 137.513264 197.90902 
L 138.969256 202.04686 
L 139.697252 202.44094 
L 140.425248 202.44094 
L 141.153244 199.09126 
L 142.609236 188.05702 
L 143.337232 186.1523 
L 144.065228 185.1671 
L 144.793224 178.33638 
L 145.52122 173.93582 
L 146.249216 171.96542 
L 146.977212 172.16246 
L 147.705209 171.50566 
L 148.433205 171.0459 
L 149.161201 170.84886 
L 149.889197 171.17726 
L 150.617193 172.0311 
L 152.073185 174.85534 
L 152.801181 176.82574 
L 153.529177 174.92102 
L 154.257173 174.92102 
L 155.713165 172.22814 
L 156.441161 171.50566 
L 157.169157 170.52046 
L 157.897153 169.92934 
L 158.625149 172.0311 
L 159.353145 172.22814 
L 160.081141 174.19854 
L 160.809137 174.72398 
L 162.26513 172.55654 
L 162.993126 168.87846 
L 163.721122 164.1495 
L 164.449118 161.58798 
L 165.177114 159.61758 
L 166.633106 152.26142 
L 168.089098 135.77574 
L 168.817094 137.41774 
L 169.54509 136.10414 
L 170.273086 138.73134 
L 171.729078 149.76558 
L 172.457074 153.11526 
L 173.18507 153.04958 
L 173.913066 152.58982 
L 174.641062 153.57502 
L 175.369058 155.67678 
L 176.097055 155.21702 
L 176.825051 153.6407 
L 177.553047 153.37798 
L 178.281043 147.7295 
L 179.009039 139.65086 
L 179.737035 133.08286 
L 181.193027 112.13094 
L 181.921023 108.12446 
L 182.649019 106.87654 
L 183.377015 106.74518 
L 184.833007 97.74702 
L 185.561003 95.77662 
L 186.288999 94.79142 
L 187.016995 86.90982 
L 187.744991 76.00694 
L 188.472987 62.14846 
L 189.200983 60.3751 
L 189.928979 59.19286 
L 190.656976 60.0467 
L 191.384972 62.21414 
L 192.112968 63.13366 
L 192.840964 60.90054 
L 193.56896 57.87926 
L 194.296956 58.14198 
L 195.752948 65.3011 
L 196.480944 73.97086 
L 197.20894 84.08558 
L 197.936936 90.12814 
L 198.664932 92.95238 
L 199.392928 98.1411 
L 200.120924 102.34462 
L 200.84892 107.40198 
L 201.576916 108.71558 
L 202.304912 112.52502 
L 203.032908 124.93854 
L 203.760904 134.2651 
L 204.488901 146.0875 
L 205.944893 173.08198 
L 206.672889 182.40854 
L 207.400885 194.09958 
L 208.128881 198.50014 
L 208.856877 207.03854 
L 209.584873 213.4095 
L 210.312869 218.53254 
L 211.040865 219.9775 
L 211.768861 222.2763 
L 212.496857 220.9627 
L 213.224853 220.04318 
L 213.952849 220.43726 
L 214.680845 221.35678 
L 215.408841 222.53902 
L 216.864833 226.02006 
L 218.320825 235.28094 
L 219.048822 237.18566 
L 219.776818 234.03302 
L 220.504814 226.80822 
L 221.23281 222.40766 
L 221.960806 219.9775 
L 222.688802 218.40118 
L 223.416798 218.6639 
L 224.144794 219.18934 
L 224.87279 218.6639 
L 225.600786 218.40118 
L 226.328782 216.56214 
L 227.056778 213.86926 
L 227.784774 207.36694 
L 228.51277 202.2439 
L 229.240766 196.06998 
L 230.696758 193.83686 
L 231.424754 195.74158 
L 232.15275 199.68238 
L 232.880746 200.9303 
L 233.608743 201.12734 
L 234.336739 198.76286 
L 235.064735 194.82206 
L 235.792731 192.32622 
L 236.520727 190.94694 
L 237.248723 191.60374 
L 237.976719 191.53806 
L 238.704715 191.86646 
L 239.432711 193.18006 
L 240.160707 194.0339 
L 240.888703 193.7055 
L 241.616699 190.15878 
L 242.344695 185.42982 
L 243.072691 183.1967 
L 243.800687 182.34286 
L 244.528683 182.5399 
L 245.256679 182.2115 
L 245.984675 182.73694 
L 246.712671 183.45942 
L 247.440668 184.97006 
L 248.168664 187.7943 
L 248.89666 188.58246 
L 249.624656 187.40022 
L 250.352652 182.93398 
L 251.080648 182.08014 
L 251.808644 182.73694 
L 252.53664 184.05054 
L 253.264636 185.03574 
L 253.992632 185.36414 
L 254.720628 182.08014 
L 255.448624 180.50382 
L 256.904616 175.77486 
L 257.632612 173.73878 
L 258.360608 172.81926 
L 259.088604 167.82758 
L 259.8166 165.33174 
L 262.000589 159.81462 
L 262.728585 159.61758 
L 263.456581 160.40574 
L 264.912573 166.71102 
L 265.640569 169.4039 
L 266.368565 171.43998 
L 267.096561 172.0311 
L 269.280549 176.49734 
L 270.008545 177.15414 
L 271.464537 174.85534 
L 272.192533 171.30862 
L 272.920529 169.99502 
L 273.648525 169.66662 
L 275.104517 169.33822 
L 275.832513 168.68142 
L 276.56051 168.28734 
L 277.288506 169.79798 
L 278.016502 169.14118 
L 278.744498 165.1347 
L 279.472494 163.36134 
L 280.20049 162.31046 
L 280.928486 161.45662 
L 281.656482 157.64718 
L 282.384478 152.45846 
L 283.112474 153.3123 
L 283.84047 152.85254 
L 284.568466 152.58982 
L 285.296462 151.9987 
L 286.024458 151.6703 
L 287.48045 148.91174 
L 288.208446 148.78038 
L 288.936442 146.15318 
L 289.664438 145.23366 
L 290.392435 144.70822 
L 291.120431 140.57038 
L 292.576423 133.41126 
L 294.032415 115.2179 
L 295.488407 109.9635 
L 296.216403 107.73038 
L 296.944399 103.92094 
L 297.672395 98.66654 
L 298.400391 96.76182 
L 299.128387 96.23638 
L 299.856383 94.79142 
L 300.584379 94.79142 
L 301.312375 96.23638 
L 302.040371 98.40382 
L 302.768367 103.7239 
L 303.496363 104.0523 
L 304.952356 107.73038 
L 305.680352 112.5907 
L 306.408348 114.82382 
L 307.86434 116.40014 
L 308.592336 115.02086 
L 309.320332 114.5611 
L 310.048328 114.82382 
L 310.776324 116.46582 
L 311.50432 117.1883 
L 312.232316 115.61198 
L 312.960312 112.2623 
L 313.688308 111.40846 
L 314.416304 112.13094 
L 315.872296 115.15222 
L 316.600292 116.33446 
L 317.328288 112.5907 
L 318.056284 111.01438 
L 318.784281 107.73038 
L 319.512277 106.48246 
L 320.240273 98.92926 
L 320.968269 95.57958 
L 321.696265 98.86358 
L 322.424261 102.7387 
L 323.152257 105.62862 
L 323.880253 110.75166 
L 324.608249 114.16702 
L 325.336245 115.80902 
L 326.064241 115.34926 
L 326.792237 116.66286 
L 327.520233 117.05694 
L 328.248229 117.12262 
L 328.976225 117.05694 
L 329.704221 115.48062 
L 330.432217 114.42974 
L 331.888209 105.95702 
L 332.616205 100.50558 
L 333.344202 97.22158 
L 334.072198 96.10502 
L 334.800194 96.8275 
L 335.52819 96.56478 
L 336.256186 96.56478 
L 336.984182 99.1263 
L 337.712178 100.30854 
L 338.440174 101.95054 
L 339.16817 104.77478 
L 339.896166 105.89134 
L 340.624162 108.45286 
L 341.352158 110.35758 
L 343.536146 119.55278 
L 344.264142 124.4131 
L 344.992138 126.0551 
L 345.720134 126.58054 
L 347.176126 122.83678 
L 347.904123 117.31966 
L 348.632119 107.79606 
L 349.360115 100.96534 
L 350.088111 95.25118 
L 350.816107 90.78494 
L 351.544103 89.14294 
L 352.272099 88.22342 
L 353.000095 90.06246 
L 353.728091 91.5731 
L 354.456087 92.29558 
L 355.184083 87.43526 
L 355.912079 89.07726 
L 356.640075 92.2299 
L 357.368071 94.5287 
L 358.096067 98.20678 
L 358.824063 101.16238 
L 359.552059 101.29374 
L 360.280055 105.75998 
L 361.008051 109.10966 
L 362.464044 118.76462 
L 363.19204 121.72022 
L 363.920036 125.52966 
L 364.648032 127.30302 
L 365.376028 126.18646 
L 366.104024 122.37702 
L 367.560016 107.40198 
L 368.288012 102.93574 
L 369.016008 101.29374 
L 369.744004 101.95054 
L 371.927992 109.3067 
L 372.655988 110.16054 
L 373.383984 111.67118 
L 374.11198 112.78774 
L 375.567972 117.5167 
L 376.295969 117.91078 
L 377.023965 116.72854 
L 377.751961 115.02086 
L 378.479957 114.03566 
L 379.207953 113.83862 
L 379.935949 113.9043 
L 380.663945 115.02086 
L 381.391941 115.80902 
L 382.119937 116.92558 
L 382.847933 117.45102 
L 383.575929 116.26878 
L 384.303925 113.83862 
L 385.031921 110.75166 
L 385.759917 109.56942 
L 386.487913 109.6351 
L 387.215909 110.2919 
L 387.943905 109.83214 
L 388.671901 109.17534 
L 389.399897 109.37238 
L 390.127893 108.91262 
L 390.85589 108.78126 
L 391.583886 109.83214 
L 392.311882 110.6203 
L 393.039878 112.32798 
L 393.767874 113.2475 
L 395.223866 114.42974 
L 395.951862 115.80902 
L 397.407854 115.74334 
L 398.13585 114.36406 
L 398.863846 114.82382 
L 400.319838 114.69246 
L 401.047834 112.32798 
L 401.77583 111.53982 
L 402.503826 112.52502 
L 403.231822 114.2327 
L 403.959818 114.03566 
L 404.687815 114.2327 
L 405.415811 113.70726 
L 406.143807 111.2771 
L 406.871803 108.3215 
L 407.599799 106.15406 
L 408.327795 105.0375 
L 410.511783 106.6795 
L 411.239779 107.9931 
L 411.967775 108.84694 
L 412.695771 106.61382 
L 413.423767 106.21974 
L 414.151763 106.48246 
L 414.879759 107.0079 
L 415.607755 108.05878 
L 417.063747 109.24102 
L 417.791743 111.01438 
L 418.519739 112.13094 
L 419.247736 110.75166 
L 419.975732 110.48894 
L 420.703728 111.01438 
L 421.431724 111.86822 
L 422.15972 112.32798 
L 422.887716 112.39366 
L 423.615712 113.11614 
L 424.343708 113.18182 
L 425.071704 113.51022 
L 425.7997 113.2475 
L 426.527696 113.70726 
L 427.255692 113.64158 
L 427.983688 114.36406 
L 428.711684 115.48062 
L 429.43968 117.77942 
L 430.167676 119.02734 
L 430.895672 121.4575 
L 431.623668 122.24566 
L 432.351664 123.82198 
L 433.079661 123.88766 
L 433.807657 118.43622 
L 435.263649 122.1143 
L 435.991645 122.96814 
L 436.719641 127.6971 
L 438.175633 148.51766 
L 440.359621 168.94414 
L 441.087617 178.33638 
L 441.815613 183.06534 
L 442.543609 184.97006 
L 444.727597 186.34934 
L 445.455593 185.23278 
L 446.183589 183.78782 
L 446.911585 183.06534 
L 447.639582 186.02094 
L 448.367578 187.59726 
L 449.095574 188.7795 
L 449.82357 190.22446 
L 450.551566 189.56766 
L 451.279562 188.38542 
L 452.007558 186.21798 
L 452.735554 185.69254 
L 453.46355 182.99966 
L 454.191546 181.8831 
L 454.919542 181.5547 
L 455.647538 182.2115 
L 456.375534 183.32806 
L 457.10353 183.91918 
L 457.831526 185.42982 
L 458.559522 184.8387 
L 459.287518 184.70734 
L 460.015514 185.8239 
L 460.74351 188.1227 
L 462.199503 194.3623 
L 462.927499 195.21614 
L 464.383491 199.48534 
L 465.111487 199.15694 
L 465.839483 200.01078 
L 467.295475 204.47702 
L 468.751467 202.50662 
L 469.479463 202.04686 
L 470.207459 203.03206 
L 471.663451 204.34566 
L 472.391447 204.34566 
L 473.119443 205.26518 
L 473.847439 206.77582 
L 475.303431 211.7675 
L 476.759424 221.48814 
L 477.48742 223.85262 
L 481.1274 242.04598 
L 481.855396 245.19862 
L 482.583392 245.52702 
L 483.311388 244.21342 
L 484.039384 241.19214 
L 484.76738 236.46318 
L 485.495376 232.71942 
L 486.223372 230.22358 
L 486.951368 228.31886 
L 487.679364 227.07094 
L 489.135356 223.13014 
L 489.863352 219.6491 
L 490.591349 218.20414 
L 491.319345 215.11718 
L 492.047341 212.88406 
L 493.503333 210.7823 
L 494.231329 209.27166 
L 494.959325 209.27166 
L 495.687321 208.22078 
L 497.143313 207.1699 
L 497.871309 207.8267 
L 498.599305 207.89238 
L 499.327301 208.87758 
L 500.055297 210.38822 
L 500.783293 210.51958 
L 502.239285 205.13382 
L 502.967281 204.01726 
L 503.695277 204.27998 
L 504.423273 204.73974 
L 505.15127 205.8563 
L 505.879266 205.72494 
L 507.335258 200.53622 
L 508.063254 200.2735 
L 509.519246 201.45574 
L 510.975238 206.5131 
L 511.703234 206.8415 
L 512.43123 206.38174 
L 513.159226 207.03854 
L 513.887222 203.8859 
L 515.343214 201.2587 
L 516.07121 200.86462 
L 516.799206 201.06166 
L 517.527202 201.45574 
L 518.255198 202.50662 
L 518.983195 202.5723 
L 519.711191 202.11254 
L 520.439187 200.40486 
L 521.167183 198.17174 
L 521.895179 195.3475 
L 522.623175 195.87294 
L 523.351171 197.6463 
L 524.079167 197.18654 
L 524.807163 195.47886 
L 525.535159 194.3623 
L 526.991151 192.91734 
L 527.719147 192.65462 
L 528.447143 193.63982 
L 529.175139 195.28182 
L 529.903135 195.08478 
L 530.631131 192.98302 
L 531.359127 192.78598 
L 532.815119 195.3475 
L 533.543116 197.51494 
L 534.271112 197.9747 
L 534.999108 198.04038 
L 535.727104 197.84334 
L 536.4551 197.12086 
L 537.183096 196.0043 
L 537.911092 192.19486 
L 538.639088 190.4215 
L 539.367084 189.50198 
L 540.09508 189.30494 
L 540.823076 183.98486 
L 541.551072 182.08014 
L 542.279068 182.99966 
L 543.007064 181.75174 
L 543.73506 179.9127 
L 544.463056 180.17542 
L 546.647044 174.46126 
L 547.37504 173.0163 
L 548.103037 171.24294 
L 548.831033 170.52046 
L 549.559029 169.00982 
L 550.287025 169.46958 
L 551.015021 171.30862 
L 551.743017 173.47606 
L 552.471013 174.13286 
L 553.199009 171.96542 
L 553.927005 172.42518 
L 554.655001 171.76838 
L 555.382997 173.6731 
L 556.838989 171.96542 
L 557.566985 172.55654 
L 559.022977 174.92102 
L 559.750973 176.6287 
L 560.478969 177.08846 
L 561.206965 175.6435 
L 561.934962 171.30862 
L 562.662958 167.82758 
L 563.390954 165.06902 
L 564.846946 158.82942 
L 566.302938 154.36318 
L 567.030934 149.96262 
L 567.75893 147.86086 
L 569.214922 147.13838 
L 569.942918 148.12358 
L 570.670914 148.45198 
L 571.39891 149.63422 
L 572.126906 147.20406 
L 572.854902 146.4159 
L 574.310894 146.48158 
L 575.03889 147.00702 
L 575.766886 147.00702 
L 576.494883 147.20406 
L 577.222879 147.79518 
L 577.950875 146.80998 
L 578.678871 146.80998 
L 579.406867 146.61294 
L 580.134863 146.87566 
L 580.862859 147.4011 
L 581.590855 146.61294 
L 582.318851 145.1023 
L 583.774843 143.92006 
L 584.502839 144.1171 
L 585.230835 144.57686 
L 587.414823 148.45198 
L 588.870815 155.01998 
L 590.326808 163.4927 
L 592.510796 171.57134 
L 593.238792 174.39558 
L 594.694784 178.40206 
L 595.42278 179.2559 
L 596.150776 178.13934 
L 597.606768 174.72398 
L 598.334764 174.72398 
L 599.06276 174.39558 
L 600.518752 170.25774 
L 601.246748 168.87846 
L 603.430736 158.69806 
L 604.158732 158.50102 
L 604.886729 158.82942 
L 605.614725 158.10694 
L 606.342721 158.82942 
L 607.070717 160.01166 
L 608.526709 165.98854 
L 609.254705 168.7471 
L 609.982701 170.84886 
L 610.710697 172.0311 
L 611.438693 172.3595 
L 612.166689 172.16246 
L 612.894685 172.88494 
L 613.622681 173.0163 
L 614.350677 174.6583 
L 615.078673 174.72398 
L 615.806669 174.92102 
L 616.534665 175.70918 
L 617.262661 175.11806 
L 617.990657 173.41038 
L 618.718653 168.48438 
L 619.44665 168.61574 
L 620.174646 169.27254 
L 620.902642 168.02462 
L 621.630638 167.82758 
L 622.358634 165.33174 
L 623.08663 159.81462 
L 623.814626 157.38446 
L 624.542622 155.47974 
L 625.270618 154.56022 
L 625.998614 154.88862 
L 626.72661 157.12174 
L 627.454606 160.14302 
L 628.182602 162.37614 
L 629.638594 164.1495 
L 630.36659 166.4483 
L 631.094586 170.0607 
L 631.822582 171.76838 
L 632.550578 174.39558 
L 633.278575 177.6139 
L 634.006571 180.04406 
L 634.734567 180.63518 
L 636.190559 183.65646 
L 637.646551 191.7351 
L 638.374547 197.51494 
L 639.830539 203.75454 
L 640.558535 205.46222 
L 641.286531 207.89238 
L 642.014527 212.0959 
L 642.742523 213.67222 
L 643.470519 214.19766 
L 644.198515 213.54086 
L 644.926511 214.0663 
L 645.654507 213.34382 
L 646.382503 213.67222 
L 647.110499 213.21246 
L 647.838496 213.86926 
L 648.566492 213.7379 
L 649.294488 213.7379 
L 650.75048 213.93494 
L 651.478476 213.86926 
L 652.206472 212.16158 
L 652.934468 212.4243 
L 653.662464 212.16158 
L 654.39046 211.1107 
L 655.118456 211.57046 
L 655.846452 212.22726 
L 656.574448 213.54086 
L 657.302444 214.32902 
L 658.03044 215.44558 
L 658.758436 214.7231 
L 659.486432 214.98582 
L 660.214428 215.11718 
L 660.942424 215.11718 
L 661.67042 211.96454 
L 662.398417 204.2143 
L 663.854409 200.9303 
L 664.582405 200.86462 
L 665.310401 199.87942 
L 666.038397 198.17174 
L 666.766393 197.77766 
L 667.494389 197.90902 
L 668.222385 197.6463 
L 668.950381 196.79246 
L 669.678377 196.13566 
L 670.406373 194.29662 
L 671.134369 190.48718 
L 671.862365 184.70734 
L 672.590361 180.17542 
L 673.318357 171.83406 
L 674.774349 152.58982 
L 675.502345 149.89694 
L 676.230342 151.40758 
L 676.958338 152.39278 
L 678.41433 155.47974 
L 679.142326 155.74246 
L 679.870322 154.2975 
L 681.326314 147.00702 
L 682.05431 146.94134 
L 682.782306 145.95614 
L 683.510302 145.36502 
L 684.238298 145.62774 
L 684.966294 144.90526 
L 685.69429 142.27806 
L 687.150282 131.70358 
L 687.878278 129.07638 
L 688.606274 128.22254 
L 689.33427 126.97462 
L 690.062266 126.3835 
L 691.518259 128.74798 
L 692.246255 129.47046 
L 692.974251 128.3539 
L 694.430243 129.40478 
L 695.158239 130.9811 
L 696.614231 126.51486 
L 697.342227 122.63974 
L 698.070223 119.55278 
L 698.798219 117.25398 
L 699.526215 116.00606 
L 700.254211 115.67766 
L 700.982207 115.48062 
L 701.710203 116.59718 
L 702.438199 119.4871 
L 703.166195 120.93206 
L 704.622188 124.47878 
L 704.622188 124.47878 
" clip-path="url(#p64a1fcb858)" style="fill: none; stroke: #0070c0; stroke-width: 2.5; stroke-linecap: square"/>
   </g>
   <g id="line2d_56">
    <path d="M 59.617686 162.808368 
L 704.622188 163.264324 
L 704.622188 163.264324 
" clip-path="url(#p64a1fcb858)" style="fill: none; stroke: #ff0000; stroke-opacity: 0.8; stroke-width: 2; stroke-linecap: square"/>
   </g>
   <g id="patch_3">
    <path d="M 59.409688 367.7575 
L 59.409688 39.3575 
" style="fill: none; stroke: #000000; stroke-width: 0.8; stroke-linejoin: miter; stroke-linecap: square"/>
   </g>
   <g id="patch_4">
    <path d="M 704.622187 367.7575 
L 704.622187 39.3575 
" style="fill: none; stroke: #000000; stroke-width: 0.8; stroke-linejoin: miter; stroke-linecap: square"/>
   </g>
   <g id="patch_5">
    <path d="M 59.409688 367.7575 
L 704.622188 367.7575 
" style="fill: none; stroke: #000000; stroke-width: 0.8; stroke-linejoin: miter; stroke-linecap: square"/>
   </g>
   <g id="patch_6">
    <path d="M 59.409688 39.3575 
L 704.622188 39.3575 
" style="fill: none; stroke: #000000; stroke-width: 0.8; stroke-linejoin: miter; stroke-linecap: square"/>
   </g>
   <g id="text_30">
    <!-- Retail Diesel Prices ($ per gallon) - Rocky Mountain (2005 - 2022) -->
    <g transform="translate(86.164688 19.3575) scale(0.16 -0.16)">
     <defs>
      <path id="DejaVuSans-Bold-52" d="M 2297 2597 
Q 2675 2597 2839 2737 
Q 3003 2878 3003 3200 
Q 3003 3519 2839 3656 
Q 2675 3794 2297 3794 
L 1791 3794 
L 1791 2597 
L 2297 2597 
z
M 1791 1766 
L 1791 0 
L 588 0 
L 588 4666 
L 2425 4666 
Q 3347 4666 3776 4356 
Q 4206 4047 4206 3378 
Q 4206 2916 3982 2619 
Q 3759 2322 3309 2181 
Q 3556 2125 3751 1926 
Q 3947 1728 4147 1325 
L 4800 0 
L 3519 0 
L 2950 1159 
Q 2778 1509 2601 1637 
Q 2425 1766 2131 1766 
L 1791 1766 
z
" transform="scale(0.015625)"/>
      <path id="DejaVuSans-Bold-65" d="M 4031 1759 
L 4031 1441 
L 1416 1441 
Q 1456 1047 1700 850 
Q 1944 653 2381 653 
Q 2734 653 3104 758 
Q 3475 863 3866 1075 
L 3866 213 
Q 3469 63 3072 -14 
Q 2675 -91 2278 -91 
Q 1328 -91 801 392 
Q 275 875 275 1747 
Q 275 2603 792 3093 
Q 1309 3584 2216 3584 
Q 3041 3584 3536 3087 
Q 4031 2591 4031 1759 
z
M 2881 2131 
Q 2881 2450 2695 2645 
Q 2509 2841 2209 2841 
Q 1884 2841 1681 2658 
Q 1478 2475 1428 2131 
L 2881 2131 
z
" transform="scale(0.015625)"/>
      <path id="DejaVuSans-Bold-74" d="M 1759 4494 
L 1759 3500 
L 2913 3500 
L 2913 2700 
L 1759 2700 
L 1759 1216 
Q 1759 972 1856 886 
Q 1953 800 2241 800 
L 2816 800 
L 2816 0 
L 1856 0 
Q 1194 0 917 276 
Q 641 553 641 1216 
L 641 2700 
L 84 2700 
L 84 3500 
L 641 3500 
L 641 4494 
L 1759 4494 
z
" transform="scale(0.015625)"/>
      <path id="DejaVuSans-Bold-61" d="M 2106 1575 
Q 1756 1575 1579 1456 
Q 1403 1338 1403 1106 
Q 1403 894 1545 773 
Q 1688 653 1941 653 
Q 2256 653 2472 879 
Q 2688 1106 2688 1447 
L 2688 1575 
L 2106 1575 
z
M 3816 1997 
L 3816 0 
L 2688 0 
L 2688 519 
Q 2463 200 2181 54 
Q 1900 -91 1497 -91 
Q 953 -91 614 226 
Q 275 544 275 1050 
Q 275 1666 698 1953 
Q 1122 2241 2028 2241 
L 2688 2241 
L 2688 2328 
Q 2688 2594 2478 2717 
Q 2269 2841 1825 2841 
Q 1466 2841 1156 2769 
Q 847 2697 581 2553 
L 581 3406 
Q 941 3494 1303 3539 
Q 1666 3584 2028 3584 
Q 2975 3584 3395 3211 
Q 3816 2838 3816 1997 
z
" transform="scale(0.015625)"/>
      <path id="DejaVuSans-Bold-69" d="M 538 3500 
L 1656 3500 
L 1656 0 
L 538 0 
L 538 3500 
z
M 538 4863 
L 1656 4863 
L 1656 3950 
L 538 3950 
L 538 4863 
z
" transform="scale(0.015625)"/>
      <path id="DejaVuSans-Bold-6c" d="M 538 4863 
L 1656 4863 
L 1656 0 
L 538 0 
L 538 4863 
z
" transform="scale(0.015625)"/>
      <path id="DejaVuSans-Bold-20" transform="scale(0.015625)"/>
      <path id="DejaVuSans-Bold-44" d="M 1791 3756 
L 1791 909 
L 2222 909 
Q 2959 909 3348 1275 
Q 3738 1641 3738 2338 
Q 3738 3031 3350 3393 
Q 2963 3756 2222 3756 
L 1791 3756 
z
M 588 4666 
L 1856 4666 
Q 2919 4666 3439 4514 
Q 3959 4363 4331 4000 
Q 4659 3684 4818 3271 
Q 4978 2859 4978 2338 
Q 4978 1809 4818 1395 
Q 4659 981 4331 666 
Q 3956 303 3431 151 
Q 2906 0 1856 0 
L 588 0 
L 588 4666 
z
" transform="scale(0.015625)"/>
      <path id="DejaVuSans-Bold-73" d="M 3272 3391 
L 3272 2541 
Q 2913 2691 2578 2766 
Q 2244 2841 1947 2841 
Q 1628 2841 1473 2761 
Q 1319 2681 1319 2516 
Q 1319 2381 1436 2309 
Q 1553 2238 1856 2203 
L 2053 2175 
Q 2913 2066 3209 1816 
Q 3506 1566 3506 1031 
Q 3506 472 3093 190 
Q 2681 -91 1863 -91 
Q 1516 -91 1145 -36 
Q 775 19 384 128 
L 384 978 
Q 719 816 1070 734 
Q 1422 653 1784 653 
Q 2113 653 2278 743 
Q 2444 834 2444 1013 
Q 2444 1163 2330 1236 
Q 2216 1309 1875 1350 
L 1678 1375 
Q 931 1469 631 1722 
Q 331 1975 331 2491 
Q 331 3047 712 3315 
Q 1094 3584 1881 3584 
Q 2191 3584 2531 3537 
Q 2872 3491 3272 3391 
z
" transform="scale(0.015625)"/>
      <path id="DejaVuSans-Bold-50" d="M 588 4666 
L 2584 4666 
Q 3475 4666 3951 4270 
Q 4428 3875 4428 3144 
Q 4428 2409 3951 2014 
Q 3475 1619 2584 1619 
L 1791 1619 
L 1791 0 
L 588 0 
L 588 4666 
z
M 1791 3794 
L 1791 2491 
L 2456 2491 
Q 2806 2491 2997 2661 
Q 3188 2831 3188 3144 
Q 3188 3456 2997 3625 
Q 2806 3794 2456 3794 
L 1791 3794 
z
" transform="scale(0.015625)"/>
      <path id="DejaVuSans-Bold-72" d="M 3138 2547 
Q 2991 2616 2845 2648 
Q 2700 2681 2553 2681 
Q 2122 2681 1889 2404 
Q 1656 2128 1656 1613 
L 1656 0 
L 538 0 
L 538 3500 
L 1656 3500 
L 1656 2925 
Q 1872 3269 2151 3426 
Q 2431 3584 2822 3584 
Q 2878 3584 2943 3579 
Q 3009 3575 3134 3559 
L 3138 2547 
z
" transform="scale(0.015625)"/>
      <path id="DejaVuSans-Bold-63" d="M 3366 3391 
L 3366 2478 
Q 3138 2634 2908 2709 
Q 2678 2784 2431 2784 
Q 1963 2784 1702 2511 
Q 1441 2238 1441 1747 
Q 1441 1256 1702 982 
Q 1963 709 2431 709 
Q 2694 709 2930 787 
Q 3166 866 3366 1019 
L 3366 103 
Q 3103 6 2833 -42 
Q 2563 -91 2291 -91 
Q 1344 -91 809 395 
Q 275 881 275 1747 
Q 275 2613 809 3098 
Q 1344 3584 2291 3584 
Q 2566 3584 2833 3536 
Q 3100 3488 3366 3391 
z
" transform="scale(0.015625)"/>
      <path id="DejaVuSans-Bold-28" d="M 2413 -844 
L 1484 -844 
Q 1006 -72 778 623 
Q 550 1319 550 2003 
Q 550 2688 779 3389 
Q 1009 4091 1484 4856 
L 2413 4856 
Q 2013 4116 1813 3408 
Q 1613 2700 1613 2009 
Q 1613 1319 1811 609 
Q 2009 -100 2413 -844 
z
" transform="scale(0.015625)"/>
      <path id="DejaVuSans-Bold-24" d="M 2484 -941 
L 1978 -941 
L 1975 0 
Q 1584 16 1218 87 
Q 853 159 506 288 
L 506 1106 
Q 866 922 1233 823 
Q 1600 725 1978 713 
L 1978 1684 
L 1875 1703 
Q 1128 1834 814 2115 
Q 500 2397 500 2925 
Q 500 3484 883 3798 
Q 1266 4113 1975 4141 
L 1978 4863 
L 2484 4863 
L 2484 4153 
Q 2797 4128 3109 4075 
Q 3422 4022 3738 3938 
L 3738 3144 
Q 3425 3275 3112 3348 
Q 2800 3422 2484 3438 
L 2484 2541 
L 2584 2522 
Q 3378 2397 3698 2105 
Q 4019 1813 4019 1241 
Q 4019 666 3637 358 
Q 3256 50 2484 6 
L 2484 -941 
z
M 1978 2613 
L 1978 3428 
Q 1756 3416 1623 3308 
Q 1491 3200 1491 3034 
Q 1491 2850 1612 2745 
Q 1734 2641 1978 2613 
z
M 2484 1594 
L 2484 725 
Q 2756 728 2892 831 
Q 3028 934 3028 1141 
Q 3028 1353 2903 1458 
Q 2778 1563 2484 1594 
z
" transform="scale(0.015625)"/>
      <path id="DejaVuSans-Bold-70" d="M 1656 506 
L 1656 -1331 
L 538 -1331 
L 538 3500 
L 1656 3500 
L 1656 2988 
Q 1888 3294 2169 3439 
Q 2450 3584 2816 3584 
Q 3463 3584 3878 3070 
Q 4294 2556 4294 1747 
Q 4294 938 3878 423 
Q 3463 -91 2816 -91 
Q 2450 -91 2169 54 
Q 1888 200 1656 506 
z
M 2400 2772 
Q 2041 2772 1848 2508 
Q 1656 2244 1656 1747 
Q 1656 1250 1848 986 
Q 2041 722 2400 722 
Q 2759 722 2948 984 
Q 3138 1247 3138 1747 
Q 3138 2247 2948 2509 
Q 2759 2772 2400 2772 
z
" transform="scale(0.015625)"/>
      <path id="DejaVuSans-Bold-67" d="M 2919 594 
Q 2688 288 2409 144 
Q 2131 0 1766 0 
Q 1125 0 706 504 
Q 288 1009 288 1791 
Q 288 2575 706 3076 
Q 1125 3578 1766 3578 
Q 2131 3578 2409 3434 
Q 2688 3291 2919 2981 
L 2919 3500 
L 4044 3500 
L 4044 353 
Q 4044 -491 3511 -936 
Q 2978 -1381 1966 -1381 
Q 1638 -1381 1331 -1331 
Q 1025 -1281 716 -1178 
L 716 -306 
Q 1009 -475 1290 -558 
Q 1572 -641 1856 -641 
Q 2406 -641 2662 -400 
Q 2919 -159 2919 353 
L 2919 594 
z
M 2181 2772 
Q 1834 2772 1640 2515 
Q 1447 2259 1447 1791 
Q 1447 1309 1634 1061 
Q 1822 813 2181 813 
Q 2531 813 2725 1069 
Q 2919 1325 2919 1791 
Q 2919 2259 2725 2515 
Q 2531 2772 2181 2772 
z
" transform="scale(0.015625)"/>
      <path id="DejaVuSans-Bold-6f" d="M 2203 2784 
Q 1831 2784 1636 2517 
Q 1441 2250 1441 1747 
Q 1441 1244 1636 976 
Q 1831 709 2203 709 
Q 2569 709 2762 976 
Q 2956 1244 2956 1747 
Q 2956 2250 2762 2517 
Q 2569 2784 2203 2784 
z
M 2203 3584 
Q 3106 3584 3614 3096 
Q 4122 2609 4122 1747 
Q 4122 884 3614 396 
Q 3106 -91 2203 -91 
Q 1297 -91 786 396 
Q 275 884 275 1747 
Q 275 2609 786 3096 
Q 1297 3584 2203 3584 
z
" transform="scale(0.015625)"/>
      <path id="DejaVuSans-Bold-6e" d="M 4056 2131 
L 4056 0 
L 2931 0 
L 2931 347 
L 2931 1631 
Q 2931 2084 2911 2256 
Q 2891 2428 2841 2509 
Q 2775 2619 2662 2680 
Q 2550 2741 2406 2741 
Q 2056 2741 1856 2470 
Q 1656 2200 1656 1722 
L 1656 0 
L 538 0 
L 538 3500 
L 1656 3500 
L 1656 2988 
Q 1909 3294 2193 3439 
Q 2478 3584 2822 3584 
Q 3428 3584 3742 3212 
Q 4056 2841 4056 2131 
z
" transform="scale(0.015625)"/>
      <path id="DejaVuSans-Bold-29" d="M 513 -844 
Q 913 -100 1113 609 
Q 1313 1319 1313 2009 
Q 1313 2700 1113 3408 
Q 913 4116 513 4856 
L 1441 4856 
Q 1916 4091 2145 3389 
Q 2375 2688 2375 2003 
Q 2375 1319 2147 623 
Q 1919 -72 1441 -844 
L 513 -844 
z
" transform="scale(0.015625)"/>
      <path id="DejaVuSans-Bold-2d" d="M 347 2297 
L 2309 2297 
L 2309 1388 
L 347 1388 
L 347 2297 
z
" transform="scale(0.015625)"/>
      <path id="DejaVuSans-Bold-6b" d="M 538 4863 
L 1656 4863 
L 1656 2216 
L 2944 3500 
L 4244 3500 
L 2534 1894 
L 4378 0 
L 3022 0 
L 1656 1459 
L 1656 0 
L 538 0 
L 538 4863 
z
" transform="scale(0.015625)"/>
      <path id="DejaVuSans-Bold-79" d="M 78 3500 
L 1197 3500 
L 2138 1125 
L 2938 3500 
L 4056 3500 
L 2584 -331 
Q 2363 -916 2067 -1148 
Q 1772 -1381 1288 -1381 
L 641 -1381 
L 641 -647 
L 991 -647 
Q 1275 -647 1404 -556 
Q 1534 -466 1606 -231 
L 1638 -134 
L 78 3500 
z
" transform="scale(0.015625)"/>
      <path id="DejaVuSans-Bold-4d" d="M 588 4666 
L 2119 4666 
L 3181 2169 
L 4250 4666 
L 5778 4666 
L 5778 0 
L 4641 0 
L 4641 3413 
L 3566 897 
L 2803 897 
L 1728 3413 
L 1728 0 
L 588 0 
L 588 4666 
z
" transform="scale(0.015625)"/>
      <path id="DejaVuSans-Bold-75" d="M 500 1363 
L 500 3500 
L 1625 3500 
L 1625 3150 
Q 1625 2866 1622 2436 
Q 1619 2006 1619 1863 
Q 1619 1441 1641 1255 
Q 1663 1069 1716 984 
Q 1784 875 1895 815 
Q 2006 756 2150 756 
Q 2500 756 2700 1025 
Q 2900 1294 2900 1772 
L 2900 3500 
L 4019 3500 
L 4019 0 
L 2900 0 
L 2900 506 
Q 2647 200 2364 54 
Q 2081 -91 1741 -91 
Q 1134 -91 817 281 
Q 500 653 500 1363 
z
" transform="scale(0.015625)"/>
      <path id="DejaVuSans-Bold-32" d="M 1844 884 
L 3897 884 
L 3897 0 
L 506 0 
L 506 884 
L 2209 2388 
Q 2438 2594 2547 2791 
Q 2656 2988 2656 3200 
Q 2656 3528 2436 3728 
Q 2216 3928 1850 3928 
Q 1569 3928 1234 3808 
Q 900 3688 519 3450 
L 519 4475 
Q 925 4609 1322 4679 
Q 1719 4750 2100 4750 
Q 2938 4750 3402 4381 
Q 3866 4013 3866 3353 
Q 3866 2972 3669 2642 
Q 3472 2313 2841 1759 
L 1844 884 
z
" transform="scale(0.015625)"/>
      <path id="DejaVuSans-Bold-30" d="M 2944 2338 
Q 2944 3213 2780 3570 
Q 2616 3928 2228 3928 
Q 1841 3928 1675 3570 
Q 1509 3213 1509 2338 
Q 1509 1453 1675 1090 
Q 1841 728 2228 728 
Q 2613 728 2778 1090 
Q 2944 1453 2944 2338 
z
M 4147 2328 
Q 4147 1169 3647 539 
Q 3147 -91 2228 -91 
Q 1306 -91 806 539 
Q 306 1169 306 2328 
Q 306 3491 806 4120 
Q 1306 4750 2228 4750 
Q 3147 4750 3647 4120 
Q 4147 3491 4147 2328 
z
" transform="scale(0.015625)"/>
      <path id="DejaVuSans-Bold-35" d="M 678 4666 
L 3669 4666 
L 3669 3781 
L 1638 3781 
L 1638 3059 
Q 1775 3097 1914 3117 
Q 2053 3138 2203 3138 
Q 3056 3138 3531 2711 
Q 4006 2284 4006 1522 
Q 4006 766 3489 337 
Q 2972 -91 2053 -91 
Q 1656 -91 1267 -14 
Q 878 63 494 219 
L 494 1166 
Q 875 947 1217 837 
Q 1559 728 1863 728 
Q 2300 728 2551 942 
Q 2803 1156 2803 1522 
Q 2803 1891 2551 2103 
Q 2300 2316 1863 2316 
Q 1603 2316 1309 2248 
Q 1016 2181 678 2041 
L 678 4666 
z
" transform="scale(0.015625)"/>
     </defs>
     <use xlink:href="#DejaVuSans-Bold-52"/>
     <use xlink:href="#DejaVuSans-Bold-65" transform="translate(77.001953 0)"/>
     <use xlink:href="#DejaVuSans-Bold-74" transform="translate(144.824219 0)"/>
     <use xlink:href="#DejaVuSans-Bold-61" transform="translate(192.626953 0)"/>
     <use xlink:href="#DejaVuSans-Bold-69" transform="translate(260.107422 0)"/>
     <use xlink:href="#DejaVuSans-Bold-6c" transform="translate(294.384766 0)"/>
     <use xlink:href="#DejaVuSans-Bold-20" transform="translate(328.662109 0)"/>
     <use xlink:href="#DejaVuSans-Bold-44" transform="translate(363.476562 0)"/>
     <use xlink:href="#DejaVuSans-Bold-69" transform="translate(446.484375 0)"/>
     <use xlink:href="#DejaVuSans-Bold-65" transform="translate(480.761719 0)"/>
     <use xlink:href="#DejaVuSans-Bold-73" transform="translate(548.583984 0)"/>
     <use xlink:href="#DejaVuSans-Bold-65" transform="translate(608.105469 0)"/>
     <use xlink:href="#DejaVuSans-Bold-6c" transform="translate(675.927734 0)"/>
     <use xlink:href="#DejaVuSans-Bold-20" transform="translate(710.205078 0)"/>
     <use xlink:href="#DejaVuSans-Bold-50" transform="translate(745.019531 0)"/>
     <use xlink:href="#DejaVuSans-Bold-72" transform="translate(818.310547 0)"/>
     <use xlink:href="#DejaVuSans-Bold-69" transform="translate(867.626953 0)"/>
     <use xlink:href="#DejaVuSans-Bold-63" transform="translate(901.904297 0)"/>
     <use xlink:href="#DejaVuSans-Bold-65" transform="translate(961.181641 0)"/>
     <use xlink:href="#DejaVuSans-Bold-73" transform="translate(1029.003906 0)"/>
     <use xlink:href="#DejaVuSans-Bold-20" transform="translate(1088.525391 0)"/>
     <use xlink:href="#DejaVuSans-Bold-28" transform="translate(1123.339844 0)"/>
     <use xlink:href="#DejaVuSans-Bold-24" transform="translate(1169.042969 0)"/>
     <use xlink:href="#DejaVuSans-Bold-20" transform="translate(1238.623047 0)"/>
     <use xlink:href="#DejaVuSans-Bold-70" transform="translate(1273.4375 0)"/>
     <use xlink:href="#DejaVuSans-Bold-65" transform="translate(1345.019531 0)"/>
     <use xlink:href="#DejaVuSans-Bold-72" transform="translate(1412.841797 0)"/>
     <use xlink:href="#DejaVuSans-Bold-20" transform="translate(1462.158203 0)"/>
     <use xlink:href="#DejaVuSans-Bold-67" transform="translate(1496.972656 0)"/>
     <use xlink:href="#DejaVuSans-Bold-61" transform="translate(1568.554688 0)"/>
     <use xlink:href="#DejaVuSans-Bold-6c" transform="translate(1636.035156 0)"/>
     <use xlink:href="#DejaVuSans-Bold-6c" transform="translate(1670.3125 0)"/>
     <use xlink:href="#DejaVuSans-Bold-6f" transform="translate(1704.589844 0)"/>
     <use xlink:href="#DejaVuSans-Bold-6e" transform="translate(1773.291016 0)"/>
     <use xlink:href="#DejaVuSans-Bold-29" transform="translate(1844.482422 0)"/>
     <use xlink:href="#DejaVuSans-Bold-20" transform="translate(1890.185547 0)"/>
     <use xlink:href="#DejaVuSans-Bold-2d" transform="translate(1925 0)"/>
     <use xlink:href="#DejaVuSans-Bold-20" transform="translate(1966.503906 0)"/>
     <use xlink:href="#DejaVuSans-Bold-52" transform="translate(2001.318359 0)"/>
     <use xlink:href="#DejaVuSans-Bold-6f" transform="translate(2078.320312 0)"/>
     <use xlink:href="#DejaVuSans-Bold-63" transform="translate(2147.021484 0)"/>
     <use xlink:href="#DejaVuSans-Bold-6b" transform="translate(2206.298828 0)"/>
     <use xlink:href="#DejaVuSans-Bold-79" transform="translate(2272.802734 0)"/>
     <use xlink:href="#DejaVuSans-Bold-20" transform="translate(2337.988281 0)"/>
     <use xlink:href="#DejaVuSans-Bold-4d" transform="translate(2372.802734 0)"/>
     <use xlink:href="#DejaVuSans-Bold-6f" transform="translate(2472.314453 0)"/>
     <use xlink:href="#DejaVuSans-Bold-75" transform="translate(2541.015625 0)"/>
     <use xlink:href="#DejaVuSans-Bold-6e" transform="translate(2612.207031 0)"/>
     <use xlink:href="#DejaVuSans-Bold-74" transform="translate(2683.398438 0)"/>
     <use xlink:href="#DejaVuSans-Bold-61" transform="translate(2731.201172 0)"/>
     <use xlink:href="#DejaVuSans-Bold-69" transform="translate(2798.681641 0)"/>
     <use xlink:href="#DejaVuSans-Bold-6e" transform="translate(2832.958984 0)"/>
     <use xlink:href="#DejaVuSans-Bold-20" transform="translate(2904.150391 0)"/>
     <use xlink:href="#DejaVuSans-Bold-28" transform="translate(2938.964844 0)"/>
     <use xlink:href="#DejaVuSans-Bold-32" transform="translate(2984.667969 0)"/>
     <use xlink:href="#DejaVuSans-Bold-30" transform="translate(3054.248047 0)"/>
     <use xlink:href="#DejaVuSans-Bold-30" transform="translate(3123.828125 0)"/>
     <use xlink:href="#DejaVuSans-Bold-35" transform="translate(3193.408203 0)"/>
     <use xlink:href="#DejaVuSans-Bold-20" transform="translate(3262.988281 0)"/>
     <use xlink:href="#DejaVuSans-Bold-2d" transform="translate(3297.802734 0)"/>
     <use xlink:href="#DejaVuSans-Bold-20" transform="translate(3339.306641 0)"/>
     <use xlink:href="#DejaVuSans-Bold-32" transform="translate(3374.121094 0)"/>
     <use xlink:href="#DejaVuSans-Bold-30" transform="translate(3443.701172 0)"/>
     <use xlink:href="#DejaVuSans-Bold-32" transform="translate(3513.28125 0)"/>
     <use xlink:href="#DejaVuSans-Bold-32" transform="translate(3582.861328 0)"/>
     <use xlink:href="#DejaVuSans-Bold-29" transform="translate(3652.441406 0)"/>
    </g>
   </g>
  </g>
 </g>
 <defs>
  <clipPath id="p64a1fcb858">
   <rect x="59.409688" y="39.3575" width="645.2125" height="328.4"/>
  </clipPath>
 </defs>
</svg>
