<?xml version="1.0" encoding="utf-8" standalone="no"?>
<!DOCTYPE svg PUBLIC "-//W3C//DTD SVG 1.1//EN"
  "http://www.w3.org/Graphics/SVG/1.1/DTD/svg11.dtd">
<svg xmlns:xlink="http://www.w3.org/1999/xlink" width="711.822188pt" height="423.989062pt" viewBox="0 0 711.822188 423.989062" xmlns="http://www.w3.org/2000/svg" version="1.1">
 <metadata>
  <rdf:RDF xmlns:dc="http://purl.org/dc/elements/1.1/" xmlns:cc="http://creativecommons.org/ns#" xmlns:rdf="http://www.w3.org/1999/02/22-rdf-syntax-ns#">
   <cc:Work>
    <dc:type rdf:resource="http://purl.org/dc/dcmitype/StillImage"/>
    <dc:date>2025-10-02T11:22:56.428444</dc:date>
    <dc:format>image/svg+xml</dc:format>
    <dc:creator>
     <cc:Agent>
      <dc:title>Matplotlib v3.10.6, https://matplotlib.org/</dc:title>
     </cc:Agent>
    </dc:creator>
   </cc:Work>
  </rdf:RDF>
 </metadata>
 <defs>
  <style type="text/css">*{stroke-linejoin: round; stroke-linecap: butt}</style>
 </defs>
 <g id="figure_1">
  <g id="patch_1">
   <path d="M 0 423.989062 
L 711.822188 423.989062 
L 711.822188 0 
L 0 0 
z
" style="fill: #ffffff"/>
  </g>
  <g id="axes_1">
   <g id="patch_2">
    <path d="M 59.409688 367.7575 
L 704.622187 367.7575 
L 704.622187 39.3575 
L 59.409688 39.3575 
z
" style="fill: #ffffff"/>
   </g>
   <g id="FillBetweenPolyCollection_1"/>
   <g id="matplotlib.axis_1">
    <g id="xtick_1">
     <g id="line2d_1">
      <path d="M 82.263594 367.7575 
L 82.263594 39.3575 
" clip-path="url(#p6b4d2c1e22)" style="fill: none; stroke: #b0b0b0; stroke-opacity: 0.3; stroke-width: 0.5; stroke-linecap: square"/>
     </g>
     <g id="line2d_2">
      <defs>
       <path id="m45abd5ebe6" d="M 0 0 
L 0 3.5 
" style="stroke: #000000; stroke-width: 0.8"/>
      </defs>
      <g>
       <use xlink:href="#m45abd5ebe6" x="82.263594" y="367.7575" style="stroke: #000000; stroke-width: 0.8"/>
      </g>
     </g>
     <g id="text_1">
      <!-- 1994 -->
      <g transform="translate(85.022969 400.2075) rotate(-90) scale(0.1 -0.1)">
       <defs>
        <path id="DejaVuSans-31" d="M 794 531 
L 1825 531 
L 1825 4091 
L 703 3866 
L 703 4441 
L 1819 4666 
L 2450 4666 
L 2450 531 
L 3481 531 
L 3481 0 
L 794 0 
L 794 531 
z
" transform="scale(0.015625)"/>
        <path id="DejaVuSans-39" d="M 703 97 
L 703 672 
Q 941 559 1184 500 
Q 1428 441 1663 441 
Q 2288 441 2617 861 
Q 2947 1281 2994 2138 
Q 2813 1869 2534 1725 
Q 2256 1581 1919 1581 
Q 1219 1581 811 2004 
Q 403 2428 403 3163 
Q 403 3881 828 4315 
Q 1253 4750 1959 4750 
Q 2769 4750 3195 4129 
Q 3622 3509 3622 2328 
Q 3622 1225 3098 567 
Q 2575 -91 1691 -91 
Q 1453 -91 1209 -44 
Q 966 3 703 97 
z
M 1959 2075 
Q 2384 2075 2632 2365 
Q 2881 2656 2881 3163 
Q 2881 3666 2632 3958 
Q 2384 4250 1959 4250 
Q 1534 4250 1286 3958 
Q 1038 3666 1038 3163 
Q 1038 2656 1286 2365 
Q 1534 2075 1959 2075 
z
" transform="scale(0.015625)"/>
        <path id="DejaVuSans-34" d="M 2419 4116 
L 825 1625 
L 2419 1625 
L 2419 4116 
z
M 2253 4666 
L 3047 4666 
L 3047 1625 
L 3713 1625 
L 3713 1100 
L 3047 1100 
L 3047 0 
L 2419 0 
L 2419 1100 
L 313 1100 
L 313 1709 
L 2253 4666 
z
" transform="scale(0.015625)"/>
       </defs>
       <use xlink:href="#DejaVuSans-31"/>
       <use xlink:href="#DejaVuSans-39" transform="translate(63.623047 0)"/>
       <use xlink:href="#DejaVuSans-39" transform="translate(127.246094 0)"/>
       <use xlink:href="#DejaVuSans-34" transform="translate(190.869141 0)"/>
      </g>
     </g>
    </g>
    <g id="xtick_2">
     <g id="line2d_3">
      <path d="M 128.413334 367.7575 
L 128.413334 39.3575 
" clip-path="url(#p6b4d2c1e22)" style="fill: none; stroke: #b0b0b0; stroke-opacity: 0.3; stroke-width: 0.5; stroke-linecap: square"/>
     </g>
     <g id="line2d_4">
      <g>
       <use xlink:href="#m45abd5ebe6" x="128.413334" y="367.7575" style="stroke: #000000; stroke-width: 0.8"/>
      </g>
     </g>
     <g id="text_2">
      <!-- 1996 -->
      <g transform="translate(131.172709 400.2075) rotate(-90) scale(0.1 -0.1)">
       <defs>
        <path id="DejaVuSans-36" d="M 2113 2584 
Q 1688 2584 1439 2293 
Q 1191 2003 1191 1497 
Q 1191 994 1439 701 
Q 1688 409 2113 409 
Q 2538 409 2786 701 
Q 3034 994 3034 1497 
Q 3034 2003 2786 2293 
Q 2538 2584 2113 2584 
z
M 3366 4563 
L 3366 3988 
Q 3128 4100 2886 4159 
Q 2644 4219 2406 4219 
Q 1781 4219 1451 3797 
Q 1122 3375 1075 2522 
Q 1259 2794 1537 2939 
Q 1816 3084 2150 3084 
Q 2853 3084 3261 2657 
Q 3669 2231 3669 1497 
Q 3669 778 3244 343 
Q 2819 -91 2113 -91 
Q 1303 -91 875 529 
Q 447 1150 447 2328 
Q 447 3434 972 4092 
Q 1497 4750 2381 4750 
Q 2619 4750 2861 4703 
Q 3103 4656 3366 4563 
z
" transform="scale(0.015625)"/>
       </defs>
       <use xlink:href="#DejaVuSans-31"/>
       <use xlink:href="#DejaVuSans-39" transform="translate(63.623047 0)"/>
       <use xlink:href="#DejaVuSans-39" transform="translate(127.246094 0)"/>
       <use xlink:href="#DejaVuSans-36" transform="translate(190.869141 0)"/>
      </g>
     </g>
    </g>
    <g id="xtick_3">
     <g id="line2d_5">
      <path d="M 174.499941 367.7575 
L 174.499941 39.3575 
" clip-path="url(#p6b4d2c1e22)" style="fill: none; stroke: #b0b0b0; stroke-opacity: 0.3; stroke-width: 0.5; stroke-linecap: square"/>
     </g>
     <g id="line2d_6">
      <g>
       <use xlink:href="#m45abd5ebe6" x="174.499941" y="367.7575" style="stroke: #000000; stroke-width: 0.8"/>
      </g>
     </g>
     <g id="text_3">
      <!-- 1998 -->
      <g transform="translate(177.259316 400.2075) rotate(-90) scale(0.1 -0.1)">
       <defs>
        <path id="DejaVuSans-38" d="M 2034 2216 
Q 1584 2216 1326 1975 
Q 1069 1734 1069 1313 
Q 1069 891 1326 650 
Q 1584 409 2034 409 
Q 2484 409 2743 651 
Q 3003 894 3003 1313 
Q 3003 1734 2745 1975 
Q 2488 2216 2034 2216 
z
M 1403 2484 
Q 997 2584 770 2862 
Q 544 3141 544 3541 
Q 544 4100 942 4425 
Q 1341 4750 2034 4750 
Q 2731 4750 3128 4425 
Q 3525 4100 3525 3541 
Q 3525 3141 3298 2862 
Q 3072 2584 2669 2484 
Q 3125 2378 3379 2068 
Q 3634 1759 3634 1313 
Q 3634 634 3220 271 
Q 2806 -91 2034 -91 
Q 1263 -91 848 271 
Q 434 634 434 1313 
Q 434 1759 690 2068 
Q 947 2378 1403 2484 
z
M 1172 3481 
Q 1172 3119 1398 2916 
Q 1625 2713 2034 2713 
Q 2441 2713 2670 2916 
Q 2900 3119 2900 3481 
Q 2900 3844 2670 4047 
Q 2441 4250 2034 4250 
Q 1625 4250 1398 4047 
Q 1172 3844 1172 3481 
z
" transform="scale(0.015625)"/>
       </defs>
       <use xlink:href="#DejaVuSans-31"/>
       <use xlink:href="#DejaVuSans-39" transform="translate(63.623047 0)"/>
       <use xlink:href="#DejaVuSans-39" transform="translate(127.246094 0)"/>
       <use xlink:href="#DejaVuSans-38" transform="translate(190.869141 0)"/>
      </g>
     </g>
    </g>
    <g id="xtick_4">
     <g id="line2d_7">
      <path d="M 220.64968 367.7575 
L 220.64968 39.3575 
" clip-path="url(#p6b4d2c1e22)" style="fill: none; stroke: #b0b0b0; stroke-opacity: 0.3; stroke-width: 0.5; stroke-linecap: square"/>
     </g>
     <g id="line2d_8">
      <g>
       <use xlink:href="#m45abd5ebe6" x="220.64968" y="367.7575" style="stroke: #000000; stroke-width: 0.8"/>
      </g>
     </g>
     <g id="text_4">
      <!-- 2000 -->
      <g transform="translate(223.409055 400.2075) rotate(-90) scale(0.1 -0.1)">
       <defs>
        <path id="DejaVuSans-32" d="M 1228 531 
L 3431 531 
L 3431 0 
L 469 0 
L 469 531 
Q 828 903 1448 1529 
Q 2069 2156 2228 2338 
Q 2531 2678 2651 2914 
Q 2772 3150 2772 3378 
Q 2772 3750 2511 3984 
Q 2250 4219 1831 4219 
Q 1534 4219 1204 4116 
Q 875 4013 500 3803 
L 500 4441 
Q 881 4594 1212 4672 
Q 1544 4750 1819 4750 
Q 2544 4750 2975 4387 
Q 3406 4025 3406 3419 
Q 3406 3131 3298 2873 
Q 3191 2616 2906 2266 
Q 2828 2175 2409 1742 
Q 1991 1309 1228 531 
z
" transform="scale(0.015625)"/>
        <path id="DejaVuSans-30" d="M 2034 4250 
Q 1547 4250 1301 3770 
Q 1056 3291 1056 2328 
Q 1056 1369 1301 889 
Q 1547 409 2034 409 
Q 2525 409 2770 889 
Q 3016 1369 3016 2328 
Q 3016 3291 2770 3770 
Q 2525 4250 2034 4250 
z
M 2034 4750 
Q 2819 4750 3233 4129 
Q 3647 3509 3647 2328 
Q 3647 1150 3233 529 
Q 2819 -91 2034 -91 
Q 1250 -91 836 529 
Q 422 1150 422 2328 
Q 422 3509 836 4129 
Q 1250 4750 2034 4750 
z
" transform="scale(0.015625)"/>
       </defs>
       <use xlink:href="#DejaVuSans-32"/>
       <use xlink:href="#DejaVuSans-30" transform="translate(63.623047 0)"/>
       <use xlink:href="#DejaVuSans-30" transform="translate(127.246094 0)"/>
       <use xlink:href="#DejaVuSans-30" transform="translate(190.869141 0)"/>
      </g>
     </g>
    </g>
    <g id="xtick_5">
     <g id="line2d_9">
      <path d="M 266.736287 367.7575 
L 266.736287 39.3575 
" clip-path="url(#p6b4d2c1e22)" style="fill: none; stroke: #b0b0b0; stroke-opacity: 0.3; stroke-width: 0.5; stroke-linecap: square"/>
     </g>
     <g id="line2d_10">
      <g>
       <use xlink:href="#m45abd5ebe6" x="266.736287" y="367.7575" style="stroke: #000000; stroke-width: 0.8"/>
      </g>
     </g>
     <g id="text_5">
      <!-- 2002 -->
      <g transform="translate(269.495662 400.2075) rotate(-90) scale(0.1 -0.1)">
       <use xlink:href="#DejaVuSans-32"/>
       <use xlink:href="#DejaVuSans-30" transform="translate(63.623047 0)"/>
       <use xlink:href="#DejaVuSans-30" transform="translate(127.246094 0)"/>
       <use xlink:href="#DejaVuSans-32" transform="translate(190.869141 0)"/>
      </g>
     </g>
    </g>
    <g id="xtick_6">
     <g id="line2d_11">
      <path d="M 312.886027 367.7575 
L 312.886027 39.3575 
" clip-path="url(#p6b4d2c1e22)" style="fill: none; stroke: #b0b0b0; stroke-opacity: 0.3; stroke-width: 0.5; stroke-linecap: square"/>
     </g>
     <g id="line2d_12">
      <g>
       <use xlink:href="#m45abd5ebe6" x="312.886027" y="367.7575" style="stroke: #000000; stroke-width: 0.8"/>
      </g>
     </g>
     <g id="text_6">
      <!-- 2004 -->
      <g transform="translate(315.645402 400.2075) rotate(-90) scale(0.1 -0.1)">
       <use xlink:href="#DejaVuSans-32"/>
       <use xlink:href="#DejaVuSans-30" transform="translate(63.623047 0)"/>
       <use xlink:href="#DejaVuSans-30" transform="translate(127.246094 0)"/>
       <use xlink:href="#DejaVuSans-34" transform="translate(190.869141 0)"/>
      </g>
     </g>
    </g>
    <g id="xtick_7">
     <g id="line2d_13">
      <path d="M 358.972634 367.7575 
L 358.972634 39.3575 
" clip-path="url(#p6b4d2c1e22)" style="fill: none; stroke: #b0b0b0; stroke-opacity: 0.3; stroke-width: 0.5; stroke-linecap: square"/>
     </g>
     <g id="line2d_14">
      <g>
       <use xlink:href="#m45abd5ebe6" x="358.972634" y="367.7575" style="stroke: #000000; stroke-width: 0.8"/>
      </g>
     </g>
     <g id="text_7">
      <!-- 2006 -->
      <g transform="translate(361.732009 400.2075) rotate(-90) scale(0.1 -0.1)">
       <use xlink:href="#DejaVuSans-32"/>
       <use xlink:href="#DejaVuSans-30" transform="translate(63.623047 0)"/>
       <use xlink:href="#DejaVuSans-30" transform="translate(127.246094 0)"/>
       <use xlink:href="#DejaVuSans-36" transform="translate(190.869141 0)"/>
      </g>
     </g>
    </g>
    <g id="xtick_8">
     <g id="line2d_15">
      <path d="M 405.122373 367.7575 
L 405.122373 39.3575 
" clip-path="url(#p6b4d2c1e22)" style="fill: none; stroke: #b0b0b0; stroke-opacity: 0.3; stroke-width: 0.5; stroke-linecap: square"/>
     </g>
     <g id="line2d_16">
      <g>
       <use xlink:href="#m45abd5ebe6" x="405.122373" y="367.7575" style="stroke: #000000; stroke-width: 0.8"/>
      </g>
     </g>
     <g id="text_8">
      <!-- 2008 -->
      <g transform="translate(407.881748 400.2075) rotate(-90) scale(0.1 -0.1)">
       <use xlink:href="#DejaVuSans-32"/>
       <use xlink:href="#DejaVuSans-30" transform="translate(63.623047 0)"/>
       <use xlink:href="#DejaVuSans-30" transform="translate(127.246094 0)"/>
       <use xlink:href="#DejaVuSans-38" transform="translate(190.869141 0)"/>
      </g>
     </g>
    </g>
    <g id="xtick_9">
     <g id="line2d_17">
      <path d="M 451.208981 367.7575 
L 451.208981 39.3575 
" clip-path="url(#p6b4d2c1e22)" style="fill: none; stroke: #b0b0b0; stroke-opacity: 0.3; stroke-width: 0.5; stroke-linecap: square"/>
     </g>
     <g id="line2d_18">
      <g>
       <use xlink:href="#m45abd5ebe6" x="451.208981" y="367.7575" style="stroke: #000000; stroke-width: 0.8"/>
      </g>
     </g>
     <g id="text_9">
      <!-- 2010 -->
      <g transform="translate(453.968356 400.2075) rotate(-90) scale(0.1 -0.1)">
       <use xlink:href="#DejaVuSans-32"/>
       <use xlink:href="#DejaVuSans-30" transform="translate(63.623047 0)"/>
       <use xlink:href="#DejaVuSans-31" transform="translate(127.246094 0)"/>
       <use xlink:href="#DejaVuSans-30" transform="translate(190.869141 0)"/>
      </g>
     </g>
    </g>
    <g id="xtick_10">
     <g id="line2d_19">
      <path d="M 497.35872 367.7575 
L 497.35872 39.3575 
" clip-path="url(#p6b4d2c1e22)" style="fill: none; stroke: #b0b0b0; stroke-opacity: 0.3; stroke-width: 0.5; stroke-linecap: square"/>
     </g>
     <g id="line2d_20">
      <g>
       <use xlink:href="#m45abd5ebe6" x="497.35872" y="367.7575" style="stroke: #000000; stroke-width: 0.8"/>
      </g>
     </g>
     <g id="text_10">
      <!-- 2012 -->
      <g transform="translate(500.118095 400.2075) rotate(-90) scale(0.1 -0.1)">
       <use xlink:href="#DejaVuSans-32"/>
       <use xlink:href="#DejaVuSans-30" transform="translate(63.623047 0)"/>
       <use xlink:href="#DejaVuSans-31" transform="translate(127.246094 0)"/>
       <use xlink:href="#DejaVuSans-32" transform="translate(190.869141 0)"/>
      </g>
     </g>
    </g>
    <g id="xtick_11">
     <g id="line2d_21">
      <path d="M 543.445327 367.7575 
L 543.445327 39.3575 
" clip-path="url(#p6b4d2c1e22)" style="fill: none; stroke: #b0b0b0; stroke-opacity: 0.3; stroke-width: 0.5; stroke-linecap: square"/>
     </g>
     <g id="line2d_22">
      <g>
       <use xlink:href="#m45abd5ebe6" x="543.445327" y="367.7575" style="stroke: #000000; stroke-width: 0.8"/>
      </g>
     </g>
     <g id="text_11">
      <!-- 2014 -->
      <g transform="translate(546.204702 400.2075) rotate(-90) scale(0.1 -0.1)">
       <use xlink:href="#DejaVuSans-32"/>
       <use xlink:href="#DejaVuSans-30" transform="translate(63.623047 0)"/>
       <use xlink:href="#DejaVuSans-31" transform="translate(127.246094 0)"/>
       <use xlink:href="#DejaVuSans-34" transform="translate(190.869141 0)"/>
      </g>
     </g>
    </g>
    <g id="xtick_12">
     <g id="line2d_23">
      <path d="M 589.595067 367.7575 
L 589.595067 39.3575 
" clip-path="url(#p6b4d2c1e22)" style="fill: none; stroke: #b0b0b0; stroke-opacity: 0.3; stroke-width: 0.5; stroke-linecap: square"/>
     </g>
     <g id="line2d_24">
      <g>
       <use xlink:href="#m45abd5ebe6" x="589.595067" y="367.7575" style="stroke: #000000; stroke-width: 0.8"/>
      </g>
     </g>
     <g id="text_12">
      <!-- 2016 -->
      <g transform="translate(592.354442 400.2075) rotate(-90) scale(0.1 -0.1)">
       <use xlink:href="#DejaVuSans-32"/>
       <use xlink:href="#DejaVuSans-30" transform="translate(63.623047 0)"/>
       <use xlink:href="#DejaVuSans-31" transform="translate(127.246094 0)"/>
       <use xlink:href="#DejaVuSans-36" transform="translate(190.869141 0)"/>
      </g>
     </g>
    </g>
    <g id="xtick_13">
     <g id="line2d_25">
      <path d="M 635.681674 367.7575 
L 635.681674 39.3575 
" clip-path="url(#p6b4d2c1e22)" style="fill: none; stroke: #b0b0b0; stroke-opacity: 0.3; stroke-width: 0.5; stroke-linecap: square"/>
     </g>
     <g id="line2d_26">
      <g>
       <use xlink:href="#m45abd5ebe6" x="635.681674" y="367.7575" style="stroke: #000000; stroke-width: 0.8"/>
      </g>
     </g>
     <g id="text_13">
      <!-- 2018 -->
      <g transform="translate(638.441049 400.2075) rotate(-90) scale(0.1 -0.1)">
       <use xlink:href="#DejaVuSans-32"/>
       <use xlink:href="#DejaVuSans-30" transform="translate(63.623047 0)"/>
       <use xlink:href="#DejaVuSans-31" transform="translate(127.246094 0)"/>
       <use xlink:href="#DejaVuSans-38" transform="translate(190.869141 0)"/>
      </g>
     </g>
    </g>
    <g id="xtick_14">
     <g id="line2d_27">
      <path d="M 681.831413 367.7575 
L 681.831413 39.3575 
" clip-path="url(#p6b4d2c1e22)" style="fill: none; stroke: #b0b0b0; stroke-opacity: 0.3; stroke-width: 0.5; stroke-linecap: square"/>
     </g>
     <g id="line2d_28">
      <g>
       <use xlink:href="#m45abd5ebe6" x="681.831413" y="367.7575" style="stroke: #000000; stroke-width: 0.8"/>
      </g>
     </g>
     <g id="text_14">
      <!-- 2020 -->
      <g transform="translate(684.590788 400.2075) rotate(-90) scale(0.1 -0.1)">
       <use xlink:href="#DejaVuSans-32"/>
       <use xlink:href="#DejaVuSans-30" transform="translate(63.623047 0)"/>
       <use xlink:href="#DejaVuSans-32" transform="translate(127.246094 0)"/>
       <use xlink:href="#DejaVuSans-30" transform="translate(190.869141 0)"/>
      </g>
     </g>
    </g>
    <g id="text_15">
     <!-- Date -->
     <g transform="translate(366.479922 414.085469) scale(0.13 -0.13)">
      <defs>
       <path id="DejaVuSans-44" d="M 1259 4147 
L 1259 519 
L 2022 519 
Q 2988 519 3436 956 
Q 3884 1394 3884 2338 
Q 3884 3275 3436 3711 
Q 2988 4147 2022 4147 
L 1259 4147 
z
M 628 4666 
L 1925 4666 
Q 3281 4666 3915 4102 
Q 4550 3538 4550 2338 
Q 4550 1131 3912 565 
Q 3275 0 1925 0 
L 628 0 
L 628 4666 
z
" transform="scale(0.015625)"/>
       <path id="DejaVuSans-61" d="M 2194 1759 
Q 1497 1759 1228 1600 
Q 959 1441 959 1056 
Q 959 750 1161 570 
Q 1363 391 1709 391 
Q 2188 391 2477 730 
Q 2766 1069 2766 1631 
L 2766 1759 
L 2194 1759 
z
M 3341 1997 
L 3341 0 
L 2766 0 
L 2766 531 
Q 2569 213 2275 61 
Q 1981 -91 1556 -91 
Q 1019 -91 701 211 
Q 384 513 384 1019 
Q 384 1609 779 1909 
Q 1175 2209 1959 2209 
L 2766 2209 
L 2766 2266 
Q 2766 2663 2505 2880 
Q 2244 3097 1772 3097 
Q 1472 3097 1187 3025 
Q 903 2953 641 2809 
L 641 3341 
Q 956 3463 1253 3523 
Q 1550 3584 1831 3584 
Q 2591 3584 2966 3190 
Q 3341 2797 3341 1997 
z
" transform="scale(0.015625)"/>
       <path id="DejaVuSans-74" d="M 1172 4494 
L 1172 3500 
L 2356 3500 
L 2356 3053 
L 1172 3053 
L 1172 1153 
Q 1172 725 1289 603 
Q 1406 481 1766 481 
L 2356 481 
L 2356 0 
L 1766 0 
Q 1100 0 847 248 
Q 594 497 594 1153 
L 594 3053 
L 172 3053 
L 172 3500 
L 594 3500 
L 594 4494 
L 1172 4494 
z
" transform="scale(0.015625)"/>
       <path id="DejaVuSans-65" d="M 3597 1894 
L 3597 1613 
L 953 1613 
Q 991 1019 1311 708 
Q 1631 397 2203 397 
Q 2534 397 2845 478 
Q 3156 559 3463 722 
L 3463 178 
Q 3153 47 2828 -22 
Q 2503 -91 2169 -91 
Q 1331 -91 842 396 
Q 353 884 353 1716 
Q 353 2575 817 3079 
Q 1281 3584 2069 3584 
Q 2775 3584 3186 3129 
Q 3597 2675 3597 1894 
z
M 3022 2063 
Q 3016 2534 2758 2815 
Q 2500 3097 2075 3097 
Q 1594 3097 1305 2825 
Q 1016 2553 972 2059 
L 3022 2063 
z
" transform="scale(0.015625)"/>
      </defs>
      <use xlink:href="#DejaVuSans-44"/>
      <use xlink:href="#DejaVuSans-61" transform="translate(77.001953 0)"/>
      <use xlink:href="#DejaVuSans-74" transform="translate(138.28125 0)"/>
      <use xlink:href="#DejaVuSans-65" transform="translate(177.490234 0)"/>
     </g>
    </g>
   </g>
   <g id="matplotlib.axis_2">
    <g id="ytick_1">
     <g id="line2d_29">
      <path d="M 59.409688 367.7575 
L 704.622187 367.7575 
" clip-path="url(#p6b4d2c1e22)" style="fill: none; stroke: #b0b0b0; stroke-opacity: 0.3; stroke-width: 0.5; stroke-linecap: square"/>
     </g>
     <g id="line2d_30">
      <defs>
       <path id="mf8a171689f" d="M 0 0 
L -3.5 0 
" style="stroke: #000000; stroke-width: 0.8"/>
      </defs>
      <g>
       <use xlink:href="#mf8a171689f" x="59.409688" y="367.7575" style="stroke: #000000; stroke-width: 0.8"/>
      </g>
     </g>
     <g id="text_16">
      <!-- $0.00 -->
      <g transform="translate(23.781563 371.556719) scale(0.1 -0.1)">
       <defs>
        <path id="DejaVuSans-24" d="M 2163 -941 
L 1850 -941 
L 1847 0 
Q 1519 6 1191 76 
Q 863 147 531 288 
L 531 850 
Q 850 650 1176 548 
Q 1503 447 1850 444 
L 1850 1869 
Q 1159 1981 845 2250 
Q 531 2519 531 2988 
Q 531 3497 872 3790 
Q 1213 4084 1850 4128 
L 1850 4863 
L 2163 4863 
L 2163 4138 
Q 2453 4125 2725 4076 
Q 2997 4028 3256 3944 
L 3256 3397 
Q 2997 3528 2723 3600 
Q 2450 3672 2163 3684 
L 2163 2350 
Q 2872 2241 3206 1959 
Q 3541 1678 3541 1191 
Q 3541 663 3186 358 
Q 2831 53 2163 6 
L 2163 -941 
z
M 1850 2406 
L 1850 3688 
Q 1488 3647 1297 3481 
Q 1106 3316 1106 3041 
Q 1106 2772 1282 2622 
Q 1459 2472 1850 2406 
z
M 2163 1806 
L 2163 453 
Q 2559 506 2761 678 
Q 2963 850 2963 1131 
Q 2963 1406 2770 1568 
Q 2578 1731 2163 1806 
z
" transform="scale(0.015625)"/>
        <path id="DejaVuSans-2e" d="M 684 794 
L 1344 794 
L 1344 0 
L 684 0 
L 684 794 
z
" transform="scale(0.015625)"/>
       </defs>
       <use xlink:href="#DejaVuSans-24"/>
       <use xlink:href="#DejaVuSans-30" transform="translate(63.623047 0)"/>
       <use xlink:href="#DejaVuSans-2e" transform="translate(127.246094 0)"/>
       <use xlink:href="#DejaVuSans-30" transform="translate(159.033203 0)"/>
       <use xlink:href="#DejaVuSans-30" transform="translate(222.65625 0)"/>
      </g>
     </g>
    </g>
    <g id="ytick_2">
     <g id="line2d_31">
      <path d="M 59.409688 334.9175 
L 704.622187 334.9175 
" clip-path="url(#p6b4d2c1e22)" style="fill: none; stroke: #b0b0b0; stroke-opacity: 0.3; stroke-width: 0.5; stroke-linecap: square"/>
     </g>
     <g id="line2d_32">
      <g>
       <use xlink:href="#mf8a171689f" x="59.409688" y="334.9175" style="stroke: #000000; stroke-width: 0.8"/>
      </g>
     </g>
     <g id="text_17">
      <!-- $0.50 -->
      <g transform="translate(23.781563 338.716719) scale(0.1 -0.1)">
       <defs>
        <path id="DejaVuSans-35" d="M 691 4666 
L 3169 4666 
L 3169 4134 
L 1269 4134 
L 1269 2991 
Q 1406 3038 1543 3061 
Q 1681 3084 1819 3084 
Q 2600 3084 3056 2656 
Q 3513 2228 3513 1497 
Q 3513 744 3044 326 
Q 2575 -91 1722 -91 
Q 1428 -91 1123 -41 
Q 819 9 494 109 
L 494 744 
Q 775 591 1075 516 
Q 1375 441 1709 441 
Q 2250 441 2565 725 
Q 2881 1009 2881 1497 
Q 2881 1984 2565 2268 
Q 2250 2553 1709 2553 
Q 1456 2553 1204 2497 
Q 953 2441 691 2322 
L 691 4666 
z
" transform="scale(0.015625)"/>
       </defs>
       <use xlink:href="#DejaVuSans-24"/>
       <use xlink:href="#DejaVuSans-30" transform="translate(63.623047 0)"/>
       <use xlink:href="#DejaVuSans-2e" transform="translate(127.246094 0)"/>
       <use xlink:href="#DejaVuSans-35" transform="translate(159.033203 0)"/>
       <use xlink:href="#DejaVuSans-30" transform="translate(222.65625 0)"/>
      </g>
     </g>
    </g>
    <g id="ytick_3">
     <g id="line2d_33">
      <path d="M 59.409688 302.0775 
L 704.622187 302.0775 
" clip-path="url(#p6b4d2c1e22)" style="fill: none; stroke: #b0b0b0; stroke-opacity: 0.3; stroke-width: 0.5; stroke-linecap: square"/>
     </g>
     <g id="line2d_34">
      <g>
       <use xlink:href="#mf8a171689f" x="59.409688" y="302.0775" style="stroke: #000000; stroke-width: 0.8"/>
      </g>
     </g>
     <g id="text_18">
      <!-- $1.00 -->
      <g transform="translate(23.781563 305.876719) scale(0.1 -0.1)">
       <use xlink:href="#DejaVuSans-24"/>
       <use xlink:href="#DejaVuSans-31" transform="translate(63.623047 0)"/>
       <use xlink:href="#DejaVuSans-2e" transform="translate(127.246094 0)"/>
       <use xlink:href="#DejaVuSans-30" transform="translate(159.033203 0)"/>
       <use xlink:href="#DejaVuSans-30" transform="translate(222.65625 0)"/>
      </g>
     </g>
    </g>
    <g id="ytick_4">
     <g id="line2d_35">
      <path d="M 59.409688 269.2375 
L 704.622187 269.2375 
" clip-path="url(#p6b4d2c1e22)" style="fill: none; stroke: #b0b0b0; stroke-opacity: 0.3; stroke-width: 0.5; stroke-linecap: square"/>
     </g>
     <g id="line2d_36">
      <g>
       <use xlink:href="#mf8a171689f" x="59.409688" y="269.2375" style="stroke: #000000; stroke-width: 0.8"/>
      </g>
     </g>
     <g id="text_19">
      <!-- $1.50 -->
      <g transform="translate(23.781563 273.036719) scale(0.1 -0.1)">
       <use xlink:href="#DejaVuSans-24"/>
       <use xlink:href="#DejaVuSans-31" transform="translate(63.623047 0)"/>
       <use xlink:href="#DejaVuSans-2e" transform="translate(127.246094 0)"/>
       <use xlink:href="#DejaVuSans-35" transform="translate(159.033203 0)"/>
       <use xlink:href="#DejaVuSans-30" transform="translate(222.65625 0)"/>
      </g>
     </g>
    </g>
    <g id="ytick_5">
     <g id="line2d_37">
      <path d="M 59.409688 236.3975 
L 704.622187 236.3975 
" clip-path="url(#p6b4d2c1e22)" style="fill: none; stroke: #b0b0b0; stroke-opacity: 0.3; stroke-width: 0.5; stroke-linecap: square"/>
     </g>
     <g id="line2d_38">
      <g>
       <use xlink:href="#mf8a171689f" x="59.409688" y="236.3975" style="stroke: #000000; stroke-width: 0.8"/>
      </g>
     </g>
     <g id="text_20">
      <!-- $2.00 -->
      <g transform="translate(23.781563 240.196719) scale(0.1 -0.1)">
       <use xlink:href="#DejaVuSans-24"/>
       <use xlink:href="#DejaVuSans-32" transform="translate(63.623047 0)"/>
       <use xlink:href="#DejaVuSans-2e" transform="translate(127.246094 0)"/>
       <use xlink:href="#DejaVuSans-30" transform="translate(159.033203 0)"/>
       <use xlink:href="#DejaVuSans-30" transform="translate(222.65625 0)"/>
      </g>
     </g>
    </g>
    <g id="ytick_6">
     <g id="line2d_39">
      <path d="M 59.409688 203.5575 
L 704.622187 203.5575 
" clip-path="url(#p6b4d2c1e22)" style="fill: none; stroke: #b0b0b0; stroke-opacity: 0.3; stroke-width: 0.5; stroke-linecap: square"/>
     </g>
     <g id="line2d_40">
      <g>
       <use xlink:href="#mf8a171689f" x="59.409688" y="203.5575" style="stroke: #000000; stroke-width: 0.8"/>
      </g>
     </g>
     <g id="text_21">
      <!-- $2.50 -->
      <g transform="translate(23.781563 207.356719) scale(0.1 -0.1)">
       <use xlink:href="#DejaVuSans-24"/>
       <use xlink:href="#DejaVuSans-32" transform="translate(63.623047 0)"/>
       <use xlink:href="#DejaVuSans-2e" transform="translate(127.246094 0)"/>
       <use xlink:href="#DejaVuSans-35" transform="translate(159.033203 0)"/>
       <use xlink:href="#DejaVuSans-30" transform="translate(222.65625 0)"/>
      </g>
     </g>
    </g>
    <g id="ytick_7">
     <g id="line2d_41">
      <path d="M 59.409688 170.7175 
L 704.622187 170.7175 
" clip-path="url(#p6b4d2c1e22)" style="fill: none; stroke: #b0b0b0; stroke-opacity: 0.3; stroke-width: 0.5; stroke-linecap: square"/>
     </g>
     <g id="line2d_42">
      <g>
       <use xlink:href="#mf8a171689f" x="59.409688" y="170.7175" style="stroke: #000000; stroke-width: 0.8"/>
      </g>
     </g>
     <g id="text_22">
      <!-- $3.00 -->
      <g transform="translate(23.781563 174.516719) scale(0.1 -0.1)">
       <defs>
        <path id="DejaVuSans-33" d="M 2597 2516 
Q 3050 2419 3304 2112 
Q 3559 1806 3559 1356 
Q 3559 666 3084 287 
Q 2609 -91 1734 -91 
Q 1441 -91 1130 -33 
Q 819 25 488 141 
L 488 750 
Q 750 597 1062 519 
Q 1375 441 1716 441 
Q 2309 441 2620 675 
Q 2931 909 2931 1356 
Q 2931 1769 2642 2001 
Q 2353 2234 1838 2234 
L 1294 2234 
L 1294 2753 
L 1863 2753 
Q 2328 2753 2575 2939 
Q 2822 3125 2822 3475 
Q 2822 3834 2567 4026 
Q 2313 4219 1838 4219 
Q 1578 4219 1281 4162 
Q 984 4106 628 3988 
L 628 4550 
Q 988 4650 1302 4700 
Q 1616 4750 1894 4750 
Q 2613 4750 3031 4423 
Q 3450 4097 3450 3541 
Q 3450 3153 3228 2886 
Q 3006 2619 2597 2516 
z
" transform="scale(0.015625)"/>
       </defs>
       <use xlink:href="#DejaVuSans-24"/>
       <use xlink:href="#DejaVuSans-33" transform="translate(63.623047 0)"/>
       <use xlink:href="#DejaVuSans-2e" transform="translate(127.246094 0)"/>
       <use xlink:href="#DejaVuSans-30" transform="translate(159.033203 0)"/>
       <use xlink:href="#DejaVuSans-30" transform="translate(222.65625 0)"/>
      </g>
     </g>
    </g>
    <g id="ytick_8">
     <g id="line2d_43">
      <path d="M 59.409688 137.8775 
L 704.622187 137.8775 
" clip-path="url(#p6b4d2c1e22)" style="fill: none; stroke: #b0b0b0; stroke-opacity: 0.3; stroke-width: 0.5; stroke-linecap: square"/>
     </g>
     <g id="line2d_44">
      <g>
       <use xlink:href="#mf8a171689f" x="59.409688" y="137.8775" style="stroke: #000000; stroke-width: 0.8"/>
      </g>
     </g>
     <g id="text_23">
      <!-- $3.50 -->
      <g transform="translate(23.781563 141.676719) scale(0.1 -0.1)">
       <use xlink:href="#DejaVuSans-24"/>
       <use xlink:href="#DejaVuSans-33" transform="translate(63.623047 0)"/>
       <use xlink:href="#DejaVuSans-2e" transform="translate(127.246094 0)"/>
       <use xlink:href="#DejaVuSans-35" transform="translate(159.033203 0)"/>
       <use xlink:href="#DejaVuSans-30" transform="translate(222.65625 0)"/>
      </g>
     </g>
    </g>
    <g id="ytick_9">
     <g id="line2d_45">
      <path d="M 59.409688 105.0375 
L 704.622187 105.0375 
" clip-path="url(#p6b4d2c1e22)" style="fill: none; stroke: #b0b0b0; stroke-opacity: 0.3; stroke-width: 0.5; stroke-linecap: square"/>
     </g>
     <g id="line2d_46">
      <g>
       <use xlink:href="#mf8a171689f" x="59.409688" y="105.0375" style="stroke: #000000; stroke-width: 0.8"/>
      </g>
     </g>
     <g id="text_24">
      <!-- $4.00 -->
      <g transform="translate(23.781563 108.836719) scale(0.1 -0.1)">
       <use xlink:href="#DejaVuSans-24"/>
       <use xlink:href="#DejaVuSans-34" transform="translate(63.623047 0)"/>
       <use xlink:href="#DejaVuSans-2e" transform="translate(127.246094 0)"/>
       <use xlink:href="#DejaVuSans-30" transform="translate(159.033203 0)"/>
       <use xlink:href="#DejaVuSans-30" transform="translate(222.65625 0)"/>
      </g>
     </g>
    </g>
    <g id="ytick_10">
     <g id="line2d_47">
      <path d="M 59.409688 72.1975 
L 704.622187 72.1975 
" clip-path="url(#p6b4d2c1e22)" style="fill: none; stroke: #b0b0b0; stroke-opacity: 0.3; stroke-width: 0.5; stroke-linecap: square"/>
     </g>
     <g id="line2d_48">
      <g>
       <use xlink:href="#mf8a171689f" x="59.409688" y="72.1975" style="stroke: #000000; stroke-width: 0.8"/>
      </g>
     </g>
     <g id="text_25">
      <!-- $4.50 -->
      <g transform="translate(23.781563 75.996719) scale(0.1 -0.1)">
       <use xlink:href="#DejaVuSans-24"/>
       <use xlink:href="#DejaVuSans-34" transform="translate(63.623047 0)"/>
       <use xlink:href="#DejaVuSans-2e" transform="translate(127.246094 0)"/>
       <use xlink:href="#DejaVuSans-35" transform="translate(159.033203 0)"/>
       <use xlink:href="#DejaVuSans-30" transform="translate(222.65625 0)"/>
      </g>
     </g>
    </g>
    <g id="ytick_11">
     <g id="line2d_49">
      <path d="M 59.409688 39.3575 
L 704.622187 39.3575 
" clip-path="url(#p6b4d2c1e22)" style="fill: none; stroke: #b0b0b0; stroke-opacity: 0.3; stroke-width: 0.5; stroke-linecap: square"/>
     </g>
     <g id="line2d_50">
      <g>
       <use xlink:href="#mf8a171689f" x="59.409688" y="39.3575" style="stroke: #000000; stroke-width: 0.8"/>
      </g>
     </g>
     <g id="text_26">
      <!-- $5.00 -->
      <g transform="translate(23.781563 43.156719) scale(0.1 -0.1)">
       <use xlink:href="#DejaVuSans-24"/>
       <use xlink:href="#DejaVuSans-35" transform="translate(63.623047 0)"/>
       <use xlink:href="#DejaVuSans-2e" transform="translate(127.246094 0)"/>
       <use xlink:href="#DejaVuSans-30" transform="translate(159.033203 0)"/>
       <use xlink:href="#DejaVuSans-30" transform="translate(222.65625 0)"/>
      </g>
     </g>
    </g>
    <g id="text_27">
     <!-- USD -->
     <g transform="translate(17.077969 217.446172) rotate(-90) scale(0.13 -0.13)">
      <defs>
       <path id="DejaVuSans-55" d="M 556 4666 
L 1191 4666 
L 1191 1831 
Q 1191 1081 1462 751 
Q 1734 422 2344 422 
Q 2950 422 3222 751 
Q 3494 1081 3494 1831 
L 3494 4666 
L 4128 4666 
L 4128 1753 
Q 4128 841 3676 375 
Q 3225 -91 2344 -91 
Q 1459 -91 1007 375 
Q 556 841 556 1753 
L 556 4666 
z
" transform="scale(0.015625)"/>
       <path id="DejaVuSans-53" d="M 3425 4513 
L 3425 3897 
Q 3066 4069 2747 4153 
Q 2428 4238 2131 4238 
Q 1616 4238 1336 4038 
Q 1056 3838 1056 3469 
Q 1056 3159 1242 3001 
Q 1428 2844 1947 2747 
L 2328 2669 
Q 3034 2534 3370 2195 
Q 3706 1856 3706 1288 
Q 3706 609 3251 259 
Q 2797 -91 1919 -91 
Q 1588 -91 1214 -16 
Q 841 59 441 206 
L 441 856 
Q 825 641 1194 531 
Q 1563 422 1919 422 
Q 2459 422 2753 634 
Q 3047 847 3047 1241 
Q 3047 1584 2836 1778 
Q 2625 1972 2144 2069 
L 1759 2144 
Q 1053 2284 737 2584 
Q 422 2884 422 3419 
Q 422 4038 858 4394 
Q 1294 4750 2059 4750 
Q 2388 4750 2728 4690 
Q 3069 4631 3425 4513 
z
" transform="scale(0.015625)"/>
      </defs>
      <use xlink:href="#DejaVuSans-55"/>
      <use xlink:href="#DejaVuSans-53" transform="translate(73.193359 0)"/>
      <use xlink:href="#DejaVuSans-44" transform="translate(136.669922 0)"/>
     </g>
    </g>
   </g>
   <g id="line2d_51">
    <path d="M 64.270878 295.1811 
L 64.712804 295.5095 
L 65.15473 295.31246 
L 66.038583 294.32726 
L 66.480509 294.65566 
L 66.922436 293.8675 
L 67.364362 294.1959 
L 68.248215 294.13022 
L 68.690141 293.60478 
L 69.132068 294.13022 
L 69.573994 294.45862 
L 70.01592 294.39294 
L 70.457847 294.06454 
L 70.899773 294.32726 
L 71.783626 293.99886 
L 72.225552 294.06454 
L 73.109405 293.07934 
L 73.551331 293.27638 
L 73.993258 292.48822 
L 74.87711 289.33558 
L 75.319037 288.87582 
L 75.760963 288.74446 
L 76.20289 288.87582 
L 76.644816 289.33558 
L 77.528669 289.13854 
L 77.970595 288.74446 
L 78.412521 288.54742 
L 78.854448 288.67878 
L 79.296374 288.48174 
L 79.738301 288.9415 
L 80.180227 289.72966 
L 81.06408 291.8971 
L 81.506006 292.35686 
L 82.389859 293.8675 
L 82.831785 294.06454 
L 83.273711 294.65566 
L 83.715638 294.91838 
L 84.157564 295.8379 
L 84.599491 296.23198 
L 85.92527 295.77222 
L 86.367196 294.78702 
L 86.809122 295.04974 
L 87.251049 295.11542 
L 87.692975 294.98406 
L 88.576828 294.39294 
L 89.460681 293.01366 
L 89.902607 292.68526 
L 90.344533 291.83142 
L 90.78646 291.70006 
L 91.228386 291.2403 
L 91.670313 291.10894 
L 92.112239 291.10894 
L 92.554165 291.43734 
L 92.996092 291.2403 
L 93.438018 291.8971 
L 93.879944 291.5687 
L 94.321871 292.35686 
L 95.205723 292.8823 
L 95.64765 292.81662 
L 97.415355 291.5687 
L 97.857282 290.5835 
L 98.299208 290.18942 
L 98.741134 289.5983 
L 100.066914 288.2847 
L 100.950766 288.15334 
L 102.276545 287.49654 
L 102.718472 287.10246 
L 103.160398 287.03678 
L 103.602324 287.23382 
L 104.044251 287.75926 
L 104.486177 288.54742 
L 104.928104 288.81014 
L 105.37003 288.74446 
L 105.811956 289.40126 
L 107.137735 289.86102 
L 107.579662 290.32078 
L 108.021588 290.2551 
L 108.463515 290.51782 
L 108.905441 290.64918 
L 109.347367 289.79534 
L 109.789294 289.79534 
L 110.23122 289.13854 
L 110.673146 288.08766 
L 111.115073 287.6279 
L 111.556999 285.6575 
L 111.998926 281.78238 
L 112.440852 279.61494 
L 112.882778 278.62974 
L 113.324705 277.1191 
L 113.766631 276.59366 
L 114.208557 276.52798 
L 115.09241 278.30134 
L 115.976263 283.22734 
L 116.418189 284.73798 
L 116.860116 285.3291 
L 117.302042 286.3143 
L 117.743968 286.90542 
L 118.185895 287.2995 
L 119.069747 287.69358 
L 119.511674 287.56222 
L 119.9536 286.44566 
L 120.395527 284.86934 
L 121.279379 282.7019 
L 121.721306 280.7315 
L 124.372864 277.25046 
L 124.81479 277.1191 
L 125.256717 277.1191 
L 125.698643 277.25046 
L 126.140569 277.71022 
L 126.582496 277.97294 
L 127.024422 278.69542 
L 127.466348 279.02382 
L 127.908275 279.68062 
L 129.234054 280.7315 
L 131.001759 282.0451 
L 131.443686 281.97942 
L 131.885612 282.83326 
L 132.769465 283.3587 
L 133.211391 283.62142 
L 133.653318 283.49006 
L 134.095244 283.22734 
L 134.53717 283.75278 
L 134.979097 283.81846 
L 135.421023 284.14686 
L 135.862949 284.27822 
L 136.304876 283.94982 
L 136.746802 285.26342 
L 137.188729 284.14686 
L 137.630655 284.0155 
L 138.072581 284.60662 
L 138.514508 284.86934 
L 139.840287 287.75926 
L 140.282213 287.49654 
L 140.72414 288.41606 
L 141.607992 289.53262 
L 142.491845 289.13854 
L 142.933771 288.6131 
L 143.375698 287.43086 
L 143.817624 286.70838 
L 144.259551 286.77406 
L 144.701477 286.6427 
L 145.58533 287.43086 
L 146.027256 287.49654 
L 146.469182 286.77406 
L 146.911109 286.3143 
L 147.353035 286.05158 
L 148.678814 283.6871 
L 149.562667 283.16166 
L 150.004593 284.14686 
L 150.44652 284.80366 
L 150.888446 286.11726 
L 151.330372 286.57702 
L 151.772299 287.75926 
L 152.656152 292.61958 
L 153.540004 295.90358 
L 153.981931 296.03494 
L 154.865783 296.8231 
L 155.30771 295.8379 
L 155.749636 296.23198 
L 156.191563 297.28286 
L 156.633489 297.41422 
L 157.075415 295.90358 
L 157.517342 295.77222 
L 157.959268 295.90358 
L 159.285047 294.26158 
L 159.726973 293.5391 
L 160.610826 293.67046 
L 161.052753 294.26158 
L 161.936605 295.70654 
L 162.378532 296.29766 
L 162.820458 297.1515 
L 163.262384 296.56038 
L 163.704311 297.1515 
L 164.146237 297.54558 
L 165.913943 297.28286 
L 166.355869 297.34854 
L 166.797795 297.02014 
L 167.239722 296.95446 
L 168.123574 296.29766 
L 168.565501 296.03494 
L 169.007427 295.64086 
L 169.449354 295.44382 
L 170.333206 295.5095 
L 170.775133 295.44382 
L 171.217059 295.64086 
L 171.658985 296.1663 
L 172.100912 297.61126 
L 172.542838 298.39942 
L 172.984765 300.17278 
L 173.868617 302.53726 
L 174.310544 302.27454 
L 175.194396 303.0627 
L 176.078249 303.0627 
L 176.520176 303.25974 
L 177.404028 302.93134 
L 177.845955 302.86566 
L 178.729807 302.34022 
L 180.055586 296.69174 
L 180.497513 293.93318 
L 180.939439 292.61958 
L 181.823292 291.96278 
L 182.265218 291.96278 
L 182.707145 291.83142 
L 183.149071 291.96278 
L 183.590997 292.35686 
L 184.032924 292.42254 
L 184.47485 293.2107 
L 185.358703 293.07934 
L 185.800629 292.35686 
L 186.242556 290.97758 
L 186.684482 290.5835 
L 188.452188 286.57702 
L 188.894114 285.0007 
L 189.777967 283.0303 
L 190.661819 282.50486 
L 191.103746 282.50486 
L 191.545672 282.89894 
L 192.429525 283.0303 
L 192.871451 283.42438 
L 193.313378 283.16166 
L 193.755304 283.09598 
L 194.19723 283.16166 
L 194.639157 282.3735 
L 195.081083 280.92854 
L 195.523009 280.27174 
L 195.964936 280.00902 
L 196.406862 279.87766 
L 197.290715 280.27174 
L 197.732641 280.33742 
L 198.174568 280.27174 
L 198.616494 280.60014 
L 199.05842 278.62974 
L 199.500347 277.97294 
L 199.942273 276.26526 
L 200.384199 275.93686 
L 200.826126 275.21438 
L 201.268052 274.22918 
L 201.709979 271.5363 
L 202.151905 269.63158 
L 202.593831 268.77774 
L 203.035758 268.64638 
L 203.477684 268.2523 
L 203.91961 269.04046 
L 204.361537 271.27358 
L 204.803463 272.39014 
L 205.687316 273.37534 
L 206.129242 273.04694 
L 206.571169 272.06174 
L 207.013095 271.99606 
L 207.455021 272.12742 
L 207.896948 271.73334 
L 208.338874 271.99606 
L 208.780801 270.74814 
L 209.222727 270.48542 
L 209.664653 270.35406 
L 210.10658 270.74814 
L 210.548506 272.39014 
L 210.990432 271.47062 
L 211.432359 271.93038 
L 212.316211 270.15702 
L 212.758138 266.41326 
L 213.200064 261.29022 
L 214.525843 253.99974 
L 214.96777 253.34294 
L 215.409696 253.27726 
L 215.851622 251.89798 
L 216.293549 251.76662 
L 216.735475 252.8175 
L 218.061254 257.28374 
L 218.503181 257.48078 
L 218.945107 259.0571 
L 219.387033 261.48726 
L 219.82896 262.20974 
L 220.270886 264.77126 
L 221.154739 266.80734 
L 221.596665 268.05526 
L 222.038592 267.72686 
L 222.480518 267.13574 
L 223.806297 268.12094 
L 225.574003 271.33926 
L 226.015929 271.8647 
L 226.457855 271.93038 
L 226.899782 271.40494 
L 227.341708 269.82862 
L 227.783634 269.04046 
L 228.225561 267.9239 
L 229.109414 263.58902 
L 229.55134 262.9979 
L 229.993266 261.29022 
L 230.435193 261.22454 
L 231.319045 263.06358 
L 231.760972 265.2967 
L 232.644824 273.1783 
L 233.086751 275.8055 
L 233.528677 277.51318 
L 233.970604 278.56406 
L 234.41253 278.89246 
L 234.854456 277.51318 
L 235.296383 276.59366 
L 235.738309 272.71854 
L 236.180235 267.46414 
L 236.622162 266.34758 
L 237.064088 263.9831 
L 237.506015 265.69078 
L 237.947941 269.04046 
L 239.715646 277.1191 
L 240.599499 281.51966 
L 241.483352 285.06638 
L 242.809131 293.93318 
L 243.251057 295.11542 
L 243.692984 293.93318 
L 244.13491 293.67046 
L 244.576836 293.67046 
L 245.018763 293.80182 
L 245.460689 294.06454 
L 245.902616 293.93318 
L 246.786468 292.8823 
L 247.228395 292.8823 
L 247.670321 291.76574 
L 248.554174 285.85454 
L 248.9961 283.0303 
L 249.438027 280.92854 
L 249.879953 279.4179 
L 250.321879 278.62974 
L 251.205732 278.69542 
L 251.647658 278.36702 
L 252.089585 278.62974 
L 252.531511 278.69542 
L 252.973438 278.89246 
L 253.415364 279.35222 
L 253.85729 280.0747 
L 254.299217 281.32262 
L 255.183069 281.12558 
L 256.066922 280.60014 
L 256.508848 280.14038 
L 256.950775 280.27174 
L 257.392701 280.27174 
L 257.834628 280.4031 
L 259.602333 273.37534 
L 260.044259 271.99606 
L 260.486186 271.40494 
L 261.370039 269.63158 
L 262.253891 268.44934 
L 262.695818 268.64638 
L 263.57967 269.50022 
L 264.021597 271.79902 
L 264.463523 272.45582 
L 264.905449 272.39014 
L 265.347376 272.91558 
L 265.789302 274.03214 
L 266.231229 273.57238 
L 266.673155 272.45582 
L 267.115081 271.8647 
L 267.557008 272.8499 
L 267.998934 272.8499 
L 268.44086 272.25878 
L 268.882787 269.2375 
L 269.76664 260.17366 
L 270.208566 258.20326 
L 270.650492 253.73702 
L 271.092419 250.71574 
L 271.534345 250.8471 
L 273.302051 263.52334 
L 273.743977 264.6399 
L 274.185903 266.74166 
L 274.62783 267.5955 
L 275.069756 270.02566 
L 275.511682 270.35406 
L 275.953609 271.79902 
L 276.395535 272.8499 
L 276.837461 273.1783 
L 277.279388 272.58718 
L 277.721314 272.65286 
L 278.163241 272.1931 
L 278.605167 271.99606 
L 279.047093 271.40494 
L 279.48902 271.33926 
L 279.930946 271.40494 
L 280.372872 270.5511 
L 280.814799 268.9091 
L 281.256725 267.79254 
L 281.698652 265.88782 
L 282.140578 264.90262 
L 283.024431 266.47894 
L 283.908283 270.5511 
L 284.35021 270.28838 
L 284.792136 268.84342 
L 285.234063 266.74166 
L 285.675989 266.9387 
L 286.117915 266.47894 
L 286.559842 266.67598 
L 287.443694 266.54462 
L 288.327547 267.39846 
L 288.769473 267.52982 
L 289.653326 267.39846 
L 290.095253 267.46414 
L 290.537179 266.9387 
L 290.979105 266.6103 
L 291.421032 265.6251 
L 291.862958 265.9535 
L 292.304884 266.54462 
L 293.188737 264.90262 
L 293.630664 262.73518 
L 294.07259 261.15886 
L 294.514516 260.30502 
L 294.956443 258.0719 
L 295.398369 257.4151 
L 295.840295 256.29854 
L 296.282222 252.94886 
L 296.724148 247.2347 
L 297.166074 244.54182 
L 297.608001 243.49094 
L 298.049927 241.12646 
L 298.491854 239.61582 
L 298.93378 239.3531 
L 299.817633 241.58622 
L 300.701485 247.2347 
L 301.143412 248.5483 
L 301.585338 250.32166 
L 302.027265 249.92758 
L 302.469191 249.73054 
L 303.353044 248.02286 
L 303.79497 246.31518 
L 304.236896 245.46134 
L 304.678823 243.22822 
L 305.120749 241.9803 
L 305.562676 241.78326 
L 306.004602 241.71758 
L 306.446528 240.53534 
L 307.772307 227.72774 
L 308.214234 222.01358 
L 308.65616 218.13846 
L 309.098086 218.26982 
L 309.981939 222.2763 
L 310.423866 225.2319 
L 310.865792 225.16622 
L 311.307718 228.25318 
L 312.191571 237.18566 
L 313.075424 240.73238 
L 313.51735 244.47614 
L 313.959277 244.47614 
L 314.401203 244.01638 
L 314.843129 239.94422 
L 315.285056 238.56494 
L 315.726982 235.67502 
L 317.052761 221.35678 
L 317.494688 219.3207 
L 317.936614 215.83966 
L 318.37854 214.98582 
L 319.262393 210.19118 
L 319.704319 211.50478 
L 320.146246 212.03022 
L 320.588172 213.0811 
L 321.030098 215.51126 
L 321.913951 222.80174 
L 322.355878 224.64078 
L 322.797804 223.85262 
L 323.23973 222.6047 
L 323.681657 220.89702 
L 324.565509 214.85446 
L 325.007436 209.60006 
L 325.449362 208.1551 
L 325.891289 209.7971 
L 326.333215 208.74622 
L 326.775141 204.47702 
L 327.217068 196.0043 
L 327.658994 191.80078 
L 328.10092 188.71382 
L 328.542847 172.29382 
L 328.984773 173.54174 
L 329.426699 177.15414 
L 329.868626 174.78966 
L 330.310552 165.52878 
L 330.752479 161.32526 
L 331.194405 159.02646 
L 331.636331 155.47974 
L 333.404037 193.44278 
L 333.845963 197.58062 
L 334.28789 205.46222 
L 334.729816 210.05982 
L 335.171742 209.4687 
L 335.613669 209.4687 
L 336.055595 210.65094 
L 336.497521 208.74622 
L 336.939448 209.40302 
L 337.381374 207.8267 
L 337.823301 205.26518 
L 338.265227 203.36046 
L 339.14908 203.75454 
L 339.591006 202.96638 
L 340.032932 200.6019 
L 340.474859 199.22262 
L 340.916785 196.46406 
L 341.358711 196.92382 
L 341.800638 195.08478 
L 342.242564 191.7351 
L 342.684491 186.74342 
L 343.126417 177.08846 
L 343.568343 169.92934 
L 344.01027 167.17078 
L 344.452196 165.85718 
L 344.894122 169.14118 
L 345.336049 167.82758 
L 346.219902 168.02462 
L 346.661828 169.53526 
L 347.103754 173.3447 
L 347.545681 173.47606 
L 347.987607 172.95062 
L 348.429533 173.3447 
L 348.87146 171.57134 
L 349.313386 167.30214 
L 349.755313 157.05606 
L 350.197239 150.29102 
L 350.639165 147.79518 
L 351.081092 147.99222 
L 351.523018 149.83126 
L 351.964944 155.21702 
L 353.290723 191.80078 
L 353.73265 198.04038 
L 354.174576 200.99598 
L 354.616503 199.41966 
L 355.058429 198.50014 
L 355.500355 198.50014 
L 355.942282 195.47886 
L 356.384208 193.90254 
L 357.268061 189.96174 
L 357.709987 188.84518 
L 358.151914 189.37062 
L 358.59384 189.56766 
L 359.477693 191.60374 
L 359.919619 195.3475 
L 360.803472 199.87942 
L 361.245398 202.04686 
L 361.687324 202.44094 
L 362.129251 202.44094 
L 362.571177 199.09126 
L 363.45503 188.05702 
L 363.896956 186.1523 
L 364.338883 185.1671 
L 364.780809 178.33638 
L 365.222735 173.93582 
L 365.664662 171.96542 
L 366.106588 172.16246 
L 366.990441 171.0459 
L 367.432367 170.84886 
L 367.874294 171.17726 
L 368.31622 172.0311 
L 369.200073 174.85534 
L 369.641999 176.82574 
L 370.083926 174.92102 
L 370.525852 174.92102 
L 371.851631 171.50566 
L 372.293557 170.52046 
L 372.735484 169.92934 
L 373.17741 172.0311 
L 373.619336 172.22814 
L 374.061263 174.19854 
L 374.503189 174.72398 
L 375.387042 172.55654 
L 375.828968 168.87846 
L 376.270895 164.1495 
L 377.154747 159.61758 
L 378.0386 152.26142 
L 378.922453 135.77574 
L 379.364379 137.41774 
L 379.806306 136.10414 
L 380.248232 138.73134 
L 381.132085 149.76558 
L 381.574011 153.11526 
L 382.015938 153.04958 
L 382.457864 152.58982 
L 382.89979 153.57502 
L 383.341717 155.67678 
L 383.783643 155.21702 
L 384.225569 153.6407 
L 384.667496 153.37798 
L 385.109422 147.7295 
L 386.435201 122.63974 
L 386.877128 112.13094 
L 387.319054 108.12446 
L 387.76098 106.87654 
L 388.202907 106.74518 
L 389.086759 97.74702 
L 389.528686 95.77662 
L 389.970612 94.79142 
L 390.412539 86.90982 
L 390.854465 76.00694 
L 391.296391 62.14846 
L 391.738318 60.3751 
L 392.180244 59.19286 
L 392.62217 60.0467 
L 393.064097 62.21414 
L 393.506023 63.13366 
L 393.947949 60.90054 
L 394.389876 57.87926 
L 394.831802 58.14198 
L 395.715655 65.3011 
L 397.041434 90.12814 
L 397.48336 92.95238 
L 398.80914 107.40198 
L 399.251066 108.71558 
L 399.692992 112.52502 
L 400.576845 134.2651 
L 401.460698 160.40574 
L 401.902624 173.08198 
L 402.344551 182.40854 
L 402.786477 194.09958 
L 403.228403 198.50014 
L 403.67033 207.03854 
L 404.554182 218.53254 
L 404.996109 219.9775 
L 405.438035 222.2763 
L 405.879961 220.9627 
L 406.321888 220.04318 
L 406.763814 220.43726 
L 407.205741 221.35678 
L 407.647667 222.53902 
L 408.53152 226.02006 
L 409.415372 235.28094 
L 409.857299 237.18566 
L 410.299225 234.03302 
L 410.741152 226.80822 
L 411.183078 222.40766 
L 411.625004 219.9775 
L 412.066931 218.40118 
L 412.508857 218.6639 
L 412.950783 219.18934 
L 413.39271 218.6639 
L 413.834636 218.40118 
L 414.276563 216.56214 
L 414.718489 213.86926 
L 415.602342 202.2439 
L 416.044268 196.06998 
L 416.928121 193.83686 
L 417.370047 195.74158 
L 417.811973 199.68238 
L 418.2539 200.9303 
L 418.695826 201.12734 
L 419.137753 198.76286 
L 419.579679 194.82206 
L 420.021605 192.32622 
L 420.463532 190.94694 
L 420.905458 191.60374 
L 421.347384 191.53806 
L 421.789311 191.86646 
L 422.231237 193.18006 
L 422.673164 194.0339 
L 423.11509 193.7055 
L 423.557016 190.15878 
L 423.998943 185.42982 
L 424.440869 183.1967 
L 424.882795 182.34286 
L 425.324722 182.5399 
L 425.766648 182.2115 
L 426.208574 182.73694 
L 426.650501 183.45942 
L 427.092427 184.97006 
L 427.534354 187.7943 
L 427.97628 188.58246 
L 428.418206 187.40022 
L 428.860133 182.93398 
L 429.302059 182.08014 
L 429.743985 182.73694 
L 430.627838 185.03574 
L 431.069765 185.36414 
L 431.511691 182.08014 
L 431.953617 180.50382 
L 432.83747 175.77486 
L 433.279396 173.73878 
L 433.721323 172.81926 
L 434.163249 167.82758 
L 434.605176 165.33174 
L 435.930955 159.81462 
L 436.372881 159.61758 
L 436.814807 160.40574 
L 437.69866 166.71102 
L 438.582513 171.43998 
L 439.024439 172.0311 
L 440.350218 176.49734 
L 440.792145 177.15414 
L 441.675997 174.85534 
L 442.117924 171.30862 
L 442.55985 169.99502 
L 443.443703 169.46958 
L 443.885629 169.33822 
L 444.327556 168.68142 
L 444.769482 168.28734 
L 445.211408 169.79798 
L 445.653335 169.14118 
L 446.095261 165.1347 
L 446.537188 163.36134 
L 447.42104 161.45662 
L 447.862967 157.64718 
L 448.304893 152.45846 
L 448.746819 153.3123 
L 449.188746 152.85254 
L 449.630672 152.58982 
L 450.072598 151.9987 
L 450.514525 151.6703 
L 451.398378 148.91174 
L 451.840304 148.78038 
L 452.28223 146.15318 
L 452.724157 145.23366 
L 453.166083 144.70822 
L 454.049936 137.15502 
L 454.491862 133.41126 
L 455.375715 115.2179 
L 456.259568 109.9635 
L 456.701494 107.73038 
L 457.14342 103.92094 
L 457.585347 98.66654 
L 458.027273 96.76182 
L 458.469199 96.23638 
L 458.911126 94.79142 
L 459.353052 94.79142 
L 459.794979 96.23638 
L 460.236905 98.40382 
L 460.678831 103.7239 
L 461.120758 104.0523 
L 462.00461 107.73038 
L 462.446537 112.5907 
L 462.888463 114.82382 
L 463.772316 116.40014 
L 464.214242 115.02086 
L 464.656169 114.5611 
L 465.098095 114.82382 
L 465.540021 116.46582 
L 465.981948 117.1883 
L 466.423874 115.61198 
L 466.865801 112.2623 
L 467.307727 111.40846 
L 467.749653 112.13094 
L 468.633506 115.15222 
L 469.075432 116.33446 
L 469.517359 112.5907 
L 469.959285 111.01438 
L 470.401211 107.73038 
L 470.843138 106.48246 
L 471.285064 98.92926 
L 471.726991 95.57958 
L 473.05277 105.62862 
L 473.494696 110.75166 
L 473.936622 114.16702 
L 474.378549 115.80902 
L 474.820475 115.34926 
L 475.262402 116.66286 
L 475.704328 117.05694 
L 476.146254 117.12262 
L 476.588181 117.05694 
L 477.030107 115.48062 
L 477.472033 114.42974 
L 478.355886 105.95702 
L 478.797812 100.50558 
L 479.239739 97.22158 
L 479.681665 96.10502 
L 480.123592 96.8275 
L 480.565518 96.56478 
L 481.007444 96.56478 
L 481.449371 99.1263 
L 481.891297 100.30854 
L 482.333223 101.95054 
L 482.77515 104.77478 
L 483.217076 105.89134 
L 483.659003 108.45286 
L 484.100929 110.35758 
L 485.426708 119.55278 
L 485.868634 124.4131 
L 486.310561 126.0551 
L 486.752487 126.58054 
L 487.63634 122.83678 
L 488.078266 117.31966 
L 488.520193 107.79606 
L 489.404045 95.25118 
L 489.845972 90.78494 
L 490.287898 89.14294 
L 490.729824 88.22342 
L 491.613677 91.5731 
L 492.055604 92.29558 
L 492.49753 87.43526 
L 492.939456 89.07726 
L 493.381383 92.2299 
L 493.823309 94.5287 
L 494.707162 101.16238 
L 495.149088 101.29374 
L 496.916794 118.76462 
L 497.35872 121.72022 
L 497.800646 125.52966 
L 498.242573 127.30302 
L 498.684499 126.18646 
L 499.126426 122.37702 
L 500.010278 107.40198 
L 500.452205 102.93574 
L 500.894131 101.29374 
L 501.336057 101.95054 
L 502.661836 109.3067 
L 503.103763 110.16054 
L 503.987616 112.78774 
L 504.871468 117.5167 
L 505.313395 117.91078 
L 505.755321 116.72854 
L 506.197247 115.02086 
L 506.639174 114.03566 
L 507.0811 113.83862 
L 507.523027 113.9043 
L 507.964953 115.02086 
L 508.406879 115.80902 
L 508.848806 116.92558 
L 509.290732 117.45102 
L 509.732658 116.26878 
L 510.174585 113.83862 
L 510.616511 110.75166 
L 511.058437 109.56942 
L 511.500364 109.6351 
L 511.94229 110.2919 
L 512.384217 109.83214 
L 512.826143 109.17534 
L 513.268069 109.37238 
L 513.709996 108.91262 
L 514.151922 108.78126 
L 515.035775 110.6203 
L 515.477701 112.32798 
L 515.919628 113.2475 
L 516.80348 114.42974 
L 517.245407 115.80902 
L 518.129259 115.74334 
L 518.571186 114.36406 
L 519.013112 114.82382 
L 519.896965 114.69246 
L 520.338891 112.32798 
L 520.780818 111.53982 
L 521.222744 112.52502 
L 521.66467 114.2327 
L 522.106597 114.03566 
L 522.548523 114.2327 
L 522.990449 113.70726 
L 524.316229 106.15406 
L 524.758155 105.0375 
L 526.083934 106.6795 
L 526.52586 107.9931 
L 526.967787 108.84694 
L 527.409713 106.61382 
L 527.85164 106.21974 
L 528.293566 106.48246 
L 528.735492 107.0079 
L 529.177419 108.05878 
L 530.061271 109.24102 
L 530.503198 111.01438 
L 530.945124 112.13094 
L 531.387051 110.75166 
L 531.828977 110.48894 
L 532.270903 111.01438 
L 532.71283 111.86822 
L 533.154756 112.32798 
L 533.596682 112.39366 
L 534.038609 113.11614 
L 534.480535 113.18182 
L 534.922461 113.51022 
L 535.364388 113.2475 
L 535.806314 113.70726 
L 536.248241 113.64158 
L 536.690167 114.36406 
L 537.132093 115.48062 
L 537.57402 117.77942 
L 538.015946 119.02734 
L 538.457872 121.4575 
L 538.899799 122.24566 
L 539.341725 123.82198 
L 539.783652 123.88766 
L 540.225578 118.43622 
L 541.109431 122.1143 
L 541.551357 122.96814 
L 541.993283 127.6971 
L 543.319062 155.01998 
L 544.202915 168.94414 
L 544.644842 178.33638 
L 545.086768 183.06534 
L 545.528694 184.97006 
L 546.854473 186.34934 
L 547.2964 185.23278 
L 547.738326 183.78782 
L 548.180253 183.06534 
L 548.622179 186.02094 
L 549.506032 188.7795 
L 549.947958 190.22446 
L 550.389884 189.56766 
L 550.831811 188.38542 
L 551.273737 186.21798 
L 551.715664 185.69254 
L 552.15759 182.99966 
L 552.599516 181.8831 
L 553.041443 181.5547 
L 553.483369 182.2115 
L 553.925295 183.32806 
L 554.367222 183.91918 
L 554.809148 185.42982 
L 555.251074 184.8387 
L 555.693001 184.70734 
L 556.134927 185.8239 
L 556.576854 188.1227 
L 557.460706 194.3623 
L 557.902633 195.21614 
L 558.786485 199.48534 
L 559.228412 199.15694 
L 559.670338 200.01078 
L 560.554191 204.47702 
L 561.438044 202.50662 
L 561.87997 202.04686 
L 562.763823 203.75454 
L 563.205749 204.34566 
L 563.647676 204.34566 
L 564.089602 205.26518 
L 564.531528 206.77582 
L 565.415381 211.7675 
L 566.299234 221.48814 
L 566.74116 223.85262 
L 568.950792 242.04598 
L 569.392718 245.19862 
L 569.834645 245.52702 
L 570.276571 244.21342 
L 570.718497 241.19214 
L 571.60235 232.71942 
L 572.486203 228.31886 
L 572.928129 227.07094 
L 573.811982 223.13014 
L 574.253908 219.6491 
L 574.695835 218.20414 
L 575.137761 215.11718 
L 575.579688 212.88406 
L 576.905467 209.27166 
L 577.347393 209.27166 
L 577.789319 208.22078 
L 578.673172 207.1699 
L 579.115098 207.8267 
L 579.557025 207.89238 
L 579.998951 208.87758 
L 580.440878 210.38822 
L 580.882804 210.51958 
L 581.766657 205.13382 
L 582.208583 204.01726 
L 582.650509 204.27998 
L 583.092436 204.73974 
L 583.534362 205.8563 
L 583.976289 205.72494 
L 584.860141 200.53622 
L 585.302068 200.2735 
L 586.18592 201.45574 
L 587.069773 206.5131 
L 587.511699 206.8415 
L 587.953626 206.38174 
L 588.395552 207.03854 
L 588.837479 203.8859 
L 589.721331 201.2587 
L 590.163258 200.86462 
L 590.605184 201.06166 
L 591.04711 201.45574 
L 591.489037 202.50662 
L 591.930963 202.5723 
L 592.37289 202.11254 
L 592.814816 200.40486 
L 593.256742 198.17174 
L 593.698669 195.3475 
L 594.140595 195.87294 
L 594.582521 197.6463 
L 595.024448 197.18654 
L 595.466374 195.47886 
L 595.908301 194.3623 
L 596.792153 192.91734 
L 597.23408 192.65462 
L 597.676006 193.63982 
L 598.117932 195.28182 
L 598.559859 195.08478 
L 599.001785 192.98302 
L 599.443711 192.78598 
L 600.327564 195.3475 
L 600.769491 197.51494 
L 601.211417 197.9747 
L 601.653343 198.04038 
L 602.09527 197.84334 
L 602.537196 197.12086 
L 602.979122 196.0043 
L 603.421049 192.19486 
L 603.862975 190.4215 
L 604.304902 189.50198 
L 604.746828 189.30494 
L 605.188754 183.98486 
L 605.630681 182.08014 
L 606.072607 182.99966 
L 606.514533 181.75174 
L 606.95646 179.9127 
L 607.398386 180.17542 
L 608.724165 174.46126 
L 609.608018 171.24294 
L 610.049944 170.52046 
L 610.491871 169.00982 
L 610.933797 169.46958 
L 611.81765 173.47606 
L 612.259576 174.13286 
L 612.701503 171.96542 
L 613.143429 172.42518 
L 613.585355 171.76838 
L 614.027282 173.6731 
L 614.911134 171.96542 
L 615.353061 172.55654 
L 616.67884 176.6287 
L 617.120766 177.08846 
L 617.562693 175.6435 
L 618.446545 167.82758 
L 619.330398 161.71934 
L 620.214251 156.5963 
L 620.656177 154.36318 
L 621.098104 149.96262 
L 621.54003 147.86086 
L 622.423883 147.13838 
L 622.865809 148.12358 
L 623.307735 148.45198 
L 623.749662 149.63422 
L 624.191588 147.20406 
L 624.633515 146.4159 
L 625.517367 146.48158 
L 625.959294 147.00702 
L 626.40122 147.00702 
L 626.843146 147.20406 
L 627.285073 147.79518 
L 627.726999 146.80998 
L 628.168926 146.80998 
L 628.610852 146.61294 
L 629.052778 146.87566 
L 629.494705 147.4011 
L 629.936631 146.61294 
L 630.378557 145.1023 
L 631.26241 143.92006 
L 631.704336 144.1171 
L 632.146263 144.57686 
L 633.472042 148.45198 
L 634.355895 155.01998 
L 635.681674 166.05422 
L 637.007453 174.39558 
L 637.891306 178.40206 
L 638.333232 179.2559 
L 638.775158 178.13934 
L 639.659011 174.72398 
L 640.100938 174.72398 
L 640.542864 174.39558 
L 641.868643 168.87846 
L 643.194422 158.69806 
L 643.636348 158.50102 
L 644.078275 158.82942 
L 644.520201 158.10694 
L 644.962128 158.82942 
L 645.404054 160.01166 
L 646.287907 165.98854 
L 647.171759 170.84886 
L 647.613686 172.0311 
L 648.055612 172.3595 
L 648.497539 172.16246 
L 648.939465 172.88494 
L 649.381391 173.0163 
L 649.823318 174.6583 
L 650.265244 174.72398 
L 650.70717 174.92102 
L 651.149097 175.70918 
L 651.591023 175.11806 
L 652.032949 173.41038 
L 652.474876 168.48438 
L 652.916802 168.61574 
L 653.358729 169.27254 
L 653.800655 168.02462 
L 654.242581 167.82758 
L 654.684508 165.33174 
L 655.126434 159.81462 
L 656.010287 155.47974 
L 656.452213 154.56022 
L 656.89414 154.88862 
L 657.336066 157.12174 
L 657.777992 160.14302 
L 658.219919 162.37614 
L 659.103771 164.1495 
L 659.545698 166.4483 
L 659.987624 170.0607 
L 660.429551 171.76838 
L 661.75533 180.04406 
L 662.197256 180.63518 
L 663.081109 183.65646 
L 663.964961 191.7351 
L 664.406888 197.51494 
L 665.290741 203.75454 
L 665.732667 205.46222 
L 666.174593 207.89238 
L 666.61652 212.0959 
L 667.058446 213.67222 
L 667.500372 214.19766 
L 667.942299 213.54086 
L 668.384225 214.0663 
L 668.826152 213.34382 
L 669.268078 213.67222 
L 669.710004 213.21246 
L 670.151931 213.86926 
L 670.593857 213.7379 
L 671.035783 213.7379 
L 671.919636 213.93494 
L 672.361562 213.86926 
L 672.803489 212.16158 
L 673.245415 212.4243 
L 673.687342 212.16158 
L 674.129268 211.1107 
L 674.571194 211.57046 
L 675.013121 212.22726 
L 675.455047 213.54086 
L 675.896973 214.32902 
L 676.3389 215.44558 
L 676.780826 214.7231 
L 677.222753 214.98582 
L 677.664679 215.11718 
L 678.106605 215.11718 
L 678.548532 211.96454 
L 678.990458 204.2143 
L 679.874311 200.9303 
L 680.316237 200.86462 
L 680.758164 199.87942 
L 681.20009 198.17174 
L 681.642016 197.77766 
L 682.083943 197.90902 
L 682.525869 197.6463 
L 683.409722 196.13566 
L 683.851648 194.29662 
L 684.293574 190.48718 
L 685.619354 171.83406 
L 686.503206 152.58982 
L 686.945133 149.89694 
L 687.387059 151.40758 
L 687.828985 152.39278 
L 688.712838 155.47974 
L 689.154765 155.74246 
L 689.596691 154.2975 
L 690.480544 147.00702 
L 690.92247 146.94134 
L 691.364396 145.95614 
L 691.806323 145.36502 
L 692.248249 145.62774 
L 692.690176 144.90526 
L 693.132102 142.27806 
L 694.015955 131.70358 
L 694.457881 129.07638 
L 694.899807 128.22254 
L 695.341734 126.97462 
L 695.78366 126.3835 
L 696.667513 128.74798 
L 697.109439 129.47046 
L 697.551366 128.3539 
L 698.435218 129.40478 
L 698.877145 130.9811 
L 699.760997 126.51486 
L 700.64485 119.55278 
L 701.086777 117.25398 
L 701.528703 116.00606 
L 702.412556 115.48062 
L 702.854482 116.59718 
L 703.296408 119.4871 
L 704.180261 122.70542 
L 704.622188 124.47878 
L 704.622188 124.47878 
" clip-path="url(#p6b4d2c1e22)" style="fill: none; stroke: #0070c0; stroke-width: 2.5; stroke-linecap: square"/>
   </g>
   <g id="line2d_52">
    <path d="M 64.270878 293.495321 
L 704.622188 122.555692 
L 704.622188 122.555692 
" clip-path="url(#p6b4d2c1e22)" style="fill: none; stroke: #ff0000; stroke-opacity: 0.8; stroke-width: 2; stroke-linecap: square"/>
   </g>
   <g id="patch_3">
    <path d="M 59.409688 367.7575 
L 59.409688 39.3575 
" style="fill: none; stroke: #000000; stroke-width: 0.8; stroke-linejoin: miter; stroke-linecap: square"/>
   </g>
   <g id="patch_4">
    <path d="M 704.622187 367.7575 
L 704.622187 39.3575 
" style="fill: none; stroke: #000000; stroke-width: 0.8; stroke-linejoin: miter; stroke-linecap: square"/>
   </g>
   <g id="patch_5">
    <path d="M 59.409688 367.7575 
L 704.622188 367.7575 
" style="fill: none; stroke: #000000; stroke-width: 0.8; stroke-linejoin: miter; stroke-linecap: square"/>
   </g>
   <g id="patch_6">
    <path d="M 59.409688 39.3575 
L 704.622188 39.3575 
" style="fill: none; stroke: #000000; stroke-width: 0.8; stroke-linejoin: miter; stroke-linecap: square"/>
   </g>
   <g id="text_28">
    <!-- Retail Diesel Prices ($ per gallon) - Rocky Mountain (1994 - 2022) -->
    <g transform="translate(86.164688 19.3575) scale(0.16 -0.16)">
     <defs>
      <path id="DejaVuSans-Bold-52" d="M 2297 2597 
Q 2675 2597 2839 2737 
Q 3003 2878 3003 3200 
Q 3003 3519 2839 3656 
Q 2675 3794 2297 3794 
L 1791 3794 
L 1791 2597 
L 2297 2597 
z
M 1791 1766 
L 1791 0 
L 588 0 
L 588 4666 
L 2425 4666 
Q 3347 4666 3776 4356 
Q 4206 4047 4206 3378 
Q 4206 2916 3982 2619 
Q 3759 2322 3309 2181 
Q 3556 2125 3751 1926 
Q 3947 1728 4147 1325 
L 4800 0 
L 3519 0 
L 2950 1159 
Q 2778 1509 2601 1637 
Q 2425 1766 2131 1766 
L 1791 1766 
z
" transform="scale(0.015625)"/>
      <path id="DejaVuSans-Bold-65" d="M 4031 1759 
L 4031 1441 
L 1416 1441 
Q 1456 1047 1700 850 
Q 1944 653 2381 653 
Q 2734 653 3104 758 
Q 3475 863 3866 1075 
L 3866 213 
Q 3469 63 3072 -14 
Q 2675 -91 2278 -91 
Q 1328 -91 801 392 
Q 275 875 275 1747 
Q 275 2603 792 3093 
Q 1309 3584 2216 3584 
Q 3041 3584 3536 3087 
Q 4031 2591 4031 1759 
z
M 2881 2131 
Q 2881 2450 2695 2645 
Q 2509 2841 2209 2841 
Q 1884 2841 1681 2658 
Q 1478 2475 1428 2131 
L 2881 2131 
z
" transform="scale(0.015625)"/>
      <path id="DejaVuSans-Bold-74" d="M 1759 4494 
L 1759 3500 
L 2913 3500 
L 2913 2700 
L 1759 2700 
L 1759 1216 
Q 1759 972 1856 886 
Q 1953 800 2241 800 
L 2816 800 
L 2816 0 
L 1856 0 
Q 1194 0 917 276 
Q 641 553 641 1216 
L 641 2700 
L 84 2700 
L 84 3500 
L 641 3500 
L 641 4494 
L 1759 4494 
z
" transform="scale(0.015625)"/>
      <path id="DejaVuSans-Bold-61" d="M 2106 1575 
Q 1756 1575 1579 1456 
Q 1403 1338 1403 1106 
Q 1403 894 1545 773 
Q 1688 653 1941 653 
Q 2256 653 2472 879 
Q 2688 1106 2688 1447 
L 2688 1575 
L 2106 1575 
z
M 3816 1997 
L 3816 0 
L 2688 0 
L 2688 519 
Q 2463 200 2181 54 
Q 1900 -91 1497 -91 
Q 953 -91 614 226 
Q 275 544 275 1050 
Q 275 1666 698 1953 
Q 1122 2241 2028 2241 
L 2688 2241 
L 2688 2328 
Q 2688 2594 2478 2717 
Q 2269 2841 1825 2841 
Q 1466 2841 1156 2769 
Q 847 2697 581 2553 
L 581 3406 
Q 941 3494 1303 3539 
Q 1666 3584 2028 3584 
Q 2975 3584 3395 3211 
Q 3816 2838 3816 1997 
z
" transform="scale(0.015625)"/>
      <path id="DejaVuSans-Bold-69" d="M 538 3500 
L 1656 3500 
L 1656 0 
L 538 0 
L 538 3500 
z
M 538 4863 
L 1656 4863 
L 1656 3950 
L 538 3950 
L 538 4863 
z
" transform="scale(0.015625)"/>
      <path id="DejaVuSans-Bold-6c" d="M 538 4863 
L 1656 4863 
L 1656 0 
L 538 0 
L 538 4863 
z
" transform="scale(0.015625)"/>
      <path id="DejaVuSans-Bold-20" transform="scale(0.015625)"/>
      <path id="DejaVuSans-Bold-44" d="M 1791 3756 
L 1791 909 
L 2222 909 
Q 2959 909 3348 1275 
Q 3738 1641 3738 2338 
Q 3738 3031 3350 3393 
Q 2963 3756 2222 3756 
L 1791 3756 
z
M 588 4666 
L 1856 4666 
Q 2919 4666 3439 4514 
Q 3959 4363 4331 4000 
Q 4659 3684 4818 3271 
Q 4978 2859 4978 2338 
Q 4978 1809 4818 1395 
Q 4659 981 4331 666 
Q 3956 303 3431 151 
Q 2906 0 1856 0 
L 588 0 
L 588 4666 
z
" transform="scale(0.015625)"/>
      <path id="DejaVuSans-Bold-73" d="M 3272 3391 
L 3272 2541 
Q 2913 2691 2578 2766 
Q 2244 2841 1947 2841 
Q 1628 2841 1473 2761 
Q 1319 2681 1319 2516 
Q 1319 2381 1436 2309 
Q 1553 2238 1856 2203 
L 2053 2175 
Q 2913 2066 3209 1816 
Q 3506 1566 3506 1031 
Q 3506 472 3093 190 
Q 2681 -91 1863 -91 
Q 1516 -91 1145 -36 
Q 775 19 384 128 
L 384 978 
Q 719 816 1070 734 
Q 1422 653 1784 653 
Q 2113 653 2278 743 
Q 2444 834 2444 1013 
Q 2444 1163 2330 1236 
Q 2216 1309 1875 1350 
L 1678 1375 
Q 931 1469 631 1722 
Q 331 1975 331 2491 
Q 331 3047 712 3315 
Q 1094 3584 1881 3584 
Q 2191 3584 2531 3537 
Q 2872 3491 3272 3391 
z
" transform="scale(0.015625)"/>
      <path id="DejaVuSans-Bold-50" d="M 588 4666 
L 2584 4666 
Q 3475 4666 3951 4270 
Q 4428 3875 4428 3144 
Q 4428 2409 3951 2014 
Q 3475 1619 2584 1619 
L 1791 1619 
L 1791 0 
L 588 0 
L 588 4666 
z
M 1791 3794 
L 1791 2491 
L 2456 2491 
Q 2806 2491 2997 2661 
Q 3188 2831 3188 3144 
Q 3188 3456 2997 3625 
Q 2806 3794 2456 3794 
L 1791 3794 
z
" transform="scale(0.015625)"/>
      <path id="DejaVuSans-Bold-72" d="M 3138 2547 
Q 2991 2616 2845 2648 
Q 2700 2681 2553 2681 
Q 2122 2681 1889 2404 
Q 1656 2128 1656 1613 
L 1656 0 
L 538 0 
L 538 3500 
L 1656 3500 
L 1656 2925 
Q 1872 3269 2151 3426 
Q 2431 3584 2822 3584 
Q 2878 3584 2943 3579 
Q 3009 3575 3134 3559 
L 3138 2547 
z
" transform="scale(0.015625)"/>
      <path id="DejaVuSans-Bold-63" d="M 3366 3391 
L 3366 2478 
Q 3138 2634 2908 2709 
Q 2678 2784 2431 2784 
Q 1963 2784 1702 2511 
Q 1441 2238 1441 1747 
Q 1441 1256 1702 982 
Q 1963 709 2431 709 
Q 2694 709 2930 787 
Q 3166 866 3366 1019 
L 3366 103 
Q 3103 6 2833 -42 
Q 2563 -91 2291 -91 
Q 1344 -91 809 395 
Q 275 881 275 1747 
Q 275 2613 809 3098 
Q 1344 3584 2291 3584 
Q 2566 3584 2833 3536 
Q 3100 3488 3366 3391 
z
" transform="scale(0.015625)"/>
      <path id="DejaVuSans-Bold-28" d="M 2413 -844 
L 1484 -844 
Q 1006 -72 778 623 
Q 550 1319 550 2003 
Q 550 2688 779 3389 
Q 1009 4091 1484 4856 
L 2413 4856 
Q 2013 4116 1813 3408 
Q 1613 2700 1613 2009 
Q 1613 1319 1811 609 
Q 2009 -100 2413 -844 
z
" transform="scale(0.015625)"/>
      <path id="DejaVuSans-Bold-24" d="M 2484 -941 
L 1978 -941 
L 1975 0 
Q 1584 16 1218 87 
Q 853 159 506 288 
L 506 1106 
Q 866 922 1233 823 
Q 1600 725 1978 713 
L 1978 1684 
L 1875 1703 
Q 1128 1834 814 2115 
Q 500 2397 500 2925 
Q 500 3484 883 3798 
Q 1266 4113 1975 4141 
L 1978 4863 
L 2484 4863 
L 2484 4153 
Q 2797 4128 3109 4075 
Q 3422 4022 3738 3938 
L 3738 3144 
Q 3425 3275 3112 3348 
Q 2800 3422 2484 3438 
L 2484 2541 
L 2584 2522 
Q 3378 2397 3698 2105 
Q 4019 1813 4019 1241 
Q 4019 666 3637 358 
Q 3256 50 2484 6 
L 2484 -941 
z
M 1978 2613 
L 1978 3428 
Q 1756 3416 1623 3308 
Q 1491 3200 1491 3034 
Q 1491 2850 1612 2745 
Q 1734 2641 1978 2613 
z
M 2484 1594 
L 2484 725 
Q 2756 728 2892 831 
Q 3028 934 3028 1141 
Q 3028 1353 2903 1458 
Q 2778 1563 2484 1594 
z
" transform="scale(0.015625)"/>
      <path id="DejaVuSans-Bold-70" d="M 1656 506 
L 1656 -1331 
L 538 -1331 
L 538 3500 
L 1656 3500 
L 1656 2988 
Q 1888 3294 2169 3439 
Q 2450 3584 2816 3584 
Q 3463 3584 3878 3070 
Q 4294 2556 4294 1747 
Q 4294 938 3878 423 
Q 3463 -91 2816 -91 
Q 2450 -91 2169 54 
Q 1888 200 1656 506 
z
M 2400 2772 
Q 2041 2772 1848 2508 
Q 1656 2244 1656 1747 
Q 1656 1250 1848 986 
Q 2041 722 2400 722 
Q 2759 722 2948 984 
Q 3138 1247 3138 1747 
Q 3138 2247 2948 2509 
Q 2759 2772 2400 2772 
z
" transform="scale(0.015625)"/>
      <path id="DejaVuSans-Bold-67" d="M 2919 594 
Q 2688 288 2409 144 
Q 2131 0 1766 0 
Q 1125 0 706 504 
Q 288 1009 288 1791 
Q 288 2575 706 3076 
Q 1125 3578 1766 3578 
Q 2131 3578 2409 3434 
Q 2688 3291 2919 2981 
L 2919 3500 
L 4044 3500 
L 4044 353 
Q 4044 -491 3511 -936 
Q 2978 -1381 1966 -1381 
Q 1638 -1381 1331 -1331 
Q 1025 -1281 716 -1178 
L 716 -306 
Q 1009 -475 1290 -558 
Q 1572 -641 1856 -641 
Q 2406 -641 2662 -400 
Q 2919 -159 2919 353 
L 2919 594 
z
M 2181 2772 
Q 1834 2772 1640 2515 
Q 1447 2259 1447 1791 
Q 1447 1309 1634 1061 
Q 1822 813 2181 813 
Q 2531 813 2725 1069 
Q 2919 1325 2919 1791 
Q 2919 2259 2725 2515 
Q 2531 2772 2181 2772 
z
" transform="scale(0.015625)"/>
      <path id="DejaVuSans-Bold-6f" d="M 2203 2784 
Q 1831 2784 1636 2517 
Q 1441 2250 1441 1747 
Q 1441 1244 1636 976 
Q 1831 709 2203 709 
Q 2569 709 2762 976 
Q 2956 1244 2956 1747 
Q 2956 2250 2762 2517 
Q 2569 2784 2203 2784 
z
M 2203 3584 
Q 3106 3584 3614 3096 
Q 4122 2609 4122 1747 
Q 4122 884 3614 396 
Q 3106 -91 2203 -91 
Q 1297 -91 786 396 
Q 275 884 275 1747 
Q 275 2609 786 3096 
Q 1297 3584 2203 3584 
z
" transform="scale(0.015625)"/>
      <path id="DejaVuSans-Bold-6e" d="M 4056 2131 
L 4056 0 
L 2931 0 
L 2931 347 
L 2931 1631 
Q 2931 2084 2911 2256 
Q 2891 2428 2841 2509 
Q 2775 2619 2662 2680 
Q 2550 2741 2406 2741 
Q 2056 2741 1856 2470 
Q 1656 2200 1656 1722 
L 1656 0 
L 538 0 
L 538 3500 
L 1656 3500 
L 1656 2988 
Q 1909 3294 2193 3439 
Q 2478 3584 2822 3584 
Q 3428 3584 3742 3212 
Q 4056 2841 4056 2131 
z
" transform="scale(0.015625)"/>
      <path id="DejaVuSans-Bold-29" d="M 513 -844 
Q 913 -100 1113 609 
Q 1313 1319 1313 2009 
Q 1313 2700 1113 3408 
Q 913 4116 513 4856 
L 1441 4856 
Q 1916 4091 2145 3389 
Q 2375 2688 2375 2003 
Q 2375 1319 2147 623 
Q 1919 -72 1441 -844 
L 513 -844 
z
" transform="scale(0.015625)"/>
      <path id="DejaVuSans-Bold-2d" d="M 347 2297 
L 2309 2297 
L 2309 1388 
L 347 1388 
L 347 2297 
z
" transform="scale(0.015625)"/>
      <path id="DejaVuSans-Bold-6b" d="M 538 4863 
L 1656 4863 
L 1656 2216 
L 2944 3500 
L 4244 3500 
L 2534 1894 
L 4378 0 
L 3022 0 
L 1656 1459 
L 1656 0 
L 538 0 
L 538 4863 
z
" transform="scale(0.015625)"/>
      <path id="DejaVuSans-Bold-79" d="M 78 3500 
L 1197 3500 
L 2138 1125 
L 2938 3500 
L 4056 3500 
L 2584 -331 
Q 2363 -916 2067 -1148 
Q 1772 -1381 1288 -1381 
L 641 -1381 
L 641 -647 
L 991 -647 
Q 1275 -647 1404 -556 
Q 1534 -466 1606 -231 
L 1638 -134 
L 78 3500 
z
" transform="scale(0.015625)"/>
      <path id="DejaVuSans-Bold-4d" d="M 588 4666 
L 2119 4666 
L 3181 2169 
L 4250 4666 
L 5778 4666 
L 5778 0 
L 4641 0 
L 4641 3413 
L 3566 897 
L 2803 897 
L 1728 3413 
L 1728 0 
L 588 0 
L 588 4666 
z
" transform="scale(0.015625)"/>
      <path id="DejaVuSans-Bold-75" d="M 500 1363 
L 500 3500 
L 1625 3500 
L 1625 3150 
Q 1625 2866 1622 2436 
Q 1619 2006 1619 1863 
Q 1619 1441 1641 1255 
Q 1663 1069 1716 984 
Q 1784 875 1895 815 
Q 2006 756 2150 756 
Q 2500 756 2700 1025 
Q 2900 1294 2900 1772 
L 2900 3500 
L 4019 3500 
L 4019 0 
L 2900 0 
L 2900 506 
Q 2647 200 2364 54 
Q 2081 -91 1741 -91 
Q 1134 -91 817 281 
Q 500 653 500 1363 
z
" transform="scale(0.015625)"/>
      <path id="DejaVuSans-Bold-31" d="M 750 831 
L 1813 831 
L 1813 3847 
L 722 3622 
L 722 4441 
L 1806 4666 
L 2950 4666 
L 2950 831 
L 4013 831 
L 4013 0 
L 750 0 
L 750 831 
z
" transform="scale(0.015625)"/>
      <path id="DejaVuSans-Bold-39" d="M 641 103 
L 641 966 
Q 928 831 1190 764 
Q 1453 697 1709 697 
Q 2247 697 2547 995 
Q 2847 1294 2900 1881 
Q 2688 1725 2447 1647 
Q 2206 1569 1925 1569 
Q 1209 1569 770 1986 
Q 331 2403 331 3084 
Q 331 3838 820 4291 
Q 1309 4744 2131 4744 
Q 3044 4744 3544 4128 
Q 4044 3513 4044 2388 
Q 4044 1231 3459 570 
Q 2875 -91 1856 -91 
Q 1528 -91 1228 -42 
Q 928 6 641 103 
z
M 2125 2350 
Q 2441 2350 2600 2554 
Q 2759 2759 2759 3169 
Q 2759 3575 2600 3781 
Q 2441 3988 2125 3988 
Q 1809 3988 1650 3781 
Q 1491 3575 1491 3169 
Q 1491 2759 1650 2554 
Q 1809 2350 2125 2350 
z
" transform="scale(0.015625)"/>
      <path id="DejaVuSans-Bold-34" d="M 2356 3675 
L 1038 1722 
L 2356 1722 
L 2356 3675 
z
M 2156 4666 
L 3494 4666 
L 3494 1722 
L 4159 1722 
L 4159 850 
L 3494 850 
L 3494 0 
L 2356 0 
L 2356 850 
L 288 850 
L 288 1881 
L 2156 4666 
z
" transform="scale(0.015625)"/>
      <path id="DejaVuSans-Bold-32" d="M 1844 884 
L 3897 884 
L 3897 0 
L 506 0 
L 506 884 
L 2209 2388 
Q 2438 2594 2547 2791 
Q 2656 2988 2656 3200 
Q 2656 3528 2436 3728 
Q 2216 3928 1850 3928 
Q 1569 3928 1234 3808 
Q 900 3688 519 3450 
L 519 4475 
Q 925 4609 1322 4679 
Q 1719 4750 2100 4750 
Q 2938 4750 3402 4381 
Q 3866 4013 3866 3353 
Q 3866 2972 3669 2642 
Q 3472 2313 2841 1759 
L 1844 884 
z
" transform="scale(0.015625)"/>
      <path id="DejaVuSans-Bold-30" d="M 2944 2338 
Q 2944 3213 2780 3570 
Q 2616 3928 2228 3928 
Q 1841 3928 1675 3570 
Q 1509 3213 1509 2338 
Q 1509 1453 1675 1090 
Q 1841 728 2228 728 
Q 2613 728 2778 1090 
Q 2944 1453 2944 2338 
z
M 4147 2328 
Q 4147 1169 3647 539 
Q 3147 -91 2228 -91 
Q 1306 -91 806 539 
Q 306 1169 306 2328 
Q 306 3491 806 4120 
Q 1306 4750 2228 4750 
Q 3147 4750 3647 4120 
Q 4147 3491 4147 2328 
z
" transform="scale(0.015625)"/>
     </defs>
     <use xlink:href="#DejaVuSans-Bold-52"/>
     <use xlink:href="#DejaVuSans-Bold-65" transform="translate(77.001953 0)"/>
     <use xlink:href="#DejaVuSans-Bold-74" transform="translate(144.824219 0)"/>
     <use xlink:href="#DejaVuSans-Bold-61" transform="translate(192.626953 0)"/>
     <use xlink:href="#DejaVuSans-Bold-69" transform="translate(260.107422 0)"/>
     <use xlink:href="#DejaVuSans-Bold-6c" transform="translate(294.384766 0)"/>
     <use xlink:href="#DejaVuSans-Bold-20" transform="translate(328.662109 0)"/>
     <use xlink:href="#DejaVuSans-Bold-44" transform="translate(363.476562 0)"/>
     <use xlink:href="#DejaVuSans-Bold-69" transform="translate(446.484375 0)"/>
     <use xlink:href="#DejaVuSans-Bold-65" transform="translate(480.761719 0)"/>
     <use xlink:href="#DejaVuSans-Bold-73" transform="translate(548.583984 0)"/>
     <use xlink:href="#DejaVuSans-Bold-65" transform="translate(608.105469 0)"/>
     <use xlink:href="#DejaVuSans-Bold-6c" transform="translate(675.927734 0)"/>
     <use xlink:href="#DejaVuSans-Bold-20" transform="translate(710.205078 0)"/>
     <use xlink:href="#DejaVuSans-Bold-50" transform="translate(745.019531 0)"/>
     <use xlink:href="#DejaVuSans-Bold-72" transform="translate(818.310547 0)"/>
     <use xlink:href="#DejaVuSans-Bold-69" transform="translate(867.626953 0)"/>
     <use xlink:href="#DejaVuSans-Bold-63" transform="translate(901.904297 0)"/>
     <use xlink:href="#DejaVuSans-Bold-65" transform="translate(961.181641 0)"/>
     <use xlink:href="#DejaVuSans-Bold-73" transform="translate(1029.003906 0)"/>
     <use xlink:href="#DejaVuSans-Bold-20" transform="translate(1088.525391 0)"/>
     <use xlink:href="#DejaVuSans-Bold-28" transform="translate(1123.339844 0)"/>
     <use xlink:href="#DejaVuSans-Bold-24" transform="translate(1169.042969 0)"/>
     <use xlink:href="#DejaVuSans-Bold-20" transform="translate(1238.623047 0)"/>
     <use xlink:href="#DejaVuSans-Bold-70" transform="translate(1273.4375 0)"/>
     <use xlink:href="#DejaVuSans-Bold-65" transform="translate(1345.019531 0)"/>
     <use xlink:href="#DejaVuSans-Bold-72" transform="translate(1412.841797 0)"/>
     <use xlink:href="#DejaVuSans-Bold-20" transform="translate(1462.158203 0)"/>
     <use xlink:href="#DejaVuSans-Bold-67" transform="translate(1496.972656 0)"/>
     <use xlink:href="#DejaVuSans-Bold-61" transform="translate(1568.554688 0)"/>
     <use xlink:href="#DejaVuSans-Bold-6c" transform="translate(1636.035156 0)"/>
     <use xlink:href="#DejaVuSans-Bold-6c" transform="translate(1670.3125 0)"/>
     <use xlink:href="#DejaVuSans-Bold-6f" transform="translate(1704.589844 0)"/>
     <use xlink:href="#DejaVuSans-Bold-6e" transform="translate(1773.291016 0)"/>
     <use xlink:href="#DejaVuSans-Bold-29" transform="translate(1844.482422 0)"/>
     <use xlink:href="#DejaVuSans-Bold-20" transform="translate(1890.185547 0)"/>
     <use xlink:href="#DejaVuSans-Bold-2d" transform="translate(1925 0)"/>
     <use xlink:href="#DejaVuSans-Bold-20" transform="translate(1966.503906 0)"/>
     <use xlink:href="#DejaVuSans-Bold-52" transform="translate(2001.318359 0)"/>
     <use xlink:href="#DejaVuSans-Bold-6f" transform="translate(2078.320312 0)"/>
     <use xlink:href="#DejaVuSans-Bold-63" transform="translate(2147.021484 0)"/>
     <use xlink:href="#DejaVuSans-Bold-6b" transform="translate(2206.298828 0)"/>
     <use xlink:href="#DejaVuSans-Bold-79" transform="translate(2272.802734 0)"/>
     <use xlink:href="#DejaVuSans-Bold-20" transform="translate(2337.988281 0)"/>
     <use xlink:href="#DejaVuSans-Bold-4d" transform="translate(2372.802734 0)"/>
     <use xlink:href="#DejaVuSans-Bold-6f" transform="translate(2472.314453 0)"/>
     <use xlink:href="#DejaVuSans-Bold-75" transform="translate(2541.015625 0)"/>
     <use xlink:href="#DejaVuSans-Bold-6e" transform="translate(2612.207031 0)"/>
     <use xlink:href="#DejaVuSans-Bold-74" transform="translate(2683.398438 0)"/>
     <use xlink:href="#DejaVuSans-Bold-61" transform="translate(2731.201172 0)"/>
     <use xlink:href="#DejaVuSans-Bold-69" transform="translate(2798.681641 0)"/>
     <use xlink:href="#DejaVuSans-Bold-6e" transform="translate(2832.958984 0)"/>
     <use xlink:href="#DejaVuSans-Bold-20" transform="translate(2904.150391 0)"/>
     <use xlink:href="#DejaVuSans-Bold-28" transform="translate(2938.964844 0)"/>
     <use xlink:href="#DejaVuSans-Bold-31" transform="translate(2984.667969 0)"/>
     <use xlink:href="#DejaVuSans-Bold-39" transform="translate(3054.248047 0)"/>
     <use xlink:href="#DejaVuSans-Bold-39" transform="translate(3123.828125 0)"/>
     <use xlink:href="#DejaVuSans-Bold-34" transform="translate(3193.408203 0)"/>
     <use xlink:href="#DejaVuSans-Bold-20" transform="translate(3262.988281 0)"/>
     <use xlink:href="#DejaVuSans-Bold-2d" transform="translate(3297.802734 0)"/>
     <use xlink:href="#DejaVuSans-Bold-20" transform="translate(3339.306641 0)"/>
     <use xlink:href="#DejaVuSans-Bold-32" transform="translate(3374.121094 0)"/>
     <use xlink:href="#DejaVuSans-Bold-30" transform="translate(3443.701172 0)"/>
     <use xlink:href="#DejaVuSans-Bold-32" transform="translate(3513.28125 0)"/>
     <use xlink:href="#DejaVuSans-Bold-32" transform="translate(3582.861328 0)"/>
     <use xlink:href="#DejaVuSans-Bold-29" transform="translate(3652.441406 0)"/>
    </g>
   </g>
  </g>
 </g>
 <defs>
  <clipPath id="p6b4d2c1e22">
   <rect x="59.409688" y="39.3575" width="645.2125" height="328.4"/>
  </clipPath>
 </defs>
</svg>
